%TF.GenerationSoftware,KiCad,Pcbnew,7.0.8*%
%TF.CreationDate,2025-02-10T02:43:01-05:00*%
%TF.ProjectId,RCTransmitterAecertRobotics,52435472-616e-4736-9d69-747465724165,V1.02*%
%TF.SameCoordinates,Original*%
%TF.FileFunction,Soldermask,Top*%
%TF.FilePolarity,Negative*%
%FSLAX46Y46*%
G04 Gerber Fmt 4.6, Leading zero omitted, Abs format (unit mm)*
G04 Created by KiCad (PCBNEW 7.0.8) date 2025-02-10 02:43:01*
%MOMM*%
%LPD*%
G01*
G04 APERTURE LIST*
G04 Aperture macros list*
%AMRoundRect*
0 Rectangle with rounded corners*
0 $1 Rounding radius*
0 $2 $3 $4 $5 $6 $7 $8 $9 X,Y pos of 4 corners*
0 Add a 4 corners polygon primitive as box body*
4,1,4,$2,$3,$4,$5,$6,$7,$8,$9,$2,$3,0*
0 Add four circle primitives for the rounded corners*
1,1,$1+$1,$2,$3*
1,1,$1+$1,$4,$5*
1,1,$1+$1,$6,$7*
1,1,$1+$1,$8,$9*
0 Add four rect primitives between the rounded corners*
20,1,$1+$1,$2,$3,$4,$5,0*
20,1,$1+$1,$4,$5,$6,$7,0*
20,1,$1+$1,$6,$7,$8,$9,0*
20,1,$1+$1,$8,$9,$2,$3,0*%
G04 Aperture macros list end*
%ADD10R,3.800000X2.500000*%
%ADD11RoundRect,1.250000X0.650000X0.000000X-0.650000X0.000000X-0.650000X0.000000X0.650000X0.000000X0*%
%ADD12C,2.000000*%
%ADD13R,2.000000X2.000000*%
%ADD14R,3.200000X2.000000*%
%ADD15C,3.200000*%
%ADD16C,1.600000*%
%ADD17O,1.600000X1.600000*%
%ADD18R,2.000000X1.000000*%
%ADD19O,2.000000X1.000000*%
%ADD20R,7.000000X2.900000*%
%ADD21O,7.000000X2.900000*%
%ADD22C,4.000000*%
%ADD23R,1.800000X1.800000*%
%ADD24C,1.800000*%
%ADD25R,1.600000X1.600000*%
%ADD26C,1.650000*%
%ADD27C,1.950000*%
%ADD28C,2.400000*%
G04 APERTURE END LIST*
%TO.C,G\u002A\u002A\u002A*%
G36*
X201104299Y-105988602D02*
G01*
X201104350Y-105993518D01*
X201079811Y-106060353D01*
X201019387Y-106131380D01*
X200942863Y-106188293D01*
X200870028Y-106212785D01*
X200867304Y-106212832D01*
X200828869Y-106210245D01*
X200820118Y-106196061D01*
X200845109Y-106160647D01*
X200907898Y-106094370D01*
X200924208Y-106077726D01*
X201011307Y-105993187D01*
X201066272Y-105952062D01*
X201095227Y-105951489D01*
X201104299Y-105988602D01*
G37*
G36*
X200948968Y-105502713D02*
G01*
X200945205Y-105536581D01*
X200914066Y-105588149D01*
X200851238Y-105663334D01*
X200752410Y-105768056D01*
X200630987Y-105890590D01*
X200490006Y-106027927D01*
X200383170Y-106124166D01*
X200305252Y-106183544D01*
X200251024Y-106210300D01*
X200233624Y-106212832D01*
X200212223Y-106207382D01*
X200212420Y-106187495D01*
X200238458Y-106147868D01*
X200294574Y-106083195D01*
X200385008Y-105988173D01*
X200514000Y-105857498D01*
X200532303Y-105839138D01*
X200654203Y-105719094D01*
X200762209Y-105616792D01*
X200849076Y-105538769D01*
X200907556Y-105491564D01*
X200929666Y-105480626D01*
X200948968Y-105502713D01*
G37*
G36*
X194524749Y-98642289D02*
G01*
X194586710Y-98703831D01*
X194623494Y-98779321D01*
X194626749Y-98805751D01*
X194641270Y-98878738D01*
X194668032Y-98920202D01*
X194695115Y-98975413D01*
X194707457Y-99073392D01*
X194705505Y-99198814D01*
X194689709Y-99336350D01*
X194660516Y-99470677D01*
X194650990Y-99502548D01*
X194593551Y-99682690D01*
X194583879Y-99337418D01*
X194574208Y-98992146D01*
X194484137Y-98982129D01*
X194375428Y-98947385D01*
X194307986Y-98876397D01*
X194291412Y-98804567D01*
X194387226Y-98804567D01*
X194408852Y-98841756D01*
X194462392Y-98877071D01*
X194506944Y-98857919D01*
X194523885Y-98816932D01*
X194509984Y-98767847D01*
X194463564Y-98743058D01*
X194410863Y-98754483D01*
X194402327Y-98761710D01*
X194387226Y-98804567D01*
X194291412Y-98804567D01*
X194288983Y-98794042D01*
X194313800Y-98714323D01*
X194374357Y-98648053D01*
X194449813Y-98617152D01*
X194457468Y-98616851D01*
X194524749Y-98642289D01*
G37*
G36*
X198223202Y-97026385D02*
G01*
X198249917Y-97101715D01*
X198220704Y-97163280D01*
X198207068Y-97175716D01*
X198173488Y-97231994D01*
X198162033Y-97297784D01*
X198135123Y-97388482D01*
X198095305Y-97429215D01*
X198017287Y-97469664D01*
X197951407Y-97462221D01*
X197877621Y-97404428D01*
X197875444Y-97402258D01*
X197825162Y-97339422D01*
X197804267Y-97291041D01*
X197927180Y-97291041D01*
X197931538Y-97307792D01*
X197972133Y-97349257D01*
X198027201Y-97349732D01*
X198058731Y-97322953D01*
X198057390Y-97277452D01*
X198037985Y-97248980D01*
X197986419Y-97226107D01*
X197941949Y-97244290D01*
X197927180Y-97291041D01*
X197804267Y-97291041D01*
X197801934Y-97285639D01*
X197801749Y-97282164D01*
X197826933Y-97217084D01*
X197887516Y-97156040D01*
X197961049Y-97119161D01*
X197987462Y-97115669D01*
X198055317Y-97095745D01*
X198124150Y-97048902D01*
X198176087Y-97006806D01*
X198206687Y-97006477D01*
X198223202Y-97026385D01*
G37*
G36*
X196983944Y-93151877D02*
G01*
X197051837Y-93346360D01*
X196571119Y-93827740D01*
X196401932Y-93999897D01*
X196266600Y-94143399D01*
X196167810Y-94255217D01*
X196108247Y-94332323D01*
X196090402Y-94369663D01*
X196066655Y-94462954D01*
X196006217Y-94529160D01*
X195925294Y-94561025D01*
X195840090Y-94551291D01*
X195779807Y-94508754D01*
X195740230Y-94439134D01*
X195730118Y-94388659D01*
X195731788Y-94383518D01*
X195850213Y-94383518D01*
X195871443Y-94433696D01*
X195910260Y-94443565D01*
X195960439Y-94422335D01*
X195970307Y-94383518D01*
X195949077Y-94333339D01*
X195910260Y-94323470D01*
X195860081Y-94344700D01*
X195850213Y-94383518D01*
X195731788Y-94383518D01*
X195756247Y-94308223D01*
X195820402Y-94239859D01*
X195901236Y-94204604D01*
X195918129Y-94203376D01*
X195960656Y-94186314D01*
X196032413Y-94133570D01*
X196136075Y-94042806D01*
X196274318Y-93911686D01*
X196442207Y-93745515D01*
X196898368Y-93287655D01*
X196907210Y-93122525D01*
X196916052Y-92957395D01*
X196983944Y-93151877D01*
G37*
G36*
X190454867Y-105526006D02*
G01*
X190525778Y-105567786D01*
X190573070Y-105634121D01*
X190581827Y-105714461D01*
X190570954Y-105748695D01*
X190535947Y-105803351D01*
X190506648Y-105822525D01*
X190490209Y-105850306D01*
X190479325Y-105924881D01*
X190475981Y-106017678D01*
X190474109Y-106123292D01*
X190465773Y-106182175D01*
X190446890Y-106207594D01*
X190415934Y-106212832D01*
X190383192Y-106206638D01*
X190365070Y-106179135D01*
X190357371Y-106116946D01*
X190355886Y-106021355D01*
X190349424Y-105893181D01*
X190329045Y-105816196D01*
X190310851Y-105792501D01*
X190275072Y-105729834D01*
X190270514Y-105675143D01*
X190339895Y-105675143D01*
X190342984Y-105712111D01*
X190384244Y-105753581D01*
X190443012Y-105758644D01*
X190490242Y-105726733D01*
X190496041Y-105715114D01*
X190491325Y-105658661D01*
X190465075Y-105618609D01*
X190422527Y-105585921D01*
X190386928Y-105599426D01*
X190369795Y-105615607D01*
X190339895Y-105675143D01*
X190270514Y-105675143D01*
X190268055Y-105645630D01*
X190291024Y-105571710D01*
X190301844Y-105558317D01*
X190375250Y-105519332D01*
X190454867Y-105526006D01*
G37*
G36*
X197494007Y-94742125D02*
G01*
X197545532Y-94915960D01*
X197562226Y-95051335D01*
X197543327Y-95159234D01*
X197488076Y-95250643D01*
X197456477Y-95284227D01*
X197390536Y-95362524D01*
X197354478Y-95434739D01*
X197351395Y-95455246D01*
X197326657Y-95535623D01*
X197266105Y-95605289D01*
X197190231Y-95642715D01*
X197171253Y-95644510D01*
X197105893Y-95624133D01*
X197051158Y-95584463D01*
X197000698Y-95499688D01*
X197000530Y-95464369D01*
X197111206Y-95464369D01*
X197132435Y-95514547D01*
X197171253Y-95524416D01*
X197221432Y-95503186D01*
X197231300Y-95464369D01*
X197210070Y-95414190D01*
X197171253Y-95404321D01*
X197121074Y-95425551D01*
X197111206Y-95464369D01*
X197000530Y-95464369D01*
X197000280Y-95411667D01*
X197043161Y-95336678D01*
X197122602Y-95290996D01*
X197175506Y-95284227D01*
X197248106Y-95262172D01*
X197323917Y-95207000D01*
X197329545Y-95201293D01*
X197367143Y-95157189D01*
X197391271Y-95109940D01*
X197405519Y-95044569D01*
X197413477Y-94946101D01*
X197417727Y-94833504D01*
X197426454Y-94548648D01*
X197494007Y-94742125D01*
G37*
G36*
X199041582Y-99571649D02*
G01*
X199051708Y-99593548D01*
X199062742Y-99622643D01*
X199075273Y-99660248D01*
X199085788Y-99702927D01*
X199094472Y-99756040D01*
X199101513Y-99824951D01*
X199107093Y-99915022D01*
X199111400Y-100031615D01*
X199114619Y-100180091D01*
X199116934Y-100365814D01*
X199118531Y-100594145D01*
X199119596Y-100870447D01*
X199120314Y-101200082D01*
X199120462Y-101292257D01*
X199122789Y-102811753D01*
X199830587Y-103544030D01*
X200048908Y-103771542D01*
X200226975Y-103961057D01*
X200367782Y-104116230D01*
X200474328Y-104240719D01*
X200549608Y-104338178D01*
X200596618Y-104412264D01*
X200618354Y-104466634D01*
X200617896Y-104504700D01*
X200595828Y-104490034D01*
X200536851Y-104436398D01*
X200445489Y-104348284D01*
X200326269Y-104230184D01*
X200183713Y-104086589D01*
X200022347Y-103921992D01*
X199846695Y-103740884D01*
X199806104Y-103698773D01*
X199003529Y-102865196D01*
X199005439Y-101168860D01*
X199005878Y-100807416D01*
X199006420Y-100501819D01*
X199007220Y-100247870D01*
X199008433Y-100041369D01*
X199010216Y-99878117D01*
X199012723Y-99753915D01*
X199016111Y-99664561D01*
X199020536Y-99605858D01*
X199026152Y-99573604D01*
X199033116Y-99563601D01*
X199041582Y-99571649D01*
G37*
G36*
X199375032Y-100604691D02*
G01*
X199385442Y-100656054D01*
X199379898Y-100703886D01*
X199373074Y-100782401D01*
X199393429Y-100820784D01*
X199404482Y-100826388D01*
X199435273Y-100846522D01*
X199459843Y-100884741D01*
X199478843Y-100947043D01*
X199492925Y-101039430D01*
X199502740Y-101167900D01*
X199508939Y-101338454D01*
X199512174Y-101557093D01*
X199513097Y-101826805D01*
X199513097Y-102625908D01*
X199887759Y-102999670D01*
X200039463Y-103153820D01*
X200151747Y-103275025D01*
X200230241Y-103370043D01*
X200280572Y-103445633D01*
X200306267Y-103502116D01*
X200331137Y-103578595D01*
X200343831Y-103624690D01*
X200344078Y-103630799D01*
X200322148Y-103610477D01*
X200264067Y-103553556D01*
X200175938Y-103466102D01*
X200063861Y-103354181D01*
X199933940Y-103223860D01*
X199868399Y-103157927D01*
X199398754Y-102685054D01*
X199386000Y-101807394D01*
X199381920Y-101550597D01*
X199377683Y-101347190D01*
X199372841Y-101190516D01*
X199366944Y-101073918D01*
X199359544Y-100990739D01*
X199350193Y-100934322D01*
X199338440Y-100898011D01*
X199323838Y-100875149D01*
X199323077Y-100874297D01*
X199277027Y-100786315D01*
X199289578Y-100687325D01*
X199303988Y-100656485D01*
X199345173Y-100603143D01*
X199375032Y-100604691D01*
G37*
G36*
X200529838Y-104975600D02*
G01*
X200596328Y-105034538D01*
X200623957Y-105110136D01*
X200623971Y-105111827D01*
X200598530Y-105180113D01*
X200537012Y-105242633D01*
X200461624Y-105279180D01*
X200436836Y-105282099D01*
X200382045Y-105305003D01*
X200291224Y-105373971D01*
X200163903Y-105489387D01*
X200061541Y-105589305D01*
X199753286Y-105896511D01*
X199753286Y-106054671D01*
X199750443Y-106147625D01*
X199738251Y-106195127D01*
X199711215Y-106211648D01*
X199693239Y-106212832D01*
X199660271Y-106206532D01*
X199642146Y-106178646D01*
X199634562Y-106115693D01*
X199633191Y-106024672D01*
X199633191Y-105836512D01*
X199963451Y-105507276D01*
X200099692Y-105368728D01*
X200195853Y-105263911D01*
X200256842Y-105186786D01*
X200287569Y-105131314D01*
X200288110Y-105128639D01*
X200376809Y-105128639D01*
X200412168Y-105172894D01*
X200469327Y-105185717D01*
X200471092Y-105185399D01*
X200510422Y-105152152D01*
X200518889Y-105116969D01*
X200495885Y-105066203D01*
X200445056Y-105044812D01*
X200393671Y-105061039D01*
X200381592Y-105075478D01*
X200376809Y-105128639D01*
X200288110Y-105128639D01*
X200293711Y-105100968D01*
X200315458Y-105010024D01*
X200380208Y-104960946D01*
X200445181Y-104951839D01*
X200529838Y-104975600D01*
G37*
G36*
X191403065Y-105308212D02*
G01*
X191467447Y-105371924D01*
X191496616Y-105451297D01*
X191496785Y-105457377D01*
X191511474Y-105517077D01*
X191559901Y-105591153D01*
X191648602Y-105689043D01*
X191676927Y-105717442D01*
X191764904Y-105806354D01*
X191818263Y-105869786D01*
X191845646Y-105923898D01*
X191855697Y-105984851D01*
X191857068Y-106054268D01*
X191852713Y-106151606D01*
X191837515Y-106200657D01*
X191812033Y-106212832D01*
X191781674Y-106194290D01*
X191768372Y-106131870D01*
X191766997Y-106084292D01*
X191762989Y-106015557D01*
X191744939Y-105959198D01*
X191703812Y-105899577D01*
X191630572Y-105821060D01*
X191593491Y-105784055D01*
X191484592Y-105684449D01*
X191402183Y-105628966D01*
X191340435Y-105612359D01*
X191249753Y-105588885D01*
X191186182Y-105528670D01*
X191166525Y-105460096D01*
X191171845Y-105444210D01*
X191260783Y-105444210D01*
X191268304Y-105509495D01*
X191304124Y-105547359D01*
X191349865Y-105541624D01*
X191384700Y-105500265D01*
X191391702Y-105462241D01*
X191372297Y-105397233D01*
X191339070Y-105377868D01*
X191287270Y-105391936D01*
X191260783Y-105444210D01*
X191171845Y-105444210D01*
X191188145Y-105395538D01*
X191239335Y-105330429D01*
X191299583Y-105287809D01*
X191324974Y-105282099D01*
X191403065Y-105308212D01*
G37*
G36*
X191815280Y-103386081D02*
G01*
X191877754Y-103447805D01*
X191914210Y-103523616D01*
X191917116Y-103548586D01*
X191933929Y-103590284D01*
X191985922Y-103661114D01*
X192075423Y-103763731D01*
X192204763Y-103900790D01*
X192376270Y-104074945D01*
X192397494Y-104096165D01*
X192877872Y-104575840D01*
X192876038Y-105011534D01*
X192873258Y-105207844D01*
X192865990Y-105357102D01*
X192853009Y-105472216D01*
X192833093Y-105566094D01*
X192819071Y-105612359D01*
X192763938Y-105777489D01*
X192760858Y-105206688D01*
X192757778Y-104635887D01*
X192284564Y-104163367D01*
X192118467Y-103999191D01*
X191988391Y-103874789D01*
X191889460Y-103785969D01*
X191816799Y-103728536D01*
X191765531Y-103698298D01*
X191735131Y-103690846D01*
X191644648Y-103668926D01*
X191595809Y-103603824D01*
X191587690Y-103545378D01*
X191680925Y-103545378D01*
X191702075Y-103596435D01*
X191711502Y-103603598D01*
X191762323Y-103607328D01*
X191805141Y-103571735D01*
X191820829Y-103516504D01*
X191816229Y-103495802D01*
X191775185Y-103458424D01*
X191744915Y-103456289D01*
X191697357Y-103489175D01*
X191680925Y-103545378D01*
X191587690Y-103545378D01*
X191586856Y-103539377D01*
X191610617Y-103454719D01*
X191669555Y-103388229D01*
X191745152Y-103360600D01*
X191746844Y-103360586D01*
X191815280Y-103386081D01*
G37*
G36*
X191763729Y-105036043D02*
G01*
X191817772Y-105093237D01*
X191849139Y-105160553D01*
X191847967Y-105202465D01*
X191862428Y-105239587D01*
X191916138Y-105310791D01*
X192003864Y-105409815D01*
X192120378Y-105530401D01*
X192129890Y-105539899D01*
X192427518Y-105836410D01*
X192427518Y-106024621D01*
X192424316Y-106131854D01*
X192412913Y-106190553D01*
X192390616Y-106211977D01*
X192382482Y-106212832D01*
X192354491Y-106197127D01*
X192340606Y-106142536D01*
X192337447Y-106058670D01*
X192336298Y-105994889D01*
X192328379Y-105943972D01*
X192306986Y-105895331D01*
X192265411Y-105838377D01*
X192196947Y-105762523D01*
X192094889Y-105657180D01*
X192061703Y-105623327D01*
X191938732Y-105500876D01*
X191847366Y-105417746D01*
X191779885Y-105367880D01*
X191728572Y-105345216D01*
X191703564Y-105342146D01*
X191605938Y-105316879D01*
X191544304Y-105247113D01*
X191533894Y-105195826D01*
X191603396Y-105195826D01*
X191637394Y-105238941D01*
X191688254Y-105246157D01*
X191741948Y-105215209D01*
X191751986Y-105177428D01*
X191729205Y-105126824D01*
X191678875Y-105104591D01*
X191628015Y-105119379D01*
X191615749Y-105133810D01*
X191603396Y-105195826D01*
X191533894Y-105195826D01*
X191526808Y-105160916D01*
X191552207Y-105075712D01*
X191623547Y-105024422D01*
X191704284Y-105011886D01*
X191763729Y-105036043D01*
G37*
G36*
X196603134Y-91966614D02*
G01*
X196636692Y-92106271D01*
X196655132Y-92272122D01*
X196660443Y-92462239D01*
X196660851Y-92777722D01*
X195940284Y-93497820D01*
X195219716Y-94217918D01*
X195219716Y-94617182D01*
X195220506Y-94781788D01*
X195223960Y-94898251D01*
X195231700Y-94978466D01*
X195245351Y-95034327D01*
X195266536Y-95077730D01*
X195286555Y-95106850D01*
X195328578Y-95170921D01*
X195335335Y-95217335D01*
X195310371Y-95274254D01*
X195308136Y-95278271D01*
X195243133Y-95343457D01*
X195155670Y-95370918D01*
X195068500Y-95356550D01*
X195028328Y-95328739D01*
X194985103Y-95247047D01*
X194986774Y-95217817D01*
X195092849Y-95217817D01*
X195121811Y-95263127D01*
X195167787Y-95276338D01*
X195171681Y-95275233D01*
X195205609Y-95239668D01*
X195214429Y-95214095D01*
X195201299Y-95165338D01*
X195157652Y-95141035D01*
X195110433Y-95152288D01*
X195098309Y-95166256D01*
X195092849Y-95217817D01*
X194986774Y-95217817D01*
X194990581Y-95151224D01*
X195023608Y-95087306D01*
X195042527Y-95046990D01*
X195055652Y-94978547D01*
X195063816Y-94873089D01*
X195067857Y-94721729D01*
X195068643Y-94608465D01*
X195069598Y-94187904D01*
X195805177Y-93452785D01*
X196540756Y-92717665D01*
X196543495Y-92252069D01*
X196546234Y-91786473D01*
X196603134Y-91966614D01*
G37*
G36*
X194803021Y-95128303D02*
G01*
X194862327Y-95189330D01*
X194885594Y-95269727D01*
X194865964Y-95352054D01*
X194829409Y-95396276D01*
X194783923Y-95448609D01*
X194769362Y-95486053D01*
X194789015Y-95534030D01*
X194829409Y-95584463D01*
X194874697Y-95654051D01*
X194889456Y-95714916D01*
X194864672Y-95799160D01*
X194802393Y-95856905D01*
X194720729Y-95882199D01*
X194637790Y-95869091D01*
X194575910Y-95817972D01*
X194533287Y-95722536D01*
X194537481Y-95699554D01*
X194649267Y-95699554D01*
X194666196Y-95767203D01*
X194704114Y-95789831D01*
X194743720Y-95765728D01*
X194763944Y-95709712D01*
X194757420Y-95658165D01*
X194711402Y-95644510D01*
X194659256Y-95665170D01*
X194649267Y-95699554D01*
X194537481Y-95699554D01*
X194548951Y-95636703D01*
X194589220Y-95584463D01*
X194633614Y-95526807D01*
X194649267Y-95484034D01*
X194628688Y-95435040D01*
X194589220Y-95389310D01*
X194539131Y-95311752D01*
X194538724Y-95265532D01*
X194656256Y-95265532D01*
X194669451Y-95318156D01*
X194706973Y-95344204D01*
X194709314Y-95344274D01*
X194746387Y-95320177D01*
X194759279Y-95297220D01*
X194760546Y-95241722D01*
X194730687Y-95205719D01*
X194687667Y-95206556D01*
X194675304Y-95216157D01*
X194656256Y-95265532D01*
X194538724Y-95265532D01*
X194538403Y-95229137D01*
X194580092Y-95157273D01*
X194657252Y-95111967D01*
X194714531Y-95104085D01*
X194803021Y-95128303D01*
G37*
G36*
X198524969Y-97959363D02*
G01*
X198535570Y-97984278D01*
X198539455Y-97999149D01*
X198544542Y-98038992D01*
X198533976Y-98079463D01*
X198501191Y-98130180D01*
X198439622Y-98200765D01*
X198342706Y-98300839D01*
X198313546Y-98330224D01*
X198066796Y-98578262D01*
X198050238Y-100046197D01*
X198033679Y-101514132D01*
X198097856Y-101571327D01*
X198150036Y-101647764D01*
X198156212Y-101729056D01*
X198125723Y-101802501D01*
X198067907Y-101855398D01*
X197992101Y-101875045D01*
X197907643Y-101848741D01*
X197898405Y-101842623D01*
X197847384Y-101776742D01*
X197835634Y-101711058D01*
X197921844Y-101711058D01*
X197944759Y-101755498D01*
X197995353Y-101770580D01*
X198046400Y-101751258D01*
X198058731Y-101736428D01*
X198056633Y-101691734D01*
X198033360Y-101657817D01*
X197977717Y-101629232D01*
X197935650Y-101653466D01*
X197921844Y-101711058D01*
X197835634Y-101711058D01*
X197832204Y-101691882D01*
X197855067Y-101613896D01*
X197876808Y-101589191D01*
X197887061Y-101574314D01*
X197895665Y-101544949D01*
X197902760Y-101496302D01*
X197908484Y-101423580D01*
X197912976Y-101321991D01*
X197916374Y-101186741D01*
X197918816Y-101013037D01*
X197920442Y-100796086D01*
X197921390Y-100531095D01*
X197921799Y-100213270D01*
X197921844Y-100031228D01*
X197921844Y-98510642D01*
X198220229Y-98213376D01*
X198338079Y-98096434D01*
X198420477Y-98017260D01*
X198474424Y-97971156D01*
X198506921Y-97953423D01*
X198524969Y-97959363D01*
G37*
G36*
X193675456Y-98290145D02*
G01*
X193698869Y-98311473D01*
X193744561Y-98396901D01*
X193739794Y-98480843D01*
X193692761Y-98548935D01*
X193611654Y-98586815D01*
X193541154Y-98587979D01*
X193508334Y-98606597D01*
X193440281Y-98662038D01*
X193343751Y-98748201D01*
X193225503Y-98858987D01*
X193092294Y-98988296D01*
X193038258Y-99041919D01*
X192577636Y-99501822D01*
X192577636Y-101163641D01*
X192577636Y-102825460D01*
X192982679Y-103250647D01*
X193138978Y-103417354D01*
X193254533Y-103547281D01*
X193332405Y-103644717D01*
X193375658Y-103713952D01*
X193387351Y-103759276D01*
X193370548Y-103784979D01*
X193365756Y-103787409D01*
X193339153Y-103769825D01*
X193277272Y-103714999D01*
X193186448Y-103628979D01*
X193073013Y-103517816D01*
X192943300Y-103387561D01*
X192885378Y-103328501D01*
X192427518Y-102859557D01*
X192427518Y-101165700D01*
X192427518Y-99471842D01*
X192920239Y-98979800D01*
X193079513Y-98818355D01*
X193210590Y-98680578D01*
X193309759Y-98570615D01*
X193373309Y-98492610D01*
X193397530Y-98450707D01*
X193397316Y-98446990D01*
X193399073Y-98423170D01*
X193514010Y-98423170D01*
X193518452Y-98449703D01*
X193559020Y-98490456D01*
X193614188Y-98490369D01*
X193645256Y-98463852D01*
X193646130Y-98418462D01*
X193612384Y-98376725D01*
X193565536Y-98357201D01*
X193534620Y-98368424D01*
X193514010Y-98423170D01*
X193399073Y-98423170D01*
X193401191Y-98394443D01*
X193430701Y-98331395D01*
X193501089Y-98271815D01*
X193590198Y-98257506D01*
X193675456Y-98290145D01*
G37*
G36*
X198360049Y-103378691D02*
G01*
X198401313Y-103404799D01*
X198447968Y-103475057D01*
X198462269Y-103538227D01*
X198471581Y-103574254D01*
X198502448Y-103625374D01*
X198559269Y-103696698D01*
X198646443Y-103793333D01*
X198768369Y-103920389D01*
X198929446Y-104082976D01*
X198942648Y-104096165D01*
X199423026Y-104575840D01*
X199423026Y-105394336D01*
X199422661Y-105640283D01*
X199421332Y-105832516D01*
X199418693Y-105977365D01*
X199414395Y-106081161D01*
X199408088Y-106150235D01*
X199399426Y-106190915D01*
X199388059Y-106209534D01*
X199377990Y-106212832D01*
X199364210Y-106206115D01*
X199353500Y-106181662D01*
X199345490Y-106133020D01*
X199339812Y-106053735D01*
X199336095Y-105937352D01*
X199333969Y-105777420D01*
X199333065Y-105567483D01*
X199332955Y-105426830D01*
X199332955Y-104640828D01*
X198861304Y-104165837D01*
X198698384Y-104003257D01*
X198571130Y-103880089D01*
X198474289Y-103791805D01*
X198402607Y-103733871D01*
X198350829Y-103701757D01*
X198313701Y-103690932D01*
X198310520Y-103690846D01*
X198218931Y-103667255D01*
X198158617Y-103606555D01*
X198142344Y-103527689D01*
X198229962Y-103527689D01*
X198252421Y-103586146D01*
X198287556Y-103623446D01*
X198315568Y-103620320D01*
X198356078Y-103582583D01*
X198386982Y-103534622D01*
X198369559Y-103492512D01*
X198317958Y-103456148D01*
X198292521Y-103450657D01*
X198245696Y-103474080D01*
X198229962Y-103527689D01*
X198142344Y-103527689D01*
X198141553Y-103523855D01*
X198149586Y-103487812D01*
X198201613Y-103409939D01*
X198278012Y-103371506D01*
X198360049Y-103378691D01*
G37*
G36*
X192974987Y-100626681D02*
G01*
X193000622Y-100645849D01*
X193050796Y-100718653D01*
X193044674Y-100799812D01*
X192997967Y-100876817D01*
X192980253Y-100902278D01*
X192966406Y-100933103D01*
X192955951Y-100976486D01*
X192948416Y-101039622D01*
X192943325Y-101129704D01*
X192940205Y-101253927D01*
X192938583Y-101419485D01*
X192937984Y-101633572D01*
X192937919Y-101788568D01*
X192937919Y-102623982D01*
X193239413Y-102926505D01*
X193368169Y-103058766D01*
X193455711Y-103156464D01*
X193506016Y-103224579D01*
X193523058Y-103268093D01*
X193521425Y-103279795D01*
X193495558Y-103322847D01*
X193482127Y-103330562D01*
X193455135Y-103310384D01*
X193393848Y-103254764D01*
X193306072Y-103171081D01*
X193199612Y-103066709D01*
X193140067Y-103007318D01*
X192817825Y-102684074D01*
X192817825Y-101820169D01*
X192817691Y-101569673D01*
X192816956Y-101372067D01*
X192815118Y-101220190D01*
X192811675Y-101106885D01*
X192806127Y-101024993D01*
X192797971Y-100967355D01*
X192786707Y-100926814D01*
X192771834Y-100896209D01*
X192752848Y-100868384D01*
X192750986Y-100865859D01*
X192708963Y-100801791D01*
X192702206Y-100755383D01*
X192707407Y-100743525D01*
X192817825Y-100743525D01*
X192835903Y-100808893D01*
X192877558Y-100839529D01*
X192923922Y-100828665D01*
X192949816Y-100790855D01*
X192954142Y-100725326D01*
X192908492Y-100691763D01*
X192876100Y-100688482D01*
X192826762Y-100710780D01*
X192817825Y-100743525D01*
X192707407Y-100743525D01*
X192727169Y-100698474D01*
X192729415Y-100694438D01*
X192797079Y-100625836D01*
X192885885Y-100602005D01*
X192974987Y-100626681D01*
G37*
G36*
X194235398Y-98977908D02*
G01*
X194295052Y-99041363D01*
X194319003Y-99132155D01*
X194319007Y-99133447D01*
X194335730Y-99206725D01*
X194364042Y-99247347D01*
X194388553Y-99286640D01*
X194402903Y-99361440D01*
X194408740Y-99482171D01*
X194409078Y-99532572D01*
X194412521Y-99670321D01*
X194423949Y-99758782D01*
X194445006Y-99808377D01*
X194454113Y-99817797D01*
X194493804Y-99885064D01*
X194494480Y-99970167D01*
X194458351Y-100047282D01*
X194432421Y-100071295D01*
X194340240Y-100113812D01*
X194261885Y-100099487D01*
X194218577Y-100063127D01*
X194177479Y-99984031D01*
X194175460Y-99938601D01*
X194258960Y-99938601D01*
X194279700Y-99994443D01*
X194328906Y-100007174D01*
X194376475Y-99980834D01*
X194403098Y-99938000D01*
X194381786Y-99896147D01*
X194328902Y-99866119D01*
X194279976Y-99883473D01*
X194258960Y-99938601D01*
X194175460Y-99938601D01*
X194173554Y-99895711D01*
X194207174Y-99824182D01*
X194215064Y-99816851D01*
X194238991Y-99782383D01*
X194251631Y-99720651D01*
X194254652Y-99619158D01*
X194252593Y-99535456D01*
X194243948Y-99292383D01*
X194157557Y-99290934D01*
X194063228Y-99262131D01*
X194014945Y-99220055D01*
X193967643Y-99145604D01*
X193967618Y-99129025D01*
X194078818Y-99129025D01*
X194101733Y-99173464D01*
X194152327Y-99188547D01*
X194203374Y-99169225D01*
X194215705Y-99154395D01*
X194214155Y-99110417D01*
X194178954Y-99066734D01*
X194132343Y-99045591D01*
X194111723Y-99050413D01*
X194084030Y-99094425D01*
X194078818Y-99129025D01*
X193967618Y-99129025D01*
X193967545Y-99081518D01*
X194005461Y-99013839D01*
X194074277Y-98957919D01*
X194156364Y-98948018D01*
X194235398Y-98977908D01*
G37*
G36*
X193523125Y-99092621D02*
G01*
X193590021Y-99153964D01*
X193626653Y-99228879D01*
X193628463Y-99247347D01*
X193602631Y-99323374D01*
X193539669Y-99389865D01*
X193461379Y-99425763D01*
X193441952Y-99427489D01*
X193383401Y-99448317D01*
X193303934Y-99502955D01*
X193246798Y-99553835D01*
X193173654Y-99630424D01*
X193135077Y-99691259D01*
X193120201Y-99759847D01*
X193118061Y-99832359D01*
X193119925Y-99903936D01*
X193130808Y-99959065D01*
X193158646Y-100011368D01*
X193211376Y-100074467D01*
X193296934Y-100161986D01*
X193328227Y-100193092D01*
X193538392Y-100401647D01*
X193538392Y-101481660D01*
X193538392Y-102561674D01*
X193614318Y-102640923D01*
X193665272Y-102708536D01*
X193671576Y-102767122D01*
X193665991Y-102785736D01*
X193649788Y-102820108D01*
X193628276Y-102825068D01*
X193589393Y-102795863D01*
X193522512Y-102729210D01*
X193403286Y-102607122D01*
X193392741Y-101516381D01*
X193382197Y-100425640D01*
X193175070Y-100220100D01*
X192967943Y-100014561D01*
X192967943Y-99817473D01*
X192969534Y-99713050D01*
X192980530Y-99643327D01*
X193010271Y-99586847D01*
X193068094Y-99522152D01*
X193118061Y-99472525D01*
X193207629Y-99373516D01*
X193258747Y-99292859D01*
X193268180Y-99255982D01*
X193273173Y-99239841D01*
X193393692Y-99239841D01*
X193399246Y-99292536D01*
X193445634Y-99307379D01*
X193448321Y-99307395D01*
X193496471Y-99293681D01*
X193503338Y-99242670D01*
X193502951Y-99239841D01*
X193478412Y-99187025D01*
X193448321Y-99172288D01*
X193409481Y-99197845D01*
X193393692Y-99239841D01*
X193273173Y-99239841D01*
X193292955Y-99175898D01*
X193353555Y-99106378D01*
X193429385Y-99068999D01*
X193448321Y-99067206D01*
X193523125Y-99092621D01*
G37*
G36*
X198704263Y-98488232D02*
G01*
X198672293Y-98575302D01*
X198585704Y-98686949D01*
X198537328Y-98736945D01*
X198372198Y-98900024D01*
X198372198Y-100562626D01*
X198372258Y-100920804D01*
X198372549Y-101223810D01*
X198373239Y-101476523D01*
X198374497Y-101683817D01*
X198376492Y-101850569D01*
X198379391Y-101981656D01*
X198383363Y-102081953D01*
X198388577Y-102156338D01*
X198395201Y-102209687D01*
X198403403Y-102246876D01*
X198413352Y-102272782D01*
X198425216Y-102292280D01*
X198432246Y-102301566D01*
X198479768Y-102371431D01*
X198484383Y-102422847D01*
X198444503Y-102479605D01*
X198418599Y-102506277D01*
X198338324Y-102566900D01*
X198267251Y-102571835D01*
X198193916Y-102521772D01*
X198192057Y-102519924D01*
X198147074Y-102454565D01*
X198132009Y-102399830D01*
X198134152Y-102392956D01*
X198229418Y-102392956D01*
X198244354Y-102435143D01*
X198251683Y-102444358D01*
X198305467Y-102479991D01*
X198349969Y-102459979D01*
X198367508Y-102416670D01*
X198361980Y-102350184D01*
X198324595Y-102320572D01*
X198271476Y-102338469D01*
X198261974Y-102347068D01*
X198229418Y-102392956D01*
X198134152Y-102392956D01*
X198152386Y-102334470D01*
X198192057Y-102279735D01*
X198204838Y-102265446D01*
X198215664Y-102247028D01*
X198224698Y-102219717D01*
X198232101Y-102178747D01*
X198238036Y-102119353D01*
X198242664Y-102036770D01*
X198246148Y-101926234D01*
X198248650Y-101782979D01*
X198250331Y-101602241D01*
X198251356Y-101379255D01*
X198251884Y-101109255D01*
X198252079Y-100787477D01*
X198252104Y-100515041D01*
X198252104Y-98810394D01*
X198456395Y-98607669D01*
X198545839Y-98522937D01*
X198620016Y-98460161D01*
X198668769Y-98427539D01*
X198681572Y-98425830D01*
X198704263Y-98488232D01*
G37*
G36*
X198854306Y-98973554D02*
G01*
X198867402Y-99006569D01*
X198864989Y-99083430D01*
X198829220Y-99137313D01*
X198817396Y-99152113D01*
X198807203Y-99171526D01*
X198798472Y-99199992D01*
X198791037Y-99241950D01*
X198784728Y-99301843D01*
X198779379Y-99384109D01*
X198774822Y-99493190D01*
X198770889Y-99633525D01*
X198767412Y-99809555D01*
X198764224Y-100025719D01*
X198761156Y-100286460D01*
X198758042Y-100596216D01*
X198754713Y-100959428D01*
X198752974Y-101155745D01*
X198735778Y-103109179D01*
X199402401Y-103775308D01*
X199574659Y-103945754D01*
X199732369Y-104098548D01*
X199870416Y-104228966D01*
X199983688Y-104332283D01*
X200067072Y-104403774D01*
X200115454Y-104438716D01*
X200123294Y-104441437D01*
X200222382Y-104463626D01*
X200279746Y-104528373D01*
X200293711Y-104606567D01*
X200269827Y-104697761D01*
X200209432Y-104755848D01*
X200129413Y-104774195D01*
X200046655Y-104746169D01*
X200013140Y-104716792D01*
X199973333Y-104643388D01*
X199966894Y-104607909D01*
X200057836Y-104607909D01*
X200082252Y-104657753D01*
X200138646Y-104681541D01*
X200142651Y-104681626D01*
X200193336Y-104661009D01*
X200203640Y-104620637D01*
X200182090Y-104562758D01*
X200133117Y-104536151D01*
X200080238Y-104552959D01*
X200077541Y-104555527D01*
X200057836Y-104607909D01*
X199966894Y-104607909D01*
X199963451Y-104588941D01*
X199952443Y-104556244D01*
X199917222Y-104503705D01*
X199854499Y-104427679D01*
X199760982Y-104324523D01*
X199633379Y-104190593D01*
X199468400Y-104022243D01*
X199287919Y-103840964D01*
X198612388Y-103165933D01*
X198612388Y-101167698D01*
X198612388Y-99169463D01*
X198729461Y-99055144D01*
X198796945Y-98991157D01*
X198834444Y-98965410D01*
X198854306Y-98973554D01*
G37*
G36*
X191914883Y-104005196D02*
G01*
X191958691Y-104031090D01*
X192024057Y-104101988D01*
X192037210Y-104165073D01*
X192047853Y-104213354D01*
X192083895Y-104274160D01*
X192151505Y-104355624D01*
X192256852Y-104465878D01*
X192292411Y-104501484D01*
X192547612Y-104755360D01*
X192547612Y-104991476D01*
X192550797Y-105122442D01*
X192562495Y-105210315D01*
X192585918Y-105271813D01*
X192607659Y-105303930D01*
X192650239Y-105374036D01*
X192667707Y-105434122D01*
X192641087Y-105509537D01*
X192574784Y-105564815D01*
X192502577Y-105582336D01*
X192425792Y-105562804D01*
X192384627Y-105535156D01*
X192341577Y-105457514D01*
X192348984Y-105414186D01*
X192431705Y-105414186D01*
X192439226Y-105479472D01*
X192475046Y-105517335D01*
X192520787Y-105511600D01*
X192555622Y-105470242D01*
X192562624Y-105432217D01*
X192543219Y-105367209D01*
X192509992Y-105347845D01*
X192458192Y-105361912D01*
X192431705Y-105414186D01*
X192348984Y-105414186D01*
X192356856Y-105368139D01*
X192397494Y-105303930D01*
X192434363Y-105238527D01*
X192452934Y-105150206D01*
X192457541Y-105035808D01*
X192457541Y-104844024D01*
X192195612Y-104582684D01*
X192073920Y-104464620D01*
X191983658Y-104385891D01*
X191916900Y-104340476D01*
X191865719Y-104322358D01*
X191851397Y-104321343D01*
X191771577Y-104297976D01*
X191723895Y-104239310D01*
X191712371Y-104169276D01*
X191799655Y-104169276D01*
X191814443Y-104220136D01*
X191828874Y-104232402D01*
X191890889Y-104244755D01*
X191934005Y-104210757D01*
X191941221Y-104159897D01*
X191910273Y-104106203D01*
X191872491Y-104096165D01*
X191821888Y-104118946D01*
X191799655Y-104169276D01*
X191712371Y-104169276D01*
X191711254Y-104162491D01*
X191736555Y-104084669D01*
X191801067Y-104023896D01*
X191863780Y-103996545D01*
X191914883Y-104005196D01*
G37*
G36*
X194031550Y-97200759D02*
G01*
X194100021Y-97261681D01*
X194137078Y-97337173D01*
X194138865Y-97355858D01*
X194112248Y-97434352D01*
X194045680Y-97499702D01*
X193959088Y-97534245D01*
X193935669Y-97536000D01*
X193877406Y-97557831D01*
X193791534Y-97616791D01*
X193687870Y-97703078D01*
X193576232Y-97806889D01*
X193466435Y-97918424D01*
X193368298Y-98027881D01*
X193291638Y-98125458D01*
X193246271Y-98201353D01*
X193238156Y-98232418D01*
X193213650Y-98326487D01*
X193149796Y-98386573D01*
X193061091Y-98405271D01*
X192962031Y-98375178D01*
X192960437Y-98374257D01*
X192915940Y-98317817D01*
X192906412Y-98241615D01*
X193002718Y-98241615D01*
X193023012Y-98290883D01*
X193070208Y-98312078D01*
X193080096Y-98310983D01*
X193130203Y-98276361D01*
X193142453Y-98248626D01*
X193128718Y-98198083D01*
X193082404Y-98172270D01*
X193029753Y-98183845D01*
X193021986Y-98190515D01*
X193002718Y-98241615D01*
X192906412Y-98241615D01*
X192905744Y-98236275D01*
X192928141Y-98152580D01*
X192981423Y-98089681D01*
X192981635Y-98089541D01*
X193045317Y-98061344D01*
X193089951Y-98062596D01*
X193124036Y-98050296D01*
X193193342Y-97998249D01*
X193292512Y-97910968D01*
X193416188Y-97792968D01*
X193451555Y-97757954D01*
X193586130Y-97621155D01*
X193680946Y-97517891D01*
X193741132Y-97441817D01*
X193771820Y-97386586D01*
X193775923Y-97366520D01*
X193878436Y-97366520D01*
X193909907Y-97405766D01*
X193960495Y-97415905D01*
X194009767Y-97393543D01*
X194018771Y-97359070D01*
X193997502Y-97302126D01*
X193949369Y-97283255D01*
X193898286Y-97311292D01*
X193878436Y-97366520D01*
X193775923Y-97366520D01*
X193778581Y-97353517D01*
X193804962Y-97263988D01*
X193871912Y-97198593D01*
X193953581Y-97175716D01*
X194031550Y-97200759D01*
G37*
G36*
X195128438Y-97430406D02*
G01*
X195169450Y-97454753D01*
X195215889Y-97489860D01*
X195231684Y-97526904D01*
X195221796Y-97588122D01*
X195209245Y-97633109D01*
X195176842Y-97718765D01*
X195136497Y-97760110D01*
X195098427Y-97770816D01*
X195049158Y-97796974D01*
X194960340Y-97867524D01*
X194832419Y-97982068D01*
X194665838Y-98140206D01*
X194461619Y-98340969D01*
X193898676Y-98901483D01*
X193898676Y-100459525D01*
X193898347Y-100831207D01*
X193897205Y-101147564D01*
X193895018Y-101413319D01*
X193891551Y-101633190D01*
X193886573Y-101811899D01*
X193879851Y-101954167D01*
X193871151Y-102064713D01*
X193860240Y-102148258D01*
X193846887Y-102209524D01*
X193830857Y-102253229D01*
X193811918Y-102284096D01*
X193808446Y-102288343D01*
X193803684Y-102264547D01*
X193798378Y-102186806D01*
X193792729Y-102061215D01*
X193786937Y-101893873D01*
X193781203Y-101690877D01*
X193775726Y-101458323D01*
X193770707Y-101202309D01*
X193768512Y-101072386D01*
X193764047Y-100781334D01*
X193759930Y-100488736D01*
X193756276Y-100204641D01*
X193753202Y-99939098D01*
X193750822Y-99702157D01*
X193749252Y-99503866D01*
X193748607Y-99354276D01*
X193748597Y-99339129D01*
X193748558Y-98845450D01*
X194331894Y-98258278D01*
X194514178Y-98073582D01*
X194657130Y-97925684D01*
X194764844Y-97809915D01*
X194841415Y-97721604D01*
X194890938Y-97656081D01*
X194917508Y-97608675D01*
X194918900Y-97603621D01*
X195017723Y-97603621D01*
X195039348Y-97640810D01*
X195092888Y-97676125D01*
X195137440Y-97656973D01*
X195154382Y-97615986D01*
X195140481Y-97566902D01*
X195094060Y-97542112D01*
X195041359Y-97553538D01*
X195032824Y-97560764D01*
X195017723Y-97603621D01*
X194918900Y-97603621D01*
X194924861Y-97581982D01*
X194961973Y-97490740D01*
X195013597Y-97448662D01*
X195076945Y-97421188D01*
X195128438Y-97430406D01*
G37*
G36*
X197377107Y-98786559D02*
G01*
X197442804Y-98838801D01*
X197470903Y-98914160D01*
X197454204Y-98997217D01*
X197411442Y-99052194D01*
X197384051Y-99083745D01*
X197366423Y-99127183D01*
X197356489Y-99195173D01*
X197352181Y-99300379D01*
X197351395Y-99419901D01*
X197352980Y-99566978D01*
X197359132Y-99667647D01*
X197371944Y-99735496D01*
X197393510Y-99784114D01*
X197411442Y-99809604D01*
X197454087Y-99880489D01*
X197471489Y-99941940D01*
X197446448Y-100020040D01*
X197384312Y-100080563D01*
X197304565Y-100111956D01*
X197226692Y-100102665D01*
X197213277Y-100095055D01*
X197174878Y-100053122D01*
X197142740Y-100001843D01*
X197123791Y-99948981D01*
X197230288Y-99948981D01*
X197249694Y-99995154D01*
X197268830Y-100006848D01*
X197318373Y-100001546D01*
X197360267Y-99965779D01*
X197372414Y-99920920D01*
X197368187Y-99910749D01*
X197324175Y-99883056D01*
X197289575Y-99877844D01*
X197245109Y-99900378D01*
X197230288Y-99948981D01*
X197123791Y-99948981D01*
X197122397Y-99945092D01*
X197136513Y-99892875D01*
X197168269Y-99845435D01*
X197197177Y-99798827D01*
X197215749Y-99743872D01*
X197226163Y-99666659D01*
X197230594Y-99553281D01*
X197231300Y-99442501D01*
X197229936Y-99295895D01*
X197224300Y-99195152D01*
X197212073Y-99126117D01*
X197190936Y-99074637D01*
X197164461Y-99034416D01*
X197122438Y-98970346D01*
X197117719Y-98937923D01*
X197236504Y-98937923D01*
X197242709Y-98963561D01*
X197280323Y-99001220D01*
X197330042Y-99001173D01*
X197359482Y-98969629D01*
X197361488Y-98905124D01*
X197328361Y-98862559D01*
X197304919Y-98857040D01*
X197252403Y-98880941D01*
X197236504Y-98937923D01*
X197117719Y-98937923D01*
X197115682Y-98923932D01*
X197140645Y-98867013D01*
X197142880Y-98862996D01*
X197209866Y-98793188D01*
X197281012Y-98772854D01*
X197377107Y-98786559D01*
G37*
G36*
X194215368Y-96691305D02*
G01*
X194281676Y-96754923D01*
X194317298Y-96834639D01*
X194319007Y-96854578D01*
X194340859Y-96919163D01*
X194397475Y-96997772D01*
X194424090Y-97025598D01*
X194529172Y-97127448D01*
X194529172Y-97415544D01*
X194529172Y-97703639D01*
X194394066Y-97836236D01*
X194311964Y-97928620D01*
X194265859Y-98006367D01*
X194258960Y-98037641D01*
X194234194Y-98117800D01*
X194173607Y-98187359D01*
X194097765Y-98224749D01*
X194078818Y-98226544D01*
X194013458Y-98206167D01*
X193958723Y-98166496D01*
X193913741Y-98101137D01*
X193898676Y-98046402D01*
X194018771Y-98046402D01*
X194040000Y-98096580D01*
X194078818Y-98106449D01*
X194128997Y-98085219D01*
X194138865Y-98046402D01*
X194117635Y-97996223D01*
X194078818Y-97986354D01*
X194028639Y-98007584D01*
X194018771Y-98046402D01*
X193898676Y-98046402D01*
X193924655Y-97969933D01*
X193988226Y-97903611D01*
X194067837Y-97867970D01*
X194087736Y-97866260D01*
X194152202Y-97844025D01*
X194233257Y-97785276D01*
X194267878Y-97752405D01*
X194325072Y-97690724D01*
X194358271Y-97638711D01*
X194373991Y-97576665D01*
X194378749Y-97484884D01*
X194379054Y-97416282D01*
X194376839Y-97297487D01*
X194366955Y-97220227D01*
X194344549Y-97166058D01*
X194304763Y-97116534D01*
X194298378Y-97109806D01*
X194228048Y-97054406D01*
X194158753Y-97026423D01*
X194148260Y-97025598D01*
X194067720Y-97000881D01*
X193997973Y-96940356D01*
X193960520Y-96864458D01*
X193958723Y-96845456D01*
X194078818Y-96845456D01*
X194102486Y-96891425D01*
X194154639Y-96908509D01*
X194206852Y-96887556D01*
X194215893Y-96845753D01*
X194186196Y-96803847D01*
X194135653Y-96785409D01*
X194087819Y-96808150D01*
X194078818Y-96845456D01*
X193958723Y-96845456D01*
X193979100Y-96780097D01*
X194018771Y-96725362D01*
X194084130Y-96680379D01*
X194138865Y-96665314D01*
X194215368Y-96691305D01*
G37*
G36*
X194656635Y-94606593D02*
G01*
X194722624Y-94660411D01*
X194758173Y-94728135D01*
X194769362Y-94775272D01*
X194744493Y-94837951D01*
X194684872Y-94899810D01*
X194612972Y-94941846D01*
X194564041Y-94948859D01*
X194498233Y-94965023D01*
X194413470Y-95026010D01*
X194395893Y-95042421D01*
X194288983Y-95145888D01*
X194288983Y-95478429D01*
X194289615Y-95624348D01*
X194293453Y-95724259D01*
X194303411Y-95792203D01*
X194322404Y-95842221D01*
X194353345Y-95888350D01*
X194381240Y-95922894D01*
X194458336Y-96000226D01*
X194530361Y-96032295D01*
X194561382Y-96034818D01*
X194652637Y-96058009D01*
X194727703Y-96116429D01*
X194767270Y-96193353D01*
X194769362Y-96214960D01*
X194743304Y-96291666D01*
X194679399Y-96357891D01*
X194599049Y-96393397D01*
X194578861Y-96395101D01*
X194503370Y-96373466D01*
X194458767Y-96340196D01*
X194418930Y-96266296D01*
X194416076Y-96250378D01*
X194518399Y-96250378D01*
X194568762Y-96273700D01*
X194594224Y-96275007D01*
X194640633Y-96251533D01*
X194649267Y-96214960D01*
X194627276Y-96168631D01*
X194579357Y-96154251D01*
X194532595Y-96175565D01*
X194519441Y-96197013D01*
X194518399Y-96250378D01*
X194416076Y-96250378D01*
X194409078Y-96211341D01*
X194382995Y-96136127D01*
X194307087Y-96038689D01*
X194273971Y-96004794D01*
X194138865Y-95872197D01*
X194138865Y-95494392D01*
X194138865Y-95116587D01*
X194273971Y-94983990D01*
X194365531Y-94880212D01*
X194406236Y-94797218D01*
X194409078Y-94772227D01*
X194410261Y-94767909D01*
X194515353Y-94767909D01*
X194519157Y-94791032D01*
X194557743Y-94829420D01*
X194608254Y-94824028D01*
X194639184Y-94786819D01*
X194637911Y-94728361D01*
X194624502Y-94707027D01*
X194579861Y-94694443D01*
X194536153Y-94720577D01*
X194515353Y-94767909D01*
X194410261Y-94767909D01*
X194433132Y-94684398D01*
X194493852Y-94623435D01*
X194574075Y-94595460D01*
X194656635Y-94606593D01*
G37*
G36*
X195538521Y-94797260D02*
G01*
X195602544Y-94856368D01*
X195637360Y-94934352D01*
X195635038Y-95014416D01*
X195595012Y-95074061D01*
X195576633Y-95100594D01*
X195563798Y-95150595D01*
X195555650Y-95233042D01*
X195551330Y-95356912D01*
X195549981Y-95531179D01*
X195549976Y-95545703D01*
X195549976Y-95979968D01*
X195375241Y-96165017D01*
X195287674Y-96265655D01*
X195225430Y-96353074D01*
X195197446Y-96414506D01*
X195196784Y-96420018D01*
X195178991Y-96494590D01*
X195157678Y-96532607D01*
X195096163Y-96566229D01*
X195008361Y-96571754D01*
X194921638Y-96548044D01*
X194911974Y-96542815D01*
X194873844Y-96490607D01*
X194859725Y-96410173D01*
X194954255Y-96410173D01*
X194974548Y-96459441D01*
X195021745Y-96480636D01*
X195031633Y-96479541D01*
X195081740Y-96444919D01*
X195093990Y-96417184D01*
X195080255Y-96366641D01*
X195033941Y-96340828D01*
X194981289Y-96352403D01*
X194973522Y-96359073D01*
X194954255Y-96410173D01*
X194859725Y-96410173D01*
X194859713Y-96410106D01*
X194870594Y-96328493D01*
X194902069Y-96276998D01*
X194965855Y-96246935D01*
X195014658Y-96238375D01*
X195073378Y-96215655D01*
X195156776Y-96158155D01*
X195242234Y-96083462D01*
X195399858Y-95931786D01*
X195399858Y-95532947D01*
X195399039Y-95368593D01*
X195395623Y-95253262D01*
X195388167Y-95175944D01*
X195375232Y-95125626D01*
X195355376Y-95091296D01*
X195339811Y-95074061D01*
X195294828Y-95008702D01*
X195279763Y-94953967D01*
X195399858Y-94953967D01*
X195413572Y-95002116D01*
X195464582Y-95008983D01*
X195467411Y-95008596D01*
X195520227Y-94984057D01*
X195534964Y-94953967D01*
X195509407Y-94915126D01*
X195467411Y-94899337D01*
X195414717Y-94904891D01*
X195399874Y-94951280D01*
X195399858Y-94953967D01*
X195279763Y-94953967D01*
X195303942Y-94881817D01*
X195361982Y-94815154D01*
X195432139Y-94776560D01*
X195453225Y-94773825D01*
X195538521Y-94797260D01*
G37*
G36*
X198493027Y-104007352D02*
G01*
X198560792Y-104057752D01*
X198583242Y-104098474D01*
X198599072Y-104167791D01*
X198596119Y-104208707D01*
X198610745Y-104243088D01*
X198661179Y-104309688D01*
X198739757Y-104399304D01*
X198838814Y-104502734D01*
X198852163Y-104516084D01*
X199122789Y-104785457D01*
X199122789Y-105033778D01*
X199125600Y-105147382D01*
X199133085Y-105233674D01*
X199143827Y-105278683D01*
X199147994Y-105282099D01*
X199186881Y-105307940D01*
X199211452Y-105369915D01*
X199215795Y-105444703D01*
X199202071Y-105495480D01*
X199149841Y-105548855D01*
X199073376Y-105576894D01*
X198997280Y-105574587D01*
X198952257Y-105546339D01*
X198906119Y-105457370D01*
X198914713Y-105390987D01*
X198990377Y-105390987D01*
X198991721Y-105448581D01*
X199023034Y-105502104D01*
X199062742Y-105522288D01*
X199099091Y-105501997D01*
X199119631Y-105481058D01*
X199140005Y-105421011D01*
X199117812Y-105366317D01*
X199063363Y-105342149D01*
X199062742Y-105342146D01*
X199007430Y-105366130D01*
X198990377Y-105390987D01*
X198914713Y-105390987D01*
X198916746Y-105375279D01*
X198944325Y-105331821D01*
X198977192Y-105275002D01*
X198995397Y-105198229D01*
X199002314Y-105084430D01*
X199002695Y-105036512D01*
X199002695Y-104815407D01*
X198754373Y-104568375D01*
X198634472Y-104452920D01*
X198545564Y-104377242D01*
X198479718Y-104335395D01*
X198429002Y-104321435D01*
X198424805Y-104321343D01*
X198339418Y-104295651D01*
X198283790Y-104230390D01*
X198273139Y-104164570D01*
X198349659Y-104164570D01*
X198364730Y-104206959D01*
X198370948Y-104214753D01*
X198412815Y-104253217D01*
X198432246Y-104261295D01*
X198467926Y-104240879D01*
X198493544Y-104214753D01*
X198515534Y-104170540D01*
X198490322Y-104126596D01*
X198482208Y-104118248D01*
X198439999Y-104084588D01*
X198405291Y-104096551D01*
X198382283Y-104118248D01*
X198349659Y-104164570D01*
X198273139Y-104164570D01*
X198269694Y-104143281D01*
X198279610Y-104102787D01*
X198333266Y-104030141D01*
X198410795Y-103998239D01*
X198493027Y-104007352D01*
G37*
G36*
X196071795Y-90429875D02*
G01*
X196113158Y-90470938D01*
X196147405Y-90545609D01*
X196167898Y-90630273D01*
X196167998Y-90701317D01*
X196155490Y-90727602D01*
X196143661Y-90761105D01*
X196134439Y-90837664D01*
X196127669Y-90960905D01*
X196123196Y-91134455D01*
X196120866Y-91361939D01*
X196120425Y-91548612D01*
X196120887Y-91792050D01*
X196122518Y-91982157D01*
X196125684Y-92125646D01*
X196130753Y-92229227D01*
X196138091Y-92299614D01*
X196148067Y-92343516D01*
X196161047Y-92367647D01*
X196165461Y-92371934D01*
X196203285Y-92437633D01*
X196205517Y-92523679D01*
X196173230Y-92602862D01*
X196155591Y-92622481D01*
X196067340Y-92667376D01*
X195974003Y-92656170D01*
X195910260Y-92612123D01*
X195865277Y-92546763D01*
X195850213Y-92492028D01*
X195970307Y-92492028D01*
X195991537Y-92542207D01*
X196030354Y-92552075D01*
X196080533Y-92530846D01*
X196090402Y-92492028D01*
X196069172Y-92441849D01*
X196030354Y-92431981D01*
X195980176Y-92453211D01*
X195970307Y-92492028D01*
X195850213Y-92492028D01*
X195870590Y-92426669D01*
X195910260Y-92371934D01*
X195928810Y-92350429D01*
X195943095Y-92322652D01*
X195953670Y-92281105D01*
X195961090Y-92218293D01*
X195965908Y-92126718D01*
X195968680Y-91998885D01*
X195969960Y-91827298D01*
X195970302Y-91604459D01*
X195970307Y-91560080D01*
X195970089Y-91327633D01*
X195969041Y-91147470D01*
X195966572Y-91011829D01*
X195962088Y-90912949D01*
X195954999Y-90843065D01*
X195944712Y-90794416D01*
X195930636Y-90759241D01*
X195912180Y-90729775D01*
X195906399Y-90721832D01*
X195860737Y-90632110D01*
X195861348Y-90600539D01*
X195970307Y-90600539D01*
X195991537Y-90650718D01*
X196030354Y-90660586D01*
X196080533Y-90639356D01*
X196090402Y-90600539D01*
X196069172Y-90550360D01*
X196030354Y-90540492D01*
X195980176Y-90561721D01*
X195970307Y-90600539D01*
X195861348Y-90600539D01*
X195862192Y-90556897D01*
X195904330Y-90485414D01*
X195975851Y-90436676D01*
X196053219Y-90424948D01*
X196071795Y-90429875D01*
G37*
G36*
X197098567Y-93526780D02*
G01*
X197113208Y-93545230D01*
X197118045Y-93596544D01*
X197095634Y-93621225D01*
X197055403Y-93675732D01*
X197062525Y-93728254D01*
X197114025Y-93758215D01*
X197115462Y-93758439D01*
X197138855Y-93763924D01*
X197155632Y-93778028D01*
X197166759Y-93809314D01*
X197173201Y-93866348D01*
X197175923Y-93957695D01*
X197175891Y-94091920D01*
X197174069Y-94277587D01*
X197174060Y-94278435D01*
X197168353Y-94788837D01*
X196884578Y-95074598D01*
X196600804Y-95360360D01*
X196600804Y-95749728D01*
X196600804Y-96139096D01*
X196205896Y-96534817D01*
X195810989Y-96930539D01*
X195850389Y-97075646D01*
X195875117Y-97161681D01*
X195894542Y-97220376D01*
X195900846Y-97234082D01*
X195925407Y-97220369D01*
X195982047Y-97172500D01*
X196060790Y-97099183D01*
X196106235Y-97054808D01*
X196209101Y-96947094D01*
X196270839Y-96866796D01*
X196297942Y-96804753D01*
X196300184Y-96784018D01*
X196405264Y-96784018D01*
X196410931Y-96803356D01*
X196448697Y-96841424D01*
X196499442Y-96842164D01*
X196536081Y-96809321D01*
X196540756Y-96785409D01*
X196519239Y-96734781D01*
X196485713Y-96725362D01*
X196419623Y-96739838D01*
X196405264Y-96784018D01*
X196300184Y-96784018D01*
X196300567Y-96780473D01*
X196327301Y-96697734D01*
X196394348Y-96633196D01*
X196481971Y-96605365D01*
X196487389Y-96605267D01*
X196556864Y-96630377D01*
X196621055Y-96690652D01*
X196658218Y-96763511D01*
X196660851Y-96785409D01*
X196634909Y-96861765D01*
X196571494Y-96928131D01*
X196492224Y-96963837D01*
X196472452Y-96965551D01*
X196424591Y-96986119D01*
X196349402Y-97040417D01*
X196258595Y-97117333D01*
X196163883Y-97205754D01*
X196076976Y-97294571D01*
X196009587Y-97372670D01*
X195973427Y-97428940D01*
X195970307Y-97441974D01*
X195978370Y-97486957D01*
X195999126Y-97569182D01*
X196027431Y-97670957D01*
X196058139Y-97774587D01*
X196086103Y-97862381D01*
X196106178Y-97916645D01*
X196110763Y-97924905D01*
X196134245Y-97908264D01*
X196194311Y-97854392D01*
X196285276Y-97768709D01*
X196401459Y-97656637D01*
X196537176Y-97523596D01*
X196676962Y-97384783D01*
X196856072Y-97205079D01*
X196995821Y-97061543D01*
X197099729Y-96948311D01*
X197171317Y-96859516D01*
X197214105Y-96789293D01*
X197231612Y-96731777D01*
X197227360Y-96681102D01*
X197204869Y-96631402D01*
X197167658Y-96576812D01*
X197164461Y-96572478D01*
X197122438Y-96508407D01*
X197117719Y-96475985D01*
X197236504Y-96475985D01*
X197242709Y-96501622D01*
X197280323Y-96539281D01*
X197330042Y-96539235D01*
X197359482Y-96507690D01*
X197361488Y-96443186D01*
X197328361Y-96400621D01*
X197304919Y-96395101D01*
X197252403Y-96419003D01*
X197236504Y-96475985D01*
X197117719Y-96475985D01*
X197115682Y-96461993D01*
X197140645Y-96405074D01*
X197142880Y-96401058D01*
X197207661Y-96333096D01*
X197289603Y-96307933D01*
X197371909Y-96321913D01*
X197437782Y-96371379D01*
X197470426Y-96452673D01*
X197471489Y-96472599D01*
X197449376Y-96548176D01*
X197411442Y-96597221D01*
X197364146Y-96670343D01*
X197351395Y-96769295D01*
X197349897Y-96806057D01*
X197342321Y-96841270D01*
X197324044Y-96880494D01*
X197290443Y-96929285D01*
X197236895Y-96993202D01*
X197158778Y-97077803D01*
X197051468Y-97188645D01*
X196910342Y-97331286D01*
X196751344Y-97490696D01*
X196151293Y-98091437D01*
X196186464Y-98205760D01*
X196221636Y-98320083D01*
X197041716Y-97500409D01*
X197861797Y-96680736D01*
X197861797Y-96356561D01*
X197860381Y-96207469D01*
X197854726Y-96104682D01*
X197842718Y-96034497D01*
X197822245Y-95983207D01*
X197798638Y-95946960D01*
X197763845Y-95875829D01*
X197754021Y-95803636D01*
X197769127Y-95750297D01*
X197799040Y-95734581D01*
X197817231Y-95761345D01*
X197847255Y-95833343D01*
X197884233Y-95938134D01*
X197907953Y-96012300D01*
X197953640Y-96174982D01*
X197978924Y-96309531D01*
X197987891Y-96442644D01*
X197987212Y-96530208D01*
X197980827Y-96770397D01*
X197125219Y-97626728D01*
X196269611Y-98483059D01*
X196345136Y-98735388D01*
X196378987Y-98850211D01*
X196404991Y-98941711D01*
X196419180Y-98995777D01*
X196420662Y-99003918D01*
X196440106Y-98992319D01*
X196491691Y-98947064D01*
X196565298Y-98877154D01*
X196585792Y-98857040D01*
X196684019Y-98751187D01*
X196737204Y-98670453D01*
X196750018Y-98618675D01*
X196849905Y-98618675D01*
X196854224Y-98643993D01*
X196901173Y-98675023D01*
X196955185Y-98662496D01*
X196981416Y-98628833D01*
X196979204Y-98576246D01*
X196940870Y-98548680D01*
X196889021Y-98558624D01*
X196874970Y-98570020D01*
X196849905Y-98618675D01*
X196750018Y-98618675D01*
X196750922Y-98615024D01*
X196774450Y-98525424D01*
X196833825Y-98464817D01*
X196912236Y-98440598D01*
X196992871Y-98460162D01*
X197031493Y-98491615D01*
X197076703Y-98578531D01*
X197072085Y-98669630D01*
X197019543Y-98744995D01*
X197006355Y-98754566D01*
X196939600Y-98785047D01*
X196890285Y-98787769D01*
X196848913Y-98800021D01*
X196780054Y-98849404D01*
X196695384Y-98927533D01*
X196694899Y-98928024D01*
X196614235Y-99012924D01*
X196567916Y-99075569D01*
X196546422Y-99134711D01*
X196540235Y-99209104D01*
X196539959Y-99233280D01*
X196549270Y-99327049D01*
X196576556Y-99468219D01*
X196619771Y-99647580D01*
X196676872Y-99855920D01*
X196682571Y-99875600D01*
X196825981Y-100368746D01*
X196834415Y-99984072D01*
X196836811Y-99818771D01*
X196834872Y-99702806D01*
X196827634Y-99625564D01*
X196814131Y-99576427D01*
X196794635Y-99546122D01*
X196756518Y-99464639D01*
X196758782Y-99442561D01*
X196845744Y-99442561D01*
X196866038Y-99491829D01*
X196913234Y-99513024D01*
X196923122Y-99511928D01*
X196973229Y-99477306D01*
X196985479Y-99449571D01*
X196971744Y-99399029D01*
X196925430Y-99373216D01*
X196872779Y-99384791D01*
X196865012Y-99391461D01*
X196845744Y-99442561D01*
X196758782Y-99442561D01*
X196765733Y-99374758D01*
X196818041Y-99298843D01*
X196845039Y-99280104D01*
X196907779Y-99252801D01*
X196958939Y-99261506D01*
X197002663Y-99287355D01*
X197063465Y-99357884D01*
X197082100Y-99447911D01*
X197055693Y-99534172D01*
X197036146Y-99558306D01*
X197016515Y-99591181D01*
X197003213Y-99649896D01*
X196995246Y-99743971D01*
X196991619Y-99882928D01*
X196991111Y-99989093D01*
X196991111Y-100374844D01*
X197201276Y-100583399D01*
X197411442Y-100791954D01*
X197411442Y-101176777D01*
X197412328Y-101338469D01*
X197416114Y-101452308D01*
X197424492Y-101530474D01*
X197439154Y-101585150D01*
X197461789Y-101628516D01*
X197477237Y-101650591D01*
X197521533Y-101749039D01*
X197510701Y-101839103D01*
X197448173Y-101909088D01*
X197393975Y-101934463D01*
X197302737Y-101964487D01*
X197454666Y-102474889D01*
X197606596Y-102985291D01*
X197614282Y-100585527D01*
X197615651Y-100149834D01*
X197616720Y-99770206D01*
X197617406Y-99442659D01*
X197617622Y-99163213D01*
X197617285Y-98927884D01*
X197616310Y-98732690D01*
X197614610Y-98573648D01*
X197612102Y-98446777D01*
X197608701Y-98348093D01*
X197604321Y-98273615D01*
X197598878Y-98219360D01*
X197592287Y-98181346D01*
X197584462Y-98155590D01*
X197575319Y-98138110D01*
X197564774Y-98124924D01*
X197561741Y-98121653D01*
X197510974Y-98036107D01*
X197509070Y-97997016D01*
X197601368Y-97997016D01*
X197632839Y-98036262D01*
X197683427Y-98046402D01*
X197732699Y-98024039D01*
X197741702Y-97989567D01*
X197720433Y-97932622D01*
X197672301Y-97913752D01*
X197621218Y-97941788D01*
X197601368Y-97997016D01*
X197509070Y-97997016D01*
X197506843Y-97951313D01*
X197539396Y-97877865D01*
X197598677Y-97826354D01*
X197674734Y-97807372D01*
X197757611Y-97831512D01*
X197801749Y-97866260D01*
X197846161Y-97924146D01*
X197861797Y-97967294D01*
X197844372Y-98018245D01*
X197802401Y-98083788D01*
X197801749Y-98084618D01*
X197791322Y-98099026D01*
X197782178Y-98116574D01*
X197774231Y-98141066D01*
X197767399Y-98176309D01*
X197761597Y-98226107D01*
X197756741Y-98294267D01*
X197752747Y-98384592D01*
X197749531Y-98500889D01*
X197747008Y-98646963D01*
X197745095Y-98826620D01*
X197743707Y-99043664D01*
X197742760Y-99301901D01*
X197742170Y-99605136D01*
X197741853Y-99957175D01*
X197741725Y-100361823D01*
X197741702Y-100800721D01*
X197741702Y-103440486D01*
X197861797Y-103840964D01*
X197905191Y-103986499D01*
X197941607Y-104110199D01*
X197967919Y-104201334D01*
X197981006Y-104249174D01*
X197981891Y-104253598D01*
X198001144Y-104279389D01*
X198052361Y-104337324D01*
X198125733Y-104416414D01*
X198151591Y-104443666D01*
X198256473Y-104545629D01*
X198335898Y-104603207D01*
X198397663Y-104622015D01*
X198399286Y-104622039D01*
X198488324Y-104635621D01*
X198548688Y-104685002D01*
X198580003Y-104736181D01*
X198597147Y-104816928D01*
X198569053Y-104884825D01*
X198510291Y-104932412D01*
X198435429Y-104952230D01*
X198359034Y-104936820D01*
X198297150Y-104881010D01*
X198268255Y-104814759D01*
X198267129Y-104767478D01*
X198265491Y-104760491D01*
X198359881Y-104760491D01*
X198361225Y-104818085D01*
X198392537Y-104871607D01*
X198432246Y-104891792D01*
X198468594Y-104871501D01*
X198489135Y-104850562D01*
X198509508Y-104790515D01*
X198487316Y-104735821D01*
X198432866Y-104711652D01*
X198432246Y-104711650D01*
X198376934Y-104735634D01*
X198359881Y-104760491D01*
X198265491Y-104760491D01*
X198256395Y-104721704D01*
X198207472Y-104654801D01*
X198174285Y-104620635D01*
X198123004Y-104572227D01*
X198092524Y-104549567D01*
X198082051Y-104559315D01*
X198090789Y-104608134D01*
X198117943Y-104702687D01*
X198151386Y-104812440D01*
X198191005Y-104921903D01*
X198232206Y-104985811D01*
X198280506Y-105016977D01*
X198362106Y-105064745D01*
X198397393Y-105137651D01*
X198401762Y-105192591D01*
X198415691Y-105239466D01*
X198460077Y-105306396D01*
X198539532Y-105399127D01*
X198658665Y-105523402D01*
X198702458Y-105567324D01*
X199002695Y-105866434D01*
X199002695Y-106039633D01*
X199000326Y-106137872D01*
X198989993Y-106190104D01*
X198966856Y-106210287D01*
X198942648Y-106212832D01*
X198907362Y-106205346D01*
X198889327Y-106173242D01*
X198883051Y-106102051D01*
X198882600Y-106054615D01*
X198882600Y-105896398D01*
X198594319Y-105611766D01*
X198491545Y-105513186D01*
X198407503Y-105438150D01*
X198349188Y-105392460D01*
X198323596Y-105381918D01*
X198323536Y-105387182D01*
X198338504Y-105438332D01*
X198366444Y-105533617D01*
X198403401Y-105659561D01*
X198445422Y-105802686D01*
X198446687Y-105806993D01*
X198487136Y-105947643D01*
X198520430Y-106068965D01*
X198543258Y-106158490D01*
X198552308Y-106203748D01*
X198552340Y-106204806D01*
X198525547Y-106225603D01*
X198457142Y-106238867D01*
X198365091Y-106244575D01*
X198267358Y-106242707D01*
X198181907Y-106233242D01*
X198126704Y-106216157D01*
X198116256Y-106205326D01*
X198105227Y-106169997D01*
X198078776Y-106082679D01*
X198038571Y-105948945D01*
X197986279Y-105774371D01*
X197923567Y-105564532D01*
X197852103Y-105325001D01*
X197793864Y-105129525D01*
X198252104Y-105129525D01*
X198262008Y-105179439D01*
X198271294Y-105207102D01*
X198292970Y-105238174D01*
X198313552Y-105219786D01*
X198325293Y-105160236D01*
X198321173Y-105142209D01*
X198292117Y-105107340D01*
X198261059Y-105106803D01*
X198252104Y-105129525D01*
X197793864Y-105129525D01*
X197773553Y-105061354D01*
X197689586Y-104779165D01*
X197665048Y-104696638D01*
X197569615Y-104375625D01*
X197470787Y-104043214D01*
X197371586Y-103709572D01*
X197275036Y-103384867D01*
X197184160Y-103079266D01*
X197101983Y-102802937D01*
X197031526Y-102566047D01*
X196986547Y-102414841D01*
X196875873Y-102042756D01*
X196794367Y-101768603D01*
X197291347Y-101768603D01*
X197311784Y-101825464D01*
X197360778Y-101838447D01*
X197410370Y-101810769D01*
X197438244Y-101772902D01*
X197419950Y-101735570D01*
X197405745Y-101720745D01*
X197348123Y-101689968D01*
X197305014Y-101712753D01*
X197291347Y-101768603D01*
X196794367Y-101768603D01*
X196778092Y-101713859D01*
X196688942Y-101413792D01*
X196604160Y-101128201D01*
X196519483Y-100842727D01*
X196430649Y-100543015D01*
X196400964Y-100442818D01*
X196853102Y-100442818D01*
X196942952Y-100747080D01*
X197017818Y-100998068D01*
X197079157Y-101200261D01*
X197128431Y-101358138D01*
X197167099Y-101476175D01*
X197196621Y-101558852D01*
X197218456Y-101610647D01*
X197234065Y-101636038D01*
X197243430Y-101640238D01*
X197259071Y-101605280D01*
X197271652Y-101514469D01*
X197280740Y-101371939D01*
X197284771Y-101244575D01*
X197293207Y-100859835D01*
X197065721Y-100626071D01*
X196976335Y-100537152D01*
X196906205Y-100473049D01*
X196862913Y-100440297D01*
X196853102Y-100442818D01*
X196400964Y-100442818D01*
X196380348Y-100373234D01*
X196256338Y-99954915D01*
X196136126Y-99550024D01*
X196020899Y-99162527D01*
X195911845Y-98796386D01*
X195810149Y-98455564D01*
X195716998Y-98144025D01*
X195633580Y-97865733D01*
X195561080Y-97624651D01*
X195500686Y-97424742D01*
X195453585Y-97269969D01*
X195420962Y-97164297D01*
X195404004Y-97111689D01*
X195402943Y-97108772D01*
X195389798Y-97041223D01*
X195400479Y-96954538D01*
X195428789Y-96854669D01*
X195470956Y-96721349D01*
X195516404Y-96574060D01*
X195538709Y-96500184D01*
X195616857Y-96318925D01*
X195721336Y-96181822D01*
X195850213Y-96043602D01*
X195850213Y-95505628D01*
X195850213Y-94967653D01*
X196105414Y-94713778D01*
X196237770Y-94575791D01*
X196322111Y-94472865D01*
X196358820Y-94404519D01*
X196360614Y-94391686D01*
X196363154Y-94383518D01*
X196480709Y-94383518D01*
X196501939Y-94433696D01*
X196540756Y-94443565D01*
X196590935Y-94422335D01*
X196600804Y-94383518D01*
X196579574Y-94333339D01*
X196540756Y-94323470D01*
X196490578Y-94344700D01*
X196480709Y-94383518D01*
X196363154Y-94383518D01*
X196385426Y-94311883D01*
X196446070Y-94242502D01*
X196521858Y-94205168D01*
X196540756Y-94203376D01*
X196612906Y-94227554D01*
X196679569Y-94285594D01*
X196718163Y-94355751D01*
X196720898Y-94376837D01*
X196695861Y-94464961D01*
X196633097Y-94533788D01*
X196551123Y-94563548D01*
X196545897Y-94563659D01*
X196496680Y-94574999D01*
X196433910Y-94613078D01*
X196349531Y-94683982D01*
X196235491Y-94793798D01*
X196217339Y-94811982D01*
X195970307Y-95060304D01*
X195970307Y-95599158D01*
X195970307Y-96138012D01*
X195816821Y-96293429D01*
X195745016Y-96365971D01*
X195701462Y-96418633D01*
X195683598Y-96467599D01*
X195688858Y-96529054D01*
X195714680Y-96619185D01*
X195748682Y-96723624D01*
X195774867Y-96721386D01*
X195840018Y-96673911D01*
X195943866Y-96581425D01*
X196086147Y-96444152D01*
X196121697Y-96408845D01*
X196480709Y-96050768D01*
X196480709Y-95674410D01*
X196480709Y-95298053D01*
X196765934Y-95014014D01*
X197051158Y-94729975D01*
X197051158Y-94306199D01*
X197050466Y-94136760D01*
X197047514Y-94016907D01*
X197040990Y-93936188D01*
X197029581Y-93884148D01*
X197011973Y-93850336D01*
X196991111Y-93828080D01*
X196938807Y-93746508D01*
X196936050Y-93655519D01*
X196981549Y-93575276D01*
X197008685Y-93553428D01*
X197066387Y-93521699D01*
X197098567Y-93526780D01*
G37*
G36*
X195398342Y-88255591D02*
G01*
X195424418Y-88324867D01*
X195460470Y-88430173D01*
X195502694Y-88560813D01*
X195503476Y-88563297D01*
X195610822Y-88904203D01*
X195463518Y-89343840D01*
X195316214Y-89783477D01*
X195463119Y-89928172D01*
X195610023Y-90072868D01*
X195610023Y-91428890D01*
X195610242Y-91754704D01*
X195611008Y-92025554D01*
X195612484Y-92246520D01*
X195614836Y-92422686D01*
X195618228Y-92559131D01*
X195622823Y-92660939D01*
X195628786Y-92733190D01*
X195636282Y-92780966D01*
X195645474Y-92809349D01*
X195655059Y-92822288D01*
X195694750Y-92889556D01*
X195695426Y-92974659D01*
X195659297Y-93051773D01*
X195633367Y-93075787D01*
X195542950Y-93117934D01*
X195465666Y-93103152D01*
X195402037Y-93043417D01*
X195350506Y-92960427D01*
X195349790Y-92937613D01*
X195465241Y-92937613D01*
X195469600Y-92954365D01*
X195510195Y-92995829D01*
X195565263Y-92996304D01*
X195596792Y-92969525D01*
X195595451Y-92924024D01*
X195576046Y-92895552D01*
X195524480Y-92872679D01*
X195480010Y-92890862D01*
X195465241Y-92937613D01*
X195349790Y-92937613D01*
X195348419Y-92893930D01*
X195395605Y-92826593D01*
X195399858Y-92822288D01*
X195414257Y-92806041D01*
X195426151Y-92785110D01*
X195435778Y-92754014D01*
X195443378Y-92707274D01*
X195449189Y-92639408D01*
X195453452Y-92544937D01*
X195456404Y-92418381D01*
X195458287Y-92254258D01*
X195459338Y-92047088D01*
X195459798Y-91791392D01*
X195459905Y-91481688D01*
X195459905Y-91446818D01*
X195459905Y-90131395D01*
X195370148Y-90045402D01*
X195312100Y-89995048D01*
X195273992Y-89971728D01*
X195268228Y-89972231D01*
X195254069Y-90005236D01*
X195228100Y-90080250D01*
X195195669Y-90181741D01*
X195192225Y-90192918D01*
X195128384Y-90400783D01*
X195204074Y-90479786D01*
X195279763Y-90558789D01*
X195279763Y-92043692D01*
X195279763Y-93528595D01*
X194829409Y-93978198D01*
X194672315Y-94136552D01*
X194554343Y-94259457D01*
X194470763Y-94352486D01*
X194416842Y-94421211D01*
X194387850Y-94471203D01*
X194379057Y-94508034D01*
X194379054Y-94508598D01*
X194353591Y-94605193D01*
X194283649Y-94666458D01*
X194198470Y-94683754D01*
X194114977Y-94658273D01*
X194048096Y-94595348D01*
X194022223Y-94524448D01*
X194144069Y-94524448D01*
X194150274Y-94550085D01*
X194185194Y-94590743D01*
X194235480Y-94573669D01*
X194250609Y-94560001D01*
X194271257Y-94508654D01*
X194252372Y-94460597D01*
X194212484Y-94443565D01*
X194159968Y-94467466D01*
X194144069Y-94524448D01*
X194022223Y-94524448D01*
X194018868Y-94515254D01*
X194018771Y-94510579D01*
X194041520Y-94453568D01*
X194096123Y-94393791D01*
X194162110Y-94348665D01*
X194219013Y-94335603D01*
X194223188Y-94336658D01*
X194254658Y-94330459D01*
X194308235Y-94295652D01*
X194388039Y-94228674D01*
X194498191Y-94125958D01*
X194642812Y-93983940D01*
X194718078Y-93908433D01*
X195159669Y-93463291D01*
X195159669Y-92050603D01*
X195159628Y-91680829D01*
X195158950Y-91369082D01*
X195156799Y-91113342D01*
X195152344Y-90911589D01*
X195144748Y-90761802D01*
X195133178Y-90661963D01*
X195116801Y-90610051D01*
X195094782Y-90604046D01*
X195066287Y-90641928D01*
X195030482Y-90721676D01*
X194986533Y-90841272D01*
X194933606Y-90998695D01*
X194870866Y-91191924D01*
X194842028Y-91281295D01*
X194777910Y-91479764D01*
X194719368Y-91660701D01*
X194669094Y-91815805D01*
X194629780Y-91936775D01*
X194604121Y-92015309D01*
X194595351Y-92041674D01*
X194602681Y-92054866D01*
X194643156Y-92028192D01*
X194659750Y-92013660D01*
X194713959Y-91946467D01*
X194724079Y-91890777D01*
X194726469Y-91871476D01*
X194834655Y-91871476D01*
X194839552Y-91911693D01*
X194885767Y-91917609D01*
X194894291Y-91916511D01*
X194948445Y-91892398D01*
X194964515Y-91861532D01*
X194943439Y-91824760D01*
X194897407Y-91818110D01*
X194852212Y-91839606D01*
X194834655Y-91871476D01*
X194726469Y-91871476D01*
X194731499Y-91830858D01*
X194772554Y-91761139D01*
X194830123Y-91703904D01*
X194884955Y-91681390D01*
X194947671Y-91697977D01*
X195002870Y-91728128D01*
X195058447Y-91796847D01*
X195068328Y-91879177D01*
X195038704Y-91958502D01*
X194975765Y-92018206D01*
X194886066Y-92041674D01*
X194811889Y-92068162D01*
X194710062Y-92147694D01*
X194656086Y-92199899D01*
X194581880Y-92279599D01*
X194526392Y-92354352D01*
X194480328Y-92440898D01*
X194434392Y-92555977D01*
X194394405Y-92671164D01*
X194351854Y-92798817D01*
X194317528Y-92904272D01*
X194295351Y-92975309D01*
X194288983Y-92999411D01*
X194308163Y-92988949D01*
X194357713Y-92946088D01*
X194407516Y-92898872D01*
X194494969Y-92793974D01*
X194534240Y-92700003D01*
X194535117Y-92693088D01*
X194538816Y-92683499D01*
X194656256Y-92683499D01*
X194669451Y-92736123D01*
X194706973Y-92762171D01*
X194709314Y-92762241D01*
X194746387Y-92738144D01*
X194759279Y-92715187D01*
X194760546Y-92659689D01*
X194730687Y-92623686D01*
X194687667Y-92624523D01*
X194675304Y-92634124D01*
X194656256Y-92683499D01*
X194538816Y-92683499D01*
X194571916Y-92597694D01*
X194623000Y-92544475D01*
X194686272Y-92506614D01*
X194738202Y-92507712D01*
X194773118Y-92523484D01*
X194852319Y-92579401D01*
X194885465Y-92647619D01*
X194888996Y-92690034D01*
X194862803Y-92768085D01*
X194795956Y-92827911D01*
X194707841Y-92852304D01*
X194706199Y-92852312D01*
X194648286Y-92871305D01*
X194565423Y-92930633D01*
X194452921Y-93033822D01*
X194416431Y-93070087D01*
X194313531Y-93176758D01*
X194242750Y-93261823D01*
X194191996Y-93344309D01*
X194149177Y-93443242D01*
X194111573Y-93549787D01*
X194023037Y-93811712D01*
X194108807Y-93748299D01*
X194177600Y-93710088D01*
X194232944Y-93700129D01*
X194237911Y-93701515D01*
X194285938Y-93691519D01*
X194351671Y-93644405D01*
X194421800Y-93574468D01*
X194483011Y-93496004D01*
X194521992Y-93423308D01*
X194529172Y-93388748D01*
X194533390Y-93374042D01*
X194656256Y-93374042D01*
X194669451Y-93426666D01*
X194706973Y-93452715D01*
X194709314Y-93452785D01*
X194746387Y-93428688D01*
X194759279Y-93405731D01*
X194760546Y-93350232D01*
X194730687Y-93314230D01*
X194687667Y-93315067D01*
X194675304Y-93324667D01*
X194656256Y-93374042D01*
X194533390Y-93374042D01*
X194554309Y-93301111D01*
X194617749Y-93240601D01*
X194701534Y-93214227D01*
X194787708Y-93228999D01*
X194839767Y-93267501D01*
X194882951Y-93349947D01*
X194881958Y-93437503D01*
X194866479Y-93470808D01*
X194816969Y-93516214D01*
X194749325Y-93549991D01*
X194690201Y-93560260D01*
X194675870Y-93555753D01*
X194634171Y-93561747D01*
X194572785Y-93604995D01*
X194504152Y-93672020D01*
X194440716Y-93749348D01*
X194394916Y-93823504D01*
X194379054Y-93877222D01*
X194355386Y-93970029D01*
X194295434Y-94031158D01*
X194215774Y-94056006D01*
X194132982Y-94039972D01*
X194063635Y-93978454D01*
X194056423Y-93966790D01*
X194014620Y-93893952D01*
X194144069Y-93893952D01*
X194150274Y-93919589D01*
X194185194Y-93960246D01*
X194235480Y-93943172D01*
X194250609Y-93929504D01*
X194271257Y-93878157D01*
X194252372Y-93830100D01*
X194212484Y-93813068D01*
X194159968Y-93836970D01*
X194144069Y-93893952D01*
X194014620Y-93893952D01*
X194006797Y-93880322D01*
X193923075Y-94139425D01*
X193898130Y-94217962D01*
X193878706Y-94286552D01*
X193864106Y-94354027D01*
X193853639Y-94429220D01*
X193846608Y-94520963D01*
X193842321Y-94638089D01*
X193840084Y-94789431D01*
X193839202Y-94983820D01*
X193838990Y-95209531D01*
X193838629Y-96020533D01*
X194296841Y-96478030D01*
X194457398Y-96636807D01*
X194582319Y-96756407D01*
X194677046Y-96841455D01*
X194747018Y-96896574D01*
X194797676Y-96926389D01*
X194834461Y-96935524D01*
X194835122Y-96935527D01*
X194929711Y-96960554D01*
X194992183Y-97026726D01*
X195009551Y-97100657D01*
X194985042Y-97187063D01*
X194923262Y-97244119D01*
X194841833Y-97266819D01*
X194758375Y-97250157D01*
X194691693Y-97190960D01*
X194661162Y-97124374D01*
X194660120Y-97106481D01*
X194774565Y-97106481D01*
X194780771Y-97132118D01*
X194818385Y-97169777D01*
X194868103Y-97169731D01*
X194897543Y-97138187D01*
X194899549Y-97073682D01*
X194866422Y-97031117D01*
X194842980Y-97025598D01*
X194790464Y-97049499D01*
X194774565Y-97106481D01*
X194660120Y-97106481D01*
X194658309Y-97075365D01*
X194642497Y-97041270D01*
X194586605Y-96970235D01*
X194494343Y-96866404D01*
X194369422Y-96733921D01*
X194215554Y-96576930D01*
X194181232Y-96542554D01*
X193688510Y-96050512D01*
X193685830Y-95479722D01*
X193683150Y-94908931D01*
X193548216Y-95314250D01*
X193484084Y-95507995D01*
X193412254Y-95726846D01*
X193336492Y-95959161D01*
X193260560Y-96193299D01*
X193188224Y-96417620D01*
X193123246Y-96620483D01*
X193069393Y-96790246D01*
X193030427Y-96915268D01*
X193028821Y-96920515D01*
X192996014Y-97026044D01*
X192951309Y-97167435D01*
X192901444Y-97323466D01*
X192867491Y-97428748D01*
X192761222Y-97756840D01*
X193134795Y-97384163D01*
X193283871Y-97233072D01*
X193392373Y-97115307D01*
X193463974Y-97023597D01*
X193502347Y-96950675D01*
X193511163Y-96889271D01*
X193494096Y-96832115D01*
X193454818Y-96771938D01*
X193448321Y-96763578D01*
X193406128Y-96698045D01*
X193390042Y-96651776D01*
X193514010Y-96651776D01*
X193518452Y-96678308D01*
X193559020Y-96719061D01*
X193614188Y-96718974D01*
X193645256Y-96692457D01*
X193646130Y-96647067D01*
X193612384Y-96605330D01*
X193565536Y-96585806D01*
X193534620Y-96597030D01*
X193514010Y-96651776D01*
X193390042Y-96651776D01*
X193388278Y-96646702D01*
X193388274Y-96646253D01*
X193413524Y-96584537D01*
X193474384Y-96525961D01*
X193548517Y-96489413D01*
X193578774Y-96485172D01*
X193664216Y-96510187D01*
X193721697Y-96573527D01*
X193745234Y-96657637D01*
X193728846Y-96744964D01*
X193686748Y-96802015D01*
X193638809Y-96877186D01*
X193633487Y-96957166D01*
X193633559Y-96991772D01*
X193624203Y-97027496D01*
X193600391Y-97070505D01*
X193557093Y-97126964D01*
X193489283Y-97203041D01*
X193391931Y-97304903D01*
X193260010Y-97438715D01*
X193154540Y-97544547D01*
X192667046Y-98032714D01*
X192590273Y-98282706D01*
X192556952Y-98394995D01*
X192533256Y-98482276D01*
X192522694Y-98531266D01*
X192523050Y-98537245D01*
X192625480Y-98589678D01*
X192684487Y-98632811D01*
X192712757Y-98678726D01*
X192721869Y-98726610D01*
X192707366Y-98827224D01*
X192646717Y-98893716D01*
X192550701Y-98917087D01*
X192469484Y-98936307D01*
X192398841Y-98997763D01*
X192334428Y-99107153D01*
X192271907Y-99270173D01*
X192264716Y-99292383D01*
X192188095Y-99532572D01*
X192187712Y-101333686D01*
X192187328Y-103134800D01*
X192716012Y-103664096D01*
X192881638Y-103830709D01*
X193008721Y-103960862D01*
X193101813Y-104059913D01*
X193165463Y-104133219D01*
X193204220Y-104186140D01*
X193222635Y-104224032D01*
X193225258Y-104252255D01*
X193223140Y-104261307D01*
X193213395Y-104278437D01*
X193195458Y-104281446D01*
X193164534Y-104266272D01*
X193115828Y-104228852D01*
X193044545Y-104165125D01*
X192945887Y-104071029D01*
X192815061Y-103942501D01*
X192647271Y-103775481D01*
X192634409Y-103762635D01*
X192067234Y-103196049D01*
X192064462Y-101574476D01*
X192061691Y-99952903D01*
X191930237Y-100343210D01*
X191798783Y-100733518D01*
X191797902Y-101462807D01*
X191797855Y-101691387D01*
X191798745Y-101867829D01*
X191801180Y-102000043D01*
X191805774Y-102095935D01*
X191813137Y-102163417D01*
X191823879Y-102210395D01*
X191838613Y-102244778D01*
X191857949Y-102274476D01*
X191860929Y-102278536D01*
X191905134Y-102375771D01*
X191898204Y-102466986D01*
X191842633Y-102537942D01*
X191812435Y-102555228D01*
X191726906Y-102568238D01*
X191654666Y-102535677D01*
X191605051Y-102471890D01*
X191588575Y-102396598D01*
X191676927Y-102396598D01*
X191693370Y-102467190D01*
X191735183Y-102486969D01*
X191791092Y-102451588D01*
X191798272Y-102443358D01*
X191820629Y-102398370D01*
X191794306Y-102354299D01*
X191789817Y-102349735D01*
X191732888Y-102320269D01*
X191689918Y-102343778D01*
X191676927Y-102396598D01*
X191588575Y-102396598D01*
X191587399Y-102391223D01*
X191611048Y-102308021D01*
X191632602Y-102278950D01*
X191649316Y-102251281D01*
X191661096Y-102205386D01*
X191668486Y-102132736D01*
X191672031Y-102024804D01*
X191672278Y-101873066D01*
X191670131Y-101692109D01*
X191661915Y-101155818D01*
X191413828Y-101935448D01*
X191165742Y-102715078D01*
X191166133Y-103360096D01*
X191166525Y-104005114D01*
X191486152Y-104325735D01*
X191613236Y-104449538D01*
X191718790Y-104545008D01*
X191796937Y-104607173D01*
X191841798Y-104631061D01*
X191846668Y-104630667D01*
X191899307Y-104634510D01*
X191962383Y-104664005D01*
X192022898Y-104733845D01*
X192034366Y-104819340D01*
X191994442Y-104900080D01*
X191990030Y-104904659D01*
X191912298Y-104947264D01*
X191827593Y-104943911D01*
X191754481Y-104902019D01*
X191711531Y-104829006D01*
X191707955Y-104799772D01*
X191799655Y-104799772D01*
X191814443Y-104850633D01*
X191828874Y-104862899D01*
X191890889Y-104875251D01*
X191934005Y-104841254D01*
X191941221Y-104790394D01*
X191910273Y-104736699D01*
X191872491Y-104726662D01*
X191821888Y-104749443D01*
X191799655Y-104799772D01*
X191707955Y-104799772D01*
X191706950Y-104791558D01*
X191683485Y-104737702D01*
X191613121Y-104646458D01*
X191495901Y-104517878D01*
X191377404Y-104397113D01*
X191047857Y-104068589D01*
X191039638Y-103594292D01*
X191031418Y-103119995D01*
X190803789Y-103833258D01*
X190732631Y-104058029D01*
X190679106Y-104232058D01*
X190641681Y-104361508D01*
X190618822Y-104452541D01*
X190608995Y-104511321D01*
X190610667Y-104544011D01*
X190622302Y-104556774D01*
X190623647Y-104557125D01*
X190709886Y-104602821D01*
X190765263Y-104682776D01*
X190776217Y-104740437D01*
X190803872Y-104826771D01*
X190881300Y-104921815D01*
X190986383Y-105023666D01*
X190986383Y-105618249D01*
X190986142Y-105821080D01*
X190984898Y-105971639D01*
X190981864Y-106077703D01*
X190976256Y-106147046D01*
X190967288Y-106187444D01*
X190954174Y-106206671D01*
X190936131Y-106212505D01*
X190926336Y-106212832D01*
X190905627Y-106210407D01*
X190890322Y-106197882D01*
X190879605Y-106167385D01*
X190872660Y-106111044D01*
X190868673Y-106020984D01*
X190866827Y-105889335D01*
X190866307Y-105708222D01*
X190866288Y-105632988D01*
X190866288Y-105053144D01*
X190783723Y-104975109D01*
X190669545Y-104905652D01*
X190586095Y-104886927D01*
X190471032Y-104876780D01*
X190253848Y-105552312D01*
X190036664Y-106227844D01*
X189820980Y-106236665D01*
X189702926Y-106238663D01*
X189634863Y-106231771D01*
X189607207Y-106214601D01*
X189605295Y-106205466D01*
X189614308Y-106172075D01*
X189640559Y-106085247D01*
X189682871Y-105948693D01*
X189740064Y-105766130D01*
X189810962Y-105541271D01*
X189894384Y-105277830D01*
X189989152Y-104979523D01*
X190065531Y-104739725D01*
X190538662Y-104739725D01*
X190553450Y-104790585D01*
X190567881Y-104802851D01*
X190629896Y-104815204D01*
X190673012Y-104781206D01*
X190680228Y-104730346D01*
X190649280Y-104676652D01*
X190611498Y-104666614D01*
X190560895Y-104689395D01*
X190538662Y-104739725D01*
X190065531Y-104739725D01*
X190094089Y-104650063D01*
X190208015Y-104293164D01*
X190329751Y-103912541D01*
X190458121Y-103511909D01*
X190591944Y-103094981D01*
X190613095Y-103029150D01*
X190753658Y-102591700D01*
X190910165Y-102104611D01*
X191080195Y-101575412D01*
X191261329Y-101011636D01*
X191451148Y-100420813D01*
X191647232Y-99810474D01*
X191847161Y-99188151D01*
X191989597Y-98744780D01*
X192495270Y-98744780D01*
X192515051Y-98778924D01*
X192565844Y-98807718D01*
X192615328Y-98795233D01*
X192637683Y-98748019D01*
X192637683Y-98747803D01*
X192613780Y-98701315D01*
X192561542Y-98682619D01*
X192510838Y-98701663D01*
X192495270Y-98744780D01*
X191989597Y-98744780D01*
X192048518Y-98561373D01*
X192248880Y-97937673D01*
X192445831Y-97324581D01*
X192636949Y-96729628D01*
X192819816Y-96160345D01*
X192927645Y-95824652D01*
X193161434Y-95096820D01*
X193377613Y-94423827D01*
X193576934Y-93803338D01*
X193760148Y-93233022D01*
X193928006Y-92710546D01*
X194081261Y-92233577D01*
X194220664Y-91799781D01*
X194346967Y-91406827D01*
X194460921Y-91052381D01*
X194563277Y-90734111D01*
X194654788Y-90449683D01*
X194736205Y-90196765D01*
X194808280Y-89973024D01*
X194871763Y-89776128D01*
X194927408Y-89603742D01*
X194975964Y-89453535D01*
X195018185Y-89323174D01*
X195054821Y-89210325D01*
X195086625Y-89112656D01*
X195114347Y-89027835D01*
X195138739Y-88953527D01*
X195160554Y-88887401D01*
X195180542Y-88827124D01*
X195199455Y-88770362D01*
X195218045Y-88714784D01*
X195224996Y-88694038D01*
X195276994Y-88540082D01*
X195322549Y-88407404D01*
X195358202Y-88305903D01*
X195380494Y-88245482D01*
X195386043Y-88233037D01*
X195398342Y-88255591D01*
G37*
%TD*%
D10*
%TO.C,Toggle1*%
X117348000Y-66072000D03*
D11*
X117348000Y-61872000D03*
%TD*%
D12*
%TO.C,Rotary_Encoder1*%
X181080000Y-116920000D03*
X181080000Y-121920000D03*
D13*
X181080000Y-119420000D03*
D14*
X188580000Y-113820000D03*
X188580000Y-125020000D03*
D12*
X195580000Y-121920000D03*
D13*
X195580000Y-116920000D03*
%TD*%
D15*
%TO.C,H5*%
X107306032Y-99690751D03*
%TD*%
D16*
%TO.C,R4*%
X181102000Y-135890000D03*
D17*
X181102000Y-128270000D03*
%TD*%
D13*
%TO.C,Button3*%
X94540000Y-123480000D03*
X101040000Y-123480000D03*
D12*
X94540000Y-127980000D03*
X101040000Y-127980000D03*
%TD*%
D15*
%TO.C,H9*%
X141024288Y-69041240D03*
%TD*%
D10*
%TO.C,Toggle3*%
X149352000Y-66072000D03*
D11*
X149352000Y-61872000D03*
%TD*%
D18*
%TO.C,Bumper2*%
X82296000Y-73152000D03*
D19*
X82296000Y-75184000D03*
%TD*%
D15*
%TO.C,H7*%
X107445778Y-139162731D03*
%TD*%
D13*
%TO.C,Button4*%
X94540000Y-133300000D03*
X101040000Y-133300000D03*
D12*
X94540000Y-137800000D03*
X101040000Y-137800000D03*
%TD*%
D13*
%TO.C,Button2*%
X94540000Y-113320000D03*
X101040000Y-113320000D03*
D12*
X94540000Y-117820000D03*
X101040000Y-117820000D03*
%TD*%
D13*
%TO.C,Button1*%
X94540000Y-103160000D03*
X101040000Y-103160000D03*
D12*
X94540000Y-107660000D03*
X101040000Y-107660000D03*
%TD*%
D18*
%TO.C,Bumper1*%
X108712000Y-61214000D03*
D19*
X108712000Y-63246000D03*
%TD*%
D20*
%TO.C,PowerSwitch1*%
X140970000Y-90200000D03*
D21*
X140970000Y-83200000D03*
X140970000Y-76200000D03*
%TD*%
D15*
%TO.C,H6*%
X174493637Y-99822788D03*
%TD*%
D10*
%TO.C,Toggle4*%
X164592000Y-66072000D03*
D11*
X164592000Y-61872000D03*
%TD*%
D22*
%TO.C,Pot1*%
X124705737Y-85096874D03*
X114478111Y-85096874D03*
D23*
X117100000Y-78090000D03*
D24*
X119600000Y-78090000D03*
X122100000Y-78090000D03*
%TD*%
D18*
%TO.C,Bumper3*%
X172974000Y-60452000D03*
D19*
X172974000Y-62484000D03*
%TD*%
D10*
%TO.C,Toggle2*%
X132588000Y-66072000D03*
D11*
X132588000Y-61872000D03*
%TD*%
D22*
%TO.C,Pot2*%
X167432154Y-85092683D03*
X157253351Y-85092683D03*
D23*
X159840000Y-78090000D03*
D24*
X162340000Y-78090000D03*
X164840000Y-78090000D03*
%TD*%
D16*
%TO.C,R3*%
X185420000Y-135890000D03*
D17*
X185420000Y-128270000D03*
%TD*%
D16*
%TO.C,OLED_LCD_Display1*%
X133350000Y-99060000D03*
X135890000Y-99060000D03*
X138430000Y-99060000D03*
X140970000Y-99060000D03*
X143510000Y-99060000D03*
X146050000Y-99060000D03*
D25*
X148590000Y-99060000D03*
%TD*%
D15*
%TO.C,H10*%
X141018739Y-123314035D03*
%TD*%
%TO.C,H8*%
X174498151Y-139192604D03*
%TD*%
D26*
%TO.C,Joystick1*%
X94335000Y-84850000D03*
X96835000Y-84850000D03*
X99335000Y-84850000D03*
X88105000Y-73620000D03*
X88105000Y-76120000D03*
X88105000Y-78620000D03*
D27*
X100085000Y-70370000D03*
X93585000Y-70370000D03*
X100085000Y-65870000D03*
X93585000Y-65870000D03*
D28*
X90510000Y-81120000D03*
X103160000Y-81120000D03*
X103160000Y-71120000D03*
X90510000Y-71120000D03*
%TD*%
D18*
%TO.C,Bumper4*%
X199644000Y-73152000D03*
D19*
X199644000Y-75184000D03*
%TD*%
D26*
%TO.C,Joystick2*%
X182605000Y-84850000D03*
X185105000Y-84850000D03*
X187605000Y-84850000D03*
X176375000Y-73620000D03*
X176375000Y-76120000D03*
X176375000Y-78620000D03*
D27*
X188355000Y-70370000D03*
X181855000Y-70370000D03*
X188355000Y-65870000D03*
X181855000Y-65870000D03*
D28*
X178780000Y-81120000D03*
X191430000Y-81120000D03*
X191430000Y-71120000D03*
X178780000Y-71120000D03*
%TD*%
D16*
%TO.C,C2*%
X129540000Y-120714888D03*
D25*
X129540000Y-123214888D03*
%TD*%
D16*
%TO.C,Battery1*%
X150368000Y-85852000D03*
X150368000Y-87852000D03*
%TD*%
%TO.C,Gyroscope1*%
X149789454Y-105816523D03*
D25*
X147249454Y-105816523D03*
D16*
X144709454Y-105816523D03*
X142169454Y-105816523D03*
X139629454Y-105816523D03*
X137089454Y-105816523D03*
X134549454Y-105816523D03*
X132009454Y-105816523D03*
%TD*%
D25*
%TO.C,R2*%
X141986000Y-117856000D03*
D17*
X134366000Y-117856000D03*
%TD*%
D16*
%TO.C,Arduino_Mega_Pro1*%
X90805000Y-127000000D03*
X88265000Y-127000000D03*
X90805000Y-124460000D03*
X88265000Y-124460000D03*
X88265000Y-132080000D03*
X90805000Y-132080000D03*
X90805000Y-121920000D03*
X88265000Y-121920000D03*
X88265000Y-134620000D03*
X90805000Y-134620000D03*
X106480000Y-88900000D03*
X90805000Y-119380000D03*
X88265000Y-119380000D03*
X90805000Y-116840000D03*
X88265000Y-116840000D03*
X90805000Y-114300000D03*
X88265000Y-114300000D03*
X90805000Y-111760000D03*
X88265000Y-111760000D03*
X90805000Y-109220000D03*
X88265000Y-109220000D03*
X90805000Y-106680000D03*
X88265000Y-106680000D03*
X90805000Y-104140000D03*
X88265000Y-104140000D03*
X90805000Y-101600000D03*
X88265000Y-101600000D03*
X90805000Y-99060000D03*
X88265000Y-99060000D03*
X90805000Y-96520000D03*
X88265000Y-96520000D03*
X90805000Y-93980000D03*
X88265000Y-93980000D03*
X90805000Y-91440000D03*
X88265000Y-91440000D03*
X90805000Y-88900000D03*
X88265000Y-88900000D03*
X124260000Y-106680000D03*
X121720000Y-106680000D03*
X124260000Y-104140000D03*
X121720000Y-104140000D03*
X124260000Y-101600000D03*
X121720000Y-101600000D03*
X124260000Y-99060000D03*
X121720000Y-99060000D03*
X124260000Y-96520000D03*
X121720000Y-96520000D03*
X124260000Y-93980000D03*
X121720000Y-93980000D03*
X124260000Y-91440000D03*
X121720000Y-91440000D03*
X124260000Y-88900000D03*
X121720000Y-88900000D03*
X119180000Y-88900000D03*
X119180000Y-91440000D03*
X106480000Y-91440000D03*
X116640000Y-88900000D03*
X103940000Y-88900000D03*
X116640000Y-91440000D03*
X103940000Y-91440000D03*
X114100000Y-88900000D03*
X114100000Y-91440000D03*
X124260000Y-127000000D03*
X121720000Y-127000000D03*
X124260000Y-124460000D03*
X121720000Y-124460000D03*
X124260000Y-121920000D03*
X121720000Y-121920000D03*
X124260000Y-119380000D03*
X121720000Y-119380000D03*
X124260000Y-116840000D03*
X121720000Y-116840000D03*
X124260000Y-114300000D03*
X121720000Y-114300000D03*
X124260000Y-111760000D03*
X121720000Y-111760000D03*
X124260000Y-109220000D03*
X121720000Y-109220000D03*
X90805000Y-129540000D03*
D25*
X88265000Y-137160000D03*
X90805000Y-137160000D03*
X101400000Y-88900000D03*
D16*
X88265000Y-129540000D03*
X101400000Y-91440000D03*
X88265000Y-139700000D03*
X90805000Y-139700000D03*
%TD*%
%TO.C,C1*%
X182372000Y-100076000D03*
D25*
X184872000Y-100076000D03*
%TD*%
D16*
%TO.C,NRF24L01+PA+LNA1*%
X184150000Y-92075000D03*
X181610000Y-92075000D03*
X179070000Y-92075000D03*
X176530000Y-92075000D03*
X176530000Y-94615000D03*
X179070000Y-94615000D03*
X181610000Y-94615000D03*
D25*
X184150000Y-94615000D03*
%TD*%
D16*
%TO.C,R1*%
X134366000Y-114300000D03*
D17*
X141986000Y-114300000D03*
%TD*%
M02*
