%TF.GenerationSoftware,KiCad,Pcbnew,7.0.8*%
%TF.CreationDate,2025-03-16T00:58:01-04:00*%
%TF.ProjectId,RCTransmitterAecertRobotics,52435472-616e-4736-9d69-747465724165,V1.02*%
%TF.SameCoordinates,Original*%
%TF.FileFunction,Legend,Bot*%
%TF.FilePolarity,Positive*%
%FSLAX46Y46*%
G04 Gerber Fmt 4.6, Leading zero omitted, Abs format (unit mm)*
G04 Created by KiCad (PCBNEW 7.0.8) date 2025-03-16 00:58:01*
%MOMM*%
%LPD*%
G01*
G04 APERTURE LIST*
%ADD10C,0.250000*%
%ADD11C,0.200000*%
%ADD12C,0.100000*%
%ADD13C,0.150000*%
%ADD14C,0.120000*%
G04 APERTURE END LIST*
D10*
G36*
X144940288Y-140322500D02*
G01*
X144417120Y-140322500D01*
X144391350Y-140322030D01*
X144366247Y-140320622D01*
X144341811Y-140318275D01*
X144318042Y-140314989D01*
X144294939Y-140310764D01*
X144272504Y-140305601D01*
X144250735Y-140299499D01*
X144229633Y-140292458D01*
X144209198Y-140284478D01*
X144189430Y-140275559D01*
X144170329Y-140265702D01*
X144151895Y-140254905D01*
X144134128Y-140243170D01*
X144117028Y-140230496D01*
X144100594Y-140216884D01*
X144084828Y-140202332D01*
X144069877Y-140187041D01*
X144055891Y-140171208D01*
X144042869Y-140154835D01*
X144030812Y-140137921D01*
X144019719Y-140120465D01*
X144009591Y-140102469D01*
X144000428Y-140083932D01*
X143992229Y-140064854D01*
X143984995Y-140045235D01*
X143978725Y-140025075D01*
X143973420Y-140004374D01*
X143969080Y-139983132D01*
X143965704Y-139961349D01*
X143963292Y-139939025D01*
X143961845Y-139916160D01*
X143961363Y-139892754D01*
X143961428Y-139888724D01*
X144163962Y-139888724D01*
X144164260Y-139902429D01*
X144165823Y-139922169D01*
X144168725Y-139940931D01*
X144172967Y-139958714D01*
X144178548Y-139975518D01*
X144185469Y-139991343D01*
X144193730Y-140006190D01*
X144203329Y-140020057D01*
X144214269Y-140032946D01*
X144226548Y-140044855D01*
X144240166Y-140055786D01*
X144244964Y-140059212D01*
X144260047Y-140068838D01*
X144276168Y-140077485D01*
X144293325Y-140085153D01*
X144311519Y-140091842D01*
X144330750Y-140097552D01*
X144351018Y-140102283D01*
X144372322Y-140106035D01*
X144387101Y-140107993D01*
X144402341Y-140109516D01*
X144418042Y-140110604D01*
X144434203Y-140111256D01*
X144450826Y-140111474D01*
X144737689Y-140111474D01*
X144737689Y-139665975D01*
X144450826Y-139665975D01*
X144442457Y-139666029D01*
X144426065Y-139666464D01*
X144410134Y-139667334D01*
X144394664Y-139668639D01*
X144379654Y-139670380D01*
X144365105Y-139672555D01*
X144344146Y-139676634D01*
X144324224Y-139681691D01*
X144305339Y-139687728D01*
X144287491Y-139694743D01*
X144270679Y-139702737D01*
X144254904Y-139711710D01*
X144240166Y-139721662D01*
X144230938Y-139728841D01*
X144218213Y-139740424D01*
X144206827Y-139752986D01*
X144196781Y-139766527D01*
X144188074Y-139781047D01*
X144180706Y-139796546D01*
X144174679Y-139813024D01*
X144169990Y-139830481D01*
X144166641Y-139848916D01*
X144164632Y-139868331D01*
X144163962Y-139888724D01*
X143961428Y-139888724D01*
X143961595Y-139878362D01*
X143962812Y-139857068D01*
X143965072Y-139836128D01*
X143968376Y-139815543D01*
X143972723Y-139795311D01*
X143978113Y-139775434D01*
X143984547Y-139755911D01*
X143992024Y-139736743D01*
X144000544Y-139717928D01*
X144010107Y-139699468D01*
X144020714Y-139681362D01*
X144024458Y-139675452D01*
X144036382Y-139658522D01*
X144049342Y-139642789D01*
X144063340Y-139628254D01*
X144078374Y-139614916D01*
X144094445Y-139602777D01*
X144111553Y-139591835D01*
X144129697Y-139582092D01*
X144148879Y-139573546D01*
X144169097Y-139566198D01*
X144183152Y-139561964D01*
X144197668Y-139558264D01*
X144188784Y-139554779D01*
X144171564Y-139546685D01*
X144155078Y-139537090D01*
X144139324Y-139525996D01*
X144127990Y-139516692D01*
X144117068Y-139506543D01*
X144106558Y-139495551D01*
X144096460Y-139483716D01*
X144086774Y-139471036D01*
X144077500Y-139457513D01*
X144071600Y-139448117D01*
X144063463Y-139433646D01*
X144056183Y-139418725D01*
X144049759Y-139403352D01*
X144044191Y-139387529D01*
X144039481Y-139371255D01*
X144035626Y-139354531D01*
X144032628Y-139337355D01*
X144030487Y-139319729D01*
X144029202Y-139301652D01*
X144028952Y-139290818D01*
X144231373Y-139290818D01*
X144232362Y-139310693D01*
X144235329Y-139329286D01*
X144240274Y-139346597D01*
X144247196Y-139362625D01*
X144256096Y-139377371D01*
X144266974Y-139390835D01*
X144279829Y-139403017D01*
X144294663Y-139413916D01*
X144311474Y-139423533D01*
X144330263Y-139431868D01*
X144351030Y-139438920D01*
X144373775Y-139444691D01*
X144398497Y-139449179D01*
X144425197Y-139452384D01*
X144453875Y-139454308D01*
X144468956Y-139454789D01*
X144484531Y-139454949D01*
X144737689Y-139454949D01*
X144737689Y-139126687D01*
X144484531Y-139126687D01*
X144468956Y-139126847D01*
X144453875Y-139127328D01*
X144425197Y-139129251D01*
X144398497Y-139132457D01*
X144373775Y-139136945D01*
X144351030Y-139142715D01*
X144330263Y-139149767D01*
X144311474Y-139158102D01*
X144294663Y-139167719D01*
X144279829Y-139178619D01*
X144266974Y-139190800D01*
X144256096Y-139204264D01*
X144247196Y-139219010D01*
X144240274Y-139235039D01*
X144235329Y-139252349D01*
X144232362Y-139270942D01*
X144231373Y-139290818D01*
X144028952Y-139290818D01*
X144028774Y-139283124D01*
X144029273Y-139261019D01*
X144030772Y-139239584D01*
X144033269Y-139218819D01*
X144036765Y-139198723D01*
X144041260Y-139179297D01*
X144046754Y-139160541D01*
X144053247Y-139142454D01*
X144060739Y-139125038D01*
X144069230Y-139108291D01*
X144078720Y-139092214D01*
X144089208Y-139076807D01*
X144100696Y-139062069D01*
X144113182Y-139048001D01*
X144126668Y-139034603D01*
X144141152Y-139021875D01*
X144156635Y-139009816D01*
X144172980Y-138998415D01*
X144190140Y-138987749D01*
X144208116Y-138977818D01*
X144226908Y-138968623D01*
X144246516Y-138960164D01*
X144266939Y-138952440D01*
X144288179Y-138945452D01*
X144310233Y-138939200D01*
X144333104Y-138933683D01*
X144356790Y-138928901D01*
X144381292Y-138924856D01*
X144406610Y-138921545D01*
X144432744Y-138918971D01*
X144459693Y-138917132D01*
X144487458Y-138916028D01*
X144516039Y-138915661D01*
X144940288Y-138915661D01*
X144940288Y-140322500D01*
G37*
G36*
X143107696Y-138892424D02*
G01*
X143126173Y-138893056D01*
X143144481Y-138894110D01*
X143162620Y-138895585D01*
X143180591Y-138897482D01*
X143198392Y-138899800D01*
X143216025Y-138902539D01*
X143233489Y-138905700D01*
X143250784Y-138909283D01*
X143267910Y-138913286D01*
X143284867Y-138917712D01*
X143301655Y-138922559D01*
X143318275Y-138927827D01*
X143334726Y-138933517D01*
X143351007Y-138939628D01*
X143367120Y-138946161D01*
X143383064Y-138953115D01*
X143398839Y-138960490D01*
X143414446Y-138968287D01*
X143429883Y-138976506D01*
X143445151Y-138985146D01*
X143460251Y-138994207D01*
X143475182Y-139003690D01*
X143489944Y-139013594D01*
X143504537Y-139023920D01*
X143518961Y-139034668D01*
X143533216Y-139045836D01*
X143547303Y-139057426D01*
X143561220Y-139069438D01*
X143574969Y-139081871D01*
X143588549Y-139094726D01*
X143601960Y-139108002D01*
X143615078Y-139121566D01*
X143627780Y-139135286D01*
X143640065Y-139149161D01*
X143651934Y-139163191D01*
X143663386Y-139177377D01*
X143674422Y-139191718D01*
X143685042Y-139206214D01*
X143695245Y-139220865D01*
X143705032Y-139235672D01*
X143714402Y-139250634D01*
X143723356Y-139265751D01*
X143731893Y-139281023D01*
X143740014Y-139296451D01*
X143747718Y-139312034D01*
X143755006Y-139327772D01*
X143761878Y-139343666D01*
X143768333Y-139359715D01*
X143774371Y-139375919D01*
X143779993Y-139392278D01*
X143785199Y-139408793D01*
X143789988Y-139425463D01*
X143794361Y-139442288D01*
X143798317Y-139459268D01*
X143801857Y-139476404D01*
X143804981Y-139493695D01*
X143807687Y-139511141D01*
X143809978Y-139528743D01*
X143811852Y-139546500D01*
X143813310Y-139564412D01*
X143814351Y-139582479D01*
X143814975Y-139600702D01*
X143815184Y-139619080D01*
X143814975Y-139637458D01*
X143814351Y-139655681D01*
X143813310Y-139673748D01*
X143811852Y-139691660D01*
X143809978Y-139709417D01*
X143807687Y-139727019D01*
X143804981Y-139744465D01*
X143801857Y-139761756D01*
X143798317Y-139778892D01*
X143794361Y-139795872D01*
X143789988Y-139812698D01*
X143785199Y-139829367D01*
X143779993Y-139845882D01*
X143774371Y-139862242D01*
X143768333Y-139878446D01*
X143761878Y-139894494D01*
X143755006Y-139910388D01*
X143747718Y-139926126D01*
X143740014Y-139941709D01*
X143731893Y-139957137D01*
X143723356Y-139972409D01*
X143714402Y-139987527D01*
X143705032Y-140002489D01*
X143695245Y-140017295D01*
X143685042Y-140031947D01*
X143674422Y-140046443D01*
X143663386Y-140060783D01*
X143651934Y-140074969D01*
X143640065Y-140088999D01*
X143627780Y-140102874D01*
X143615078Y-140116594D01*
X143601960Y-140130158D01*
X143588549Y-140143434D01*
X143574969Y-140156289D01*
X143561220Y-140168722D01*
X143547303Y-140180734D01*
X143533216Y-140192324D01*
X143518961Y-140203493D01*
X143504537Y-140214240D01*
X143489944Y-140224566D01*
X143475182Y-140234470D01*
X143460251Y-140243953D01*
X143445151Y-140253014D01*
X143429883Y-140261654D01*
X143414446Y-140269873D01*
X143398839Y-140277670D01*
X143383064Y-140285046D01*
X143367120Y-140292000D01*
X143351007Y-140298532D01*
X143334726Y-140304644D01*
X143318275Y-140310333D01*
X143301655Y-140315602D01*
X143284867Y-140320448D01*
X143267910Y-140324874D01*
X143250784Y-140328878D01*
X143233489Y-140332460D01*
X143216025Y-140335621D01*
X143198392Y-140338360D01*
X143180591Y-140340679D01*
X143162620Y-140342575D01*
X143144481Y-140344050D01*
X143126173Y-140345104D01*
X143107696Y-140345736D01*
X143089050Y-140345947D01*
X143070404Y-140345736D01*
X143051928Y-140345104D01*
X143033622Y-140344050D01*
X143015485Y-140342575D01*
X142997518Y-140340679D01*
X142979720Y-140338360D01*
X142962092Y-140335621D01*
X142944633Y-140332460D01*
X142927345Y-140328878D01*
X142910225Y-140324874D01*
X142893276Y-140320448D01*
X142876495Y-140315602D01*
X142859885Y-140310333D01*
X142843444Y-140304644D01*
X142827173Y-140298532D01*
X142811071Y-140292000D01*
X142795139Y-140285046D01*
X142779376Y-140277670D01*
X142763783Y-140269873D01*
X142748360Y-140261654D01*
X142733106Y-140253014D01*
X142718021Y-140243953D01*
X142703107Y-140234470D01*
X142688362Y-140224566D01*
X142673786Y-140214240D01*
X142659380Y-140203493D01*
X142645144Y-140192324D01*
X142631077Y-140180734D01*
X142617180Y-140168722D01*
X142603452Y-140156289D01*
X142589894Y-140143434D01*
X142576506Y-140130158D01*
X142563388Y-140116594D01*
X142550686Y-140102874D01*
X142538401Y-140088999D01*
X142526532Y-140074969D01*
X142515079Y-140060783D01*
X142504043Y-140046443D01*
X142493424Y-140031947D01*
X142483221Y-140017295D01*
X142473434Y-140002489D01*
X142464064Y-139987527D01*
X142455110Y-139972409D01*
X142446573Y-139957137D01*
X142438452Y-139941709D01*
X142430747Y-139926126D01*
X142423460Y-139910388D01*
X142416588Y-139894494D01*
X142410133Y-139878446D01*
X142404094Y-139862242D01*
X142398472Y-139845882D01*
X142393267Y-139829367D01*
X142388477Y-139812698D01*
X142384105Y-139795872D01*
X142380148Y-139778892D01*
X142376609Y-139761756D01*
X142373485Y-139744465D01*
X142370778Y-139727019D01*
X142368488Y-139709417D01*
X142366614Y-139691660D01*
X142365156Y-139673748D01*
X142364115Y-139655681D01*
X142363490Y-139637458D01*
X142363282Y-139619080D01*
X142565881Y-139619080D01*
X142566475Y-139645840D01*
X142568257Y-139672083D01*
X142571227Y-139697807D01*
X142575384Y-139723013D01*
X142580729Y-139747701D01*
X142587262Y-139771871D01*
X142594983Y-139795523D01*
X142603892Y-139818657D01*
X142613988Y-139841273D01*
X142625273Y-139863371D01*
X142637745Y-139884950D01*
X142651405Y-139906012D01*
X142666252Y-139926556D01*
X142682288Y-139946581D01*
X142699511Y-139966089D01*
X142717923Y-139985078D01*
X142737148Y-140003223D01*
X142756906Y-140020197D01*
X142777196Y-140036001D01*
X142798019Y-140050634D01*
X142819374Y-140064097D01*
X142841261Y-140076389D01*
X142863681Y-140087510D01*
X142886633Y-140097460D01*
X142910118Y-140106240D01*
X142934135Y-140113849D01*
X142958684Y-140120288D01*
X142983766Y-140125556D01*
X143009380Y-140129653D01*
X143035526Y-140132580D01*
X143062205Y-140134336D01*
X143089416Y-140134921D01*
X143116584Y-140134336D01*
X143143226Y-140132580D01*
X143169341Y-140129653D01*
X143194929Y-140125556D01*
X143219991Y-140120288D01*
X143244526Y-140113849D01*
X143268534Y-140106240D01*
X143292015Y-140097460D01*
X143314970Y-140087510D01*
X143337399Y-140076389D01*
X143359301Y-140064097D01*
X143380676Y-140050634D01*
X143401524Y-140036001D01*
X143421846Y-140020197D01*
X143441641Y-140003223D01*
X143460909Y-139985078D01*
X143479276Y-139966089D01*
X143496458Y-139946581D01*
X143512455Y-139926556D01*
X143527267Y-139906012D01*
X143540894Y-139884950D01*
X143553336Y-139863371D01*
X143564593Y-139841273D01*
X143574666Y-139818657D01*
X143583553Y-139795523D01*
X143591255Y-139771871D01*
X143597772Y-139747701D01*
X143603105Y-139723013D01*
X143607252Y-139697807D01*
X143610214Y-139672083D01*
X143611992Y-139645840D01*
X143612584Y-139619080D01*
X143611992Y-139592320D01*
X143610214Y-139566077D01*
X143607252Y-139540353D01*
X143603105Y-139515147D01*
X143597772Y-139490459D01*
X143591255Y-139466289D01*
X143583553Y-139442637D01*
X143574666Y-139419503D01*
X143564593Y-139396887D01*
X143553336Y-139374790D01*
X143540894Y-139353210D01*
X143527267Y-139332148D01*
X143512455Y-139311605D01*
X143496458Y-139291579D01*
X143479276Y-139272072D01*
X143460909Y-139253082D01*
X143441641Y-139234937D01*
X143421846Y-139217963D01*
X143401524Y-139202159D01*
X143380676Y-139187526D01*
X143359301Y-139174063D01*
X143337399Y-139161772D01*
X143314970Y-139150650D01*
X143292015Y-139140700D01*
X143268534Y-139131920D01*
X143244526Y-139124311D01*
X143219991Y-139117872D01*
X143194929Y-139112604D01*
X143169341Y-139108507D01*
X143143226Y-139105581D01*
X143116584Y-139103825D01*
X143089416Y-139103239D01*
X143062205Y-139103825D01*
X143035526Y-139105581D01*
X143009380Y-139108507D01*
X142983766Y-139112604D01*
X142958684Y-139117872D01*
X142934135Y-139124311D01*
X142910118Y-139131920D01*
X142886633Y-139140700D01*
X142863681Y-139150650D01*
X142841261Y-139161772D01*
X142819374Y-139174063D01*
X142798019Y-139187526D01*
X142777196Y-139202159D01*
X142756906Y-139217963D01*
X142737148Y-139234937D01*
X142717923Y-139253082D01*
X142699511Y-139272072D01*
X142682288Y-139291579D01*
X142666252Y-139311605D01*
X142651405Y-139332148D01*
X142637745Y-139353210D01*
X142625273Y-139374790D01*
X142613988Y-139396887D01*
X142603892Y-139419503D01*
X142594983Y-139442637D01*
X142587262Y-139466289D01*
X142580729Y-139490459D01*
X142575384Y-139515147D01*
X142571227Y-139540353D01*
X142568257Y-139566077D01*
X142566475Y-139592320D01*
X142565881Y-139619080D01*
X142363282Y-139619080D01*
X142363490Y-139600702D01*
X142364115Y-139582479D01*
X142365156Y-139564412D01*
X142366614Y-139546500D01*
X142368488Y-139528743D01*
X142370778Y-139511141D01*
X142373485Y-139493695D01*
X142376609Y-139476404D01*
X142380148Y-139459268D01*
X142384105Y-139442288D01*
X142388477Y-139425463D01*
X142393267Y-139408793D01*
X142398472Y-139392278D01*
X142404094Y-139375919D01*
X142410133Y-139359715D01*
X142416588Y-139343666D01*
X142423460Y-139327772D01*
X142430747Y-139312034D01*
X142438452Y-139296451D01*
X142446573Y-139281023D01*
X142455110Y-139265751D01*
X142464064Y-139250634D01*
X142473434Y-139235672D01*
X142483221Y-139220865D01*
X142493424Y-139206214D01*
X142504043Y-139191718D01*
X142515079Y-139177377D01*
X142526532Y-139163191D01*
X142538401Y-139149161D01*
X142550686Y-139135286D01*
X142563388Y-139121566D01*
X142576506Y-139108002D01*
X142589894Y-139094726D01*
X142603452Y-139081871D01*
X142617180Y-139069438D01*
X142631077Y-139057426D01*
X142645144Y-139045836D01*
X142659380Y-139034668D01*
X142673786Y-139023920D01*
X142688362Y-139013594D01*
X142703107Y-139003690D01*
X142718021Y-138994207D01*
X142733106Y-138985146D01*
X142748360Y-138976506D01*
X142763783Y-138968287D01*
X142779376Y-138960490D01*
X142795139Y-138953115D01*
X142811071Y-138946161D01*
X142827173Y-138939628D01*
X142843444Y-138933517D01*
X142859885Y-138927827D01*
X142876495Y-138922559D01*
X142893276Y-138917712D01*
X142910225Y-138913286D01*
X142927345Y-138909283D01*
X142944633Y-138905700D01*
X142962092Y-138902539D01*
X142979720Y-138899800D01*
X142997518Y-138897482D01*
X143015485Y-138895585D01*
X143033622Y-138894110D01*
X143051928Y-138893056D01*
X143070404Y-138892424D01*
X143089050Y-138892213D01*
X143107696Y-138892424D01*
G37*
G36*
X142270592Y-138915661D02*
G01*
X141325006Y-138915661D01*
X141325006Y-139126687D01*
X141696499Y-139126687D01*
X141696499Y-140322500D01*
X141899099Y-140322500D01*
X141899099Y-139126687D01*
X142270592Y-139126687D01*
X142270592Y-138915661D01*
G37*
G36*
X141162706Y-138915661D02*
G01*
X140217120Y-138915661D01*
X140217120Y-139126687D01*
X140588614Y-139126687D01*
X140588614Y-140322500D01*
X140791213Y-140322500D01*
X140791213Y-139126687D01*
X141162706Y-139126687D01*
X141162706Y-138915661D01*
G37*
G36*
X139414744Y-138892424D02*
G01*
X139433221Y-138893056D01*
X139451529Y-138894110D01*
X139469668Y-138895585D01*
X139487639Y-138897482D01*
X139505440Y-138899800D01*
X139523073Y-138902539D01*
X139540537Y-138905700D01*
X139557832Y-138909283D01*
X139574958Y-138913286D01*
X139591915Y-138917712D01*
X139608704Y-138922559D01*
X139625323Y-138927827D01*
X139641774Y-138933517D01*
X139658055Y-138939628D01*
X139674168Y-138946161D01*
X139690112Y-138953115D01*
X139705887Y-138960490D01*
X139721494Y-138968287D01*
X139736931Y-138976506D01*
X139752200Y-138985146D01*
X139767299Y-138994207D01*
X139782230Y-139003690D01*
X139796992Y-139013594D01*
X139811585Y-139023920D01*
X139826009Y-139034668D01*
X139840264Y-139045836D01*
X139854351Y-139057426D01*
X139868268Y-139069438D01*
X139882017Y-139081871D01*
X139895597Y-139094726D01*
X139909008Y-139108002D01*
X139922126Y-139121566D01*
X139934828Y-139135286D01*
X139947113Y-139149161D01*
X139958982Y-139163191D01*
X139970435Y-139177377D01*
X139981471Y-139191718D01*
X139992090Y-139206214D01*
X140002293Y-139220865D01*
X140012080Y-139235672D01*
X140021450Y-139250634D01*
X140030404Y-139265751D01*
X140038941Y-139281023D01*
X140047062Y-139296451D01*
X140054766Y-139312034D01*
X140062054Y-139327772D01*
X140068926Y-139343666D01*
X140075381Y-139359715D01*
X140081419Y-139375919D01*
X140087042Y-139392278D01*
X140092247Y-139408793D01*
X140097036Y-139425463D01*
X140101409Y-139442288D01*
X140105365Y-139459268D01*
X140108905Y-139476404D01*
X140112029Y-139493695D01*
X140114736Y-139511141D01*
X140117026Y-139528743D01*
X140118900Y-139546500D01*
X140120358Y-139564412D01*
X140121399Y-139582479D01*
X140122024Y-139600702D01*
X140122232Y-139619080D01*
X140122024Y-139637458D01*
X140121399Y-139655681D01*
X140120358Y-139673748D01*
X140118900Y-139691660D01*
X140117026Y-139709417D01*
X140114736Y-139727019D01*
X140112029Y-139744465D01*
X140108905Y-139761756D01*
X140105365Y-139778892D01*
X140101409Y-139795872D01*
X140097036Y-139812698D01*
X140092247Y-139829367D01*
X140087042Y-139845882D01*
X140081419Y-139862242D01*
X140075381Y-139878446D01*
X140068926Y-139894494D01*
X140062054Y-139910388D01*
X140054766Y-139926126D01*
X140047062Y-139941709D01*
X140038941Y-139957137D01*
X140030404Y-139972409D01*
X140021450Y-139987527D01*
X140012080Y-140002489D01*
X140002293Y-140017295D01*
X139992090Y-140031947D01*
X139981471Y-140046443D01*
X139970435Y-140060783D01*
X139958982Y-140074969D01*
X139947113Y-140088999D01*
X139934828Y-140102874D01*
X139922126Y-140116594D01*
X139909008Y-140130158D01*
X139895597Y-140143434D01*
X139882017Y-140156289D01*
X139868268Y-140168722D01*
X139854351Y-140180734D01*
X139840264Y-140192324D01*
X139826009Y-140203493D01*
X139811585Y-140214240D01*
X139796992Y-140224566D01*
X139782230Y-140234470D01*
X139767299Y-140243953D01*
X139752200Y-140253014D01*
X139736931Y-140261654D01*
X139721494Y-140269873D01*
X139705887Y-140277670D01*
X139690112Y-140285046D01*
X139674168Y-140292000D01*
X139658055Y-140298532D01*
X139641774Y-140304644D01*
X139625323Y-140310333D01*
X139608704Y-140315602D01*
X139591915Y-140320448D01*
X139574958Y-140324874D01*
X139557832Y-140328878D01*
X139540537Y-140332460D01*
X139523073Y-140335621D01*
X139505440Y-140338360D01*
X139487639Y-140340679D01*
X139469668Y-140342575D01*
X139451529Y-140344050D01*
X139433221Y-140345104D01*
X139414744Y-140345736D01*
X139396098Y-140345947D01*
X139377452Y-140345736D01*
X139358976Y-140345104D01*
X139340670Y-140344050D01*
X139322533Y-140342575D01*
X139304566Y-140340679D01*
X139286768Y-140338360D01*
X139269140Y-140335621D01*
X139251682Y-140332460D01*
X139234393Y-140328878D01*
X139217273Y-140324874D01*
X139200324Y-140320448D01*
X139183544Y-140315602D01*
X139166933Y-140310333D01*
X139150492Y-140304644D01*
X139134221Y-140298532D01*
X139118119Y-140292000D01*
X139102187Y-140285046D01*
X139086424Y-140277670D01*
X139070831Y-140269873D01*
X139055408Y-140261654D01*
X139040154Y-140253014D01*
X139025070Y-140243953D01*
X139010155Y-140234470D01*
X138995410Y-140224566D01*
X138980834Y-140214240D01*
X138966428Y-140203493D01*
X138952192Y-140192324D01*
X138938125Y-140180734D01*
X138924228Y-140168722D01*
X138910501Y-140156289D01*
X138896943Y-140143434D01*
X138883554Y-140130158D01*
X138870436Y-140116594D01*
X138857734Y-140102874D01*
X138845449Y-140088999D01*
X138833580Y-140074969D01*
X138822127Y-140060783D01*
X138811091Y-140046443D01*
X138800472Y-140031947D01*
X138790269Y-140017295D01*
X138780482Y-140002489D01*
X138771112Y-139987527D01*
X138762158Y-139972409D01*
X138753621Y-139957137D01*
X138745500Y-139941709D01*
X138737796Y-139926126D01*
X138730508Y-139910388D01*
X138723636Y-139894494D01*
X138717181Y-139878446D01*
X138711143Y-139862242D01*
X138705520Y-139845882D01*
X138700315Y-139829367D01*
X138695526Y-139812698D01*
X138691153Y-139795872D01*
X138687197Y-139778892D01*
X138683657Y-139761756D01*
X138680533Y-139744465D01*
X138677826Y-139727019D01*
X138675536Y-139709417D01*
X138673662Y-139691660D01*
X138672204Y-139673748D01*
X138671163Y-139655681D01*
X138670538Y-139637458D01*
X138670330Y-139619080D01*
X138872930Y-139619080D01*
X138873524Y-139645840D01*
X138875305Y-139672083D01*
X138878275Y-139697807D01*
X138882432Y-139723013D01*
X138887777Y-139747701D01*
X138894310Y-139771871D01*
X138902031Y-139795523D01*
X138910940Y-139818657D01*
X138921036Y-139841273D01*
X138932321Y-139863371D01*
X138944793Y-139884950D01*
X138958453Y-139906012D01*
X138973301Y-139926556D01*
X138989336Y-139946581D01*
X139006560Y-139966089D01*
X139024971Y-139985078D01*
X139044196Y-140003223D01*
X139063954Y-140020197D01*
X139084245Y-140036001D01*
X139105067Y-140050634D01*
X139126422Y-140064097D01*
X139148310Y-140076389D01*
X139170729Y-140087510D01*
X139193682Y-140097460D01*
X139217166Y-140106240D01*
X139241183Y-140113849D01*
X139265732Y-140120288D01*
X139290814Y-140125556D01*
X139316428Y-140129653D01*
X139342574Y-140132580D01*
X139369253Y-140134336D01*
X139396464Y-140134921D01*
X139423632Y-140134336D01*
X139450274Y-140132580D01*
X139476389Y-140129653D01*
X139501977Y-140125556D01*
X139527039Y-140120288D01*
X139551574Y-140113849D01*
X139575582Y-140106240D01*
X139599064Y-140097460D01*
X139622019Y-140087510D01*
X139644447Y-140076389D01*
X139666349Y-140064097D01*
X139687724Y-140050634D01*
X139708572Y-140036001D01*
X139728894Y-140020197D01*
X139748689Y-140003223D01*
X139767958Y-139985078D01*
X139786324Y-139966089D01*
X139803506Y-139946581D01*
X139819503Y-139926556D01*
X139834315Y-139906012D01*
X139847942Y-139884950D01*
X139860384Y-139863371D01*
X139871642Y-139841273D01*
X139881714Y-139818657D01*
X139890601Y-139795523D01*
X139898303Y-139771871D01*
X139904820Y-139747701D01*
X139910153Y-139723013D01*
X139914300Y-139697807D01*
X139917262Y-139672083D01*
X139919040Y-139645840D01*
X139919632Y-139619080D01*
X139919040Y-139592320D01*
X139917262Y-139566077D01*
X139914300Y-139540353D01*
X139910153Y-139515147D01*
X139904820Y-139490459D01*
X139898303Y-139466289D01*
X139890601Y-139442637D01*
X139881714Y-139419503D01*
X139871642Y-139396887D01*
X139860384Y-139374790D01*
X139847942Y-139353210D01*
X139834315Y-139332148D01*
X139819503Y-139311605D01*
X139803506Y-139291579D01*
X139786324Y-139272072D01*
X139767958Y-139253082D01*
X139748689Y-139234937D01*
X139728894Y-139217963D01*
X139708572Y-139202159D01*
X139687724Y-139187526D01*
X139666349Y-139174063D01*
X139644447Y-139161772D01*
X139622019Y-139150650D01*
X139599064Y-139140700D01*
X139575582Y-139131920D01*
X139551574Y-139124311D01*
X139527039Y-139117872D01*
X139501977Y-139112604D01*
X139476389Y-139108507D01*
X139450274Y-139105581D01*
X139423632Y-139103825D01*
X139396464Y-139103239D01*
X139369253Y-139103825D01*
X139342574Y-139105581D01*
X139316428Y-139108507D01*
X139290814Y-139112604D01*
X139265732Y-139117872D01*
X139241183Y-139124311D01*
X139217166Y-139131920D01*
X139193682Y-139140700D01*
X139170729Y-139150650D01*
X139148310Y-139161772D01*
X139126422Y-139174063D01*
X139105067Y-139187526D01*
X139084245Y-139202159D01*
X139063954Y-139217963D01*
X139044196Y-139234937D01*
X139024971Y-139253082D01*
X139006560Y-139272072D01*
X138989336Y-139291579D01*
X138973301Y-139311605D01*
X138958453Y-139332148D01*
X138944793Y-139353210D01*
X138932321Y-139374790D01*
X138921036Y-139396887D01*
X138910940Y-139419503D01*
X138902031Y-139442637D01*
X138894310Y-139466289D01*
X138887777Y-139490459D01*
X138882432Y-139515147D01*
X138878275Y-139540353D01*
X138875305Y-139566077D01*
X138873524Y-139592320D01*
X138872930Y-139619080D01*
X138670330Y-139619080D01*
X138670538Y-139600702D01*
X138671163Y-139582479D01*
X138672204Y-139564412D01*
X138673662Y-139546500D01*
X138675536Y-139528743D01*
X138677826Y-139511141D01*
X138680533Y-139493695D01*
X138683657Y-139476404D01*
X138687197Y-139459268D01*
X138691153Y-139442288D01*
X138695526Y-139425463D01*
X138700315Y-139408793D01*
X138705520Y-139392278D01*
X138711143Y-139375919D01*
X138717181Y-139359715D01*
X138723636Y-139343666D01*
X138730508Y-139327772D01*
X138737796Y-139312034D01*
X138745500Y-139296451D01*
X138753621Y-139281023D01*
X138762158Y-139265751D01*
X138771112Y-139250634D01*
X138780482Y-139235672D01*
X138790269Y-139220865D01*
X138800472Y-139206214D01*
X138811091Y-139191718D01*
X138822127Y-139177377D01*
X138833580Y-139163191D01*
X138845449Y-139149161D01*
X138857734Y-139135286D01*
X138870436Y-139121566D01*
X138883554Y-139108002D01*
X138896943Y-139094726D01*
X138910501Y-139081871D01*
X138924228Y-139069438D01*
X138938125Y-139057426D01*
X138952192Y-139045836D01*
X138966428Y-139034668D01*
X138980834Y-139023920D01*
X138995410Y-139013594D01*
X139010155Y-139003690D01*
X139025070Y-138994207D01*
X139040154Y-138985146D01*
X139055408Y-138976506D01*
X139070831Y-138968287D01*
X139086424Y-138960490D01*
X139102187Y-138953115D01*
X139118119Y-138946161D01*
X139134221Y-138939628D01*
X139150492Y-138933517D01*
X139166933Y-138927827D01*
X139183544Y-138922559D01*
X139200324Y-138917712D01*
X139217273Y-138913286D01*
X139234393Y-138909283D01*
X139251682Y-138905700D01*
X139269140Y-138902539D01*
X139286768Y-138899800D01*
X139304566Y-138897482D01*
X139322533Y-138895585D01*
X139340670Y-138894110D01*
X139358976Y-138893056D01*
X139377452Y-138892424D01*
X139396098Y-138892213D01*
X139414744Y-138892424D01*
G37*
G36*
X137716684Y-140345947D02*
G01*
X138168045Y-139473633D01*
X138303233Y-140322500D01*
X138510229Y-140322500D01*
X138269528Y-138869499D01*
X137716684Y-139938550D01*
X137163840Y-138869865D01*
X136923139Y-140322500D01*
X137130135Y-140322500D01*
X137264957Y-139480594D01*
X137716684Y-140345947D01*
G37*
D11*
X85803998Y-138375528D02*
X85303998Y-139875528D01*
X85303998Y-139875528D02*
X84803998Y-138375528D01*
X83518284Y-139875528D02*
X84375427Y-139875528D01*
X83946856Y-139875528D02*
X83946856Y-138375528D01*
X83946856Y-138375528D02*
X84089713Y-138589814D01*
X84089713Y-138589814D02*
X84232570Y-138732671D01*
X84232570Y-138732671D02*
X84375427Y-138804100D01*
X82875428Y-139732671D02*
X82803999Y-139804100D01*
X82803999Y-139804100D02*
X82875428Y-139875528D01*
X82875428Y-139875528D02*
X82946856Y-139804100D01*
X82946856Y-139804100D02*
X82875428Y-139732671D01*
X82875428Y-139732671D02*
X82875428Y-139875528D01*
X81875427Y-138375528D02*
X81732570Y-138375528D01*
X81732570Y-138375528D02*
X81589713Y-138446957D01*
X81589713Y-138446957D02*
X81518285Y-138518385D01*
X81518285Y-138518385D02*
X81446856Y-138661242D01*
X81446856Y-138661242D02*
X81375427Y-138946957D01*
X81375427Y-138946957D02*
X81375427Y-139304100D01*
X81375427Y-139304100D02*
X81446856Y-139589814D01*
X81446856Y-139589814D02*
X81518285Y-139732671D01*
X81518285Y-139732671D02*
X81589713Y-139804100D01*
X81589713Y-139804100D02*
X81732570Y-139875528D01*
X81732570Y-139875528D02*
X81875427Y-139875528D01*
X81875427Y-139875528D02*
X82018285Y-139804100D01*
X82018285Y-139804100D02*
X82089713Y-139732671D01*
X82089713Y-139732671D02*
X82161142Y-139589814D01*
X82161142Y-139589814D02*
X82232570Y-139304100D01*
X82232570Y-139304100D02*
X82232570Y-138946957D01*
X82232570Y-138946957D02*
X82161142Y-138661242D01*
X82161142Y-138661242D02*
X82089713Y-138518385D01*
X82089713Y-138518385D02*
X82018285Y-138446957D01*
X82018285Y-138446957D02*
X81875427Y-138375528D01*
X80875428Y-138375528D02*
X79946856Y-138375528D01*
X79946856Y-138375528D02*
X80446856Y-138946957D01*
X80446856Y-138946957D02*
X80232571Y-138946957D01*
X80232571Y-138946957D02*
X80089714Y-139018385D01*
X80089714Y-139018385D02*
X80018285Y-139089814D01*
X80018285Y-139089814D02*
X79946856Y-139232671D01*
X79946856Y-139232671D02*
X79946856Y-139589814D01*
X79946856Y-139589814D02*
X80018285Y-139732671D01*
X80018285Y-139732671D02*
X80089714Y-139804100D01*
X80089714Y-139804100D02*
X80232571Y-139875528D01*
X80232571Y-139875528D02*
X80661142Y-139875528D01*
X80661142Y-139875528D02*
X80803999Y-139804100D01*
X80803999Y-139804100D02*
X80875428Y-139732671D01*
D12*
X143771238Y-111217419D02*
X143437905Y-112217419D01*
X143437905Y-112217419D02*
X143104572Y-111217419D01*
X142628381Y-112217419D02*
X142723619Y-112169800D01*
X142723619Y-112169800D02*
X142771238Y-112122180D01*
X142771238Y-112122180D02*
X142818857Y-112026942D01*
X142818857Y-112026942D02*
X142818857Y-111741228D01*
X142818857Y-111741228D02*
X142771238Y-111645990D01*
X142771238Y-111645990D02*
X142723619Y-111598371D01*
X142723619Y-111598371D02*
X142628381Y-111550752D01*
X142628381Y-111550752D02*
X142485524Y-111550752D01*
X142485524Y-111550752D02*
X142390286Y-111598371D01*
X142390286Y-111598371D02*
X142342667Y-111645990D01*
X142342667Y-111645990D02*
X142295048Y-111741228D01*
X142295048Y-111741228D02*
X142295048Y-112026942D01*
X142295048Y-112026942D02*
X142342667Y-112122180D01*
X142342667Y-112122180D02*
X142390286Y-112169800D01*
X142390286Y-112169800D02*
X142485524Y-112217419D01*
X142485524Y-112217419D02*
X142628381Y-112217419D01*
X141723619Y-112217419D02*
X141818857Y-112169800D01*
X141818857Y-112169800D02*
X141866476Y-112074561D01*
X141866476Y-112074561D02*
X141866476Y-111217419D01*
X141485523Y-111550752D02*
X141104571Y-111550752D01*
X141342666Y-111217419D02*
X141342666Y-112074561D01*
X141342666Y-112074561D02*
X141295047Y-112169800D01*
X141295047Y-112169800D02*
X141199809Y-112217419D01*
X141199809Y-112217419D02*
X141104571Y-112217419D01*
X140342666Y-112217419D02*
X140342666Y-111693609D01*
X140342666Y-111693609D02*
X140390285Y-111598371D01*
X140390285Y-111598371D02*
X140485523Y-111550752D01*
X140485523Y-111550752D02*
X140675999Y-111550752D01*
X140675999Y-111550752D02*
X140771237Y-111598371D01*
X140342666Y-112169800D02*
X140437904Y-112217419D01*
X140437904Y-112217419D02*
X140675999Y-112217419D01*
X140675999Y-112217419D02*
X140771237Y-112169800D01*
X140771237Y-112169800D02*
X140818856Y-112074561D01*
X140818856Y-112074561D02*
X140818856Y-111979323D01*
X140818856Y-111979323D02*
X140771237Y-111884085D01*
X140771237Y-111884085D02*
X140675999Y-111836466D01*
X140675999Y-111836466D02*
X140437904Y-111836466D01*
X140437904Y-111836466D02*
X140342666Y-111788847D01*
X139437904Y-111550752D02*
X139437904Y-112360276D01*
X139437904Y-112360276D02*
X139485523Y-112455514D01*
X139485523Y-112455514D02*
X139533142Y-112503133D01*
X139533142Y-112503133D02*
X139628380Y-112550752D01*
X139628380Y-112550752D02*
X139771237Y-112550752D01*
X139771237Y-112550752D02*
X139866475Y-112503133D01*
X139437904Y-112169800D02*
X139533142Y-112217419D01*
X139533142Y-112217419D02*
X139723618Y-112217419D01*
X139723618Y-112217419D02*
X139818856Y-112169800D01*
X139818856Y-112169800D02*
X139866475Y-112122180D01*
X139866475Y-112122180D02*
X139914094Y-112026942D01*
X139914094Y-112026942D02*
X139914094Y-111741228D01*
X139914094Y-111741228D02*
X139866475Y-111645990D01*
X139866475Y-111645990D02*
X139818856Y-111598371D01*
X139818856Y-111598371D02*
X139723618Y-111550752D01*
X139723618Y-111550752D02*
X139533142Y-111550752D01*
X139533142Y-111550752D02*
X139437904Y-111598371D01*
X138580761Y-112169800D02*
X138675999Y-112217419D01*
X138675999Y-112217419D02*
X138866475Y-112217419D01*
X138866475Y-112217419D02*
X138961713Y-112169800D01*
X138961713Y-112169800D02*
X139009332Y-112074561D01*
X139009332Y-112074561D02*
X139009332Y-111693609D01*
X139009332Y-111693609D02*
X138961713Y-111598371D01*
X138961713Y-111598371D02*
X138866475Y-111550752D01*
X138866475Y-111550752D02*
X138675999Y-111550752D01*
X138675999Y-111550752D02*
X138580761Y-111598371D01*
X138580761Y-111598371D02*
X138533142Y-111693609D01*
X138533142Y-111693609D02*
X138533142Y-111788847D01*
X138533142Y-111788847D02*
X139009332Y-111884085D01*
X137342665Y-112217419D02*
X137342665Y-111217419D01*
X137342665Y-111217419D02*
X137104570Y-111217419D01*
X137104570Y-111217419D02*
X136961713Y-111265038D01*
X136961713Y-111265038D02*
X136866475Y-111360276D01*
X136866475Y-111360276D02*
X136818856Y-111455514D01*
X136818856Y-111455514D02*
X136771237Y-111645990D01*
X136771237Y-111645990D02*
X136771237Y-111788847D01*
X136771237Y-111788847D02*
X136818856Y-111979323D01*
X136818856Y-111979323D02*
X136866475Y-112074561D01*
X136866475Y-112074561D02*
X136961713Y-112169800D01*
X136961713Y-112169800D02*
X137104570Y-112217419D01*
X137104570Y-112217419D02*
X137342665Y-112217419D01*
X136342665Y-112217419D02*
X136342665Y-111550752D01*
X136342665Y-111217419D02*
X136390284Y-111265038D01*
X136390284Y-111265038D02*
X136342665Y-111312657D01*
X136342665Y-111312657D02*
X136295046Y-111265038D01*
X136295046Y-111265038D02*
X136342665Y-111217419D01*
X136342665Y-111217419D02*
X136342665Y-111312657D01*
X135961713Y-111550752D02*
X135723618Y-112217419D01*
X135723618Y-112217419D02*
X135485523Y-111550752D01*
X135104570Y-112217419D02*
X135104570Y-111550752D01*
X135104570Y-111217419D02*
X135152189Y-111265038D01*
X135152189Y-111265038D02*
X135104570Y-111312657D01*
X135104570Y-111312657D02*
X135056951Y-111265038D01*
X135056951Y-111265038D02*
X135104570Y-111217419D01*
X135104570Y-111217419D02*
X135104570Y-111312657D01*
X134199809Y-112217419D02*
X134199809Y-111217419D01*
X134199809Y-112169800D02*
X134295047Y-112217419D01*
X134295047Y-112217419D02*
X134485523Y-112217419D01*
X134485523Y-112217419D02*
X134580761Y-112169800D01*
X134580761Y-112169800D02*
X134628380Y-112122180D01*
X134628380Y-112122180D02*
X134675999Y-112026942D01*
X134675999Y-112026942D02*
X134675999Y-111741228D01*
X134675999Y-111741228D02*
X134628380Y-111645990D01*
X134628380Y-111645990D02*
X134580761Y-111598371D01*
X134580761Y-111598371D02*
X134485523Y-111550752D01*
X134485523Y-111550752D02*
X134295047Y-111550752D01*
X134295047Y-111550752D02*
X134199809Y-111598371D01*
X133342666Y-112169800D02*
X133437904Y-112217419D01*
X133437904Y-112217419D02*
X133628380Y-112217419D01*
X133628380Y-112217419D02*
X133723618Y-112169800D01*
X133723618Y-112169800D02*
X133771237Y-112074561D01*
X133771237Y-112074561D02*
X133771237Y-111693609D01*
X133771237Y-111693609D02*
X133723618Y-111598371D01*
X133723618Y-111598371D02*
X133628380Y-111550752D01*
X133628380Y-111550752D02*
X133437904Y-111550752D01*
X133437904Y-111550752D02*
X133342666Y-111598371D01*
X133342666Y-111598371D02*
X133295047Y-111693609D01*
X133295047Y-111693609D02*
X133295047Y-111788847D01*
X133295047Y-111788847D02*
X133771237Y-111884085D01*
X132866475Y-112217419D02*
X132866475Y-111550752D01*
X132866475Y-111741228D02*
X132818856Y-111645990D01*
X132818856Y-111645990D02*
X132771237Y-111598371D01*
X132771237Y-111598371D02*
X132675999Y-111550752D01*
X132675999Y-111550752D02*
X132580761Y-111550752D01*
D13*
X133770666Y-121263580D02*
X133818285Y-121311200D01*
X133818285Y-121311200D02*
X133961142Y-121358819D01*
X133961142Y-121358819D02*
X134056380Y-121358819D01*
X134056380Y-121358819D02*
X134199237Y-121311200D01*
X134199237Y-121311200D02*
X134294475Y-121215961D01*
X134294475Y-121215961D02*
X134342094Y-121120723D01*
X134342094Y-121120723D02*
X134389713Y-120930247D01*
X134389713Y-120930247D02*
X134389713Y-120787390D01*
X134389713Y-120787390D02*
X134342094Y-120596914D01*
X134342094Y-120596914D02*
X134294475Y-120501676D01*
X134294475Y-120501676D02*
X134199237Y-120406438D01*
X134199237Y-120406438D02*
X134056380Y-120358819D01*
X134056380Y-120358819D02*
X133961142Y-120358819D01*
X133961142Y-120358819D02*
X133818285Y-120406438D01*
X133818285Y-120406438D02*
X133770666Y-120454057D01*
X133389713Y-120454057D02*
X133342094Y-120406438D01*
X133342094Y-120406438D02*
X133246856Y-120358819D01*
X133246856Y-120358819D02*
X133008761Y-120358819D01*
X133008761Y-120358819D02*
X132913523Y-120406438D01*
X132913523Y-120406438D02*
X132865904Y-120454057D01*
X132865904Y-120454057D02*
X132818285Y-120549295D01*
X132818285Y-120549295D02*
X132818285Y-120644533D01*
X132818285Y-120644533D02*
X132865904Y-120787390D01*
X132865904Y-120787390D02*
X133437332Y-121358819D01*
X133437332Y-121358819D02*
X132818285Y-121358819D01*
X135040571Y-122882819D02*
X135611999Y-122882819D01*
X135326285Y-122882819D02*
X135326285Y-121882819D01*
X135326285Y-121882819D02*
X135421523Y-122025676D01*
X135421523Y-122025676D02*
X135516761Y-122120914D01*
X135516761Y-122120914D02*
X135611999Y-122168533D01*
X134421523Y-121882819D02*
X134326285Y-121882819D01*
X134326285Y-121882819D02*
X134231047Y-121930438D01*
X134231047Y-121930438D02*
X134183428Y-121978057D01*
X134183428Y-121978057D02*
X134135809Y-122073295D01*
X134135809Y-122073295D02*
X134088190Y-122263771D01*
X134088190Y-122263771D02*
X134088190Y-122501866D01*
X134088190Y-122501866D02*
X134135809Y-122692342D01*
X134135809Y-122692342D02*
X134183428Y-122787580D01*
X134183428Y-122787580D02*
X134231047Y-122835200D01*
X134231047Y-122835200D02*
X134326285Y-122882819D01*
X134326285Y-122882819D02*
X134421523Y-122882819D01*
X134421523Y-122882819D02*
X134516761Y-122835200D01*
X134516761Y-122835200D02*
X134564380Y-122787580D01*
X134564380Y-122787580D02*
X134611999Y-122692342D01*
X134611999Y-122692342D02*
X134659618Y-122501866D01*
X134659618Y-122501866D02*
X134659618Y-122263771D01*
X134659618Y-122263771D02*
X134611999Y-122073295D01*
X134611999Y-122073295D02*
X134564380Y-121978057D01*
X134564380Y-121978057D02*
X134516761Y-121930438D01*
X134516761Y-121930438D02*
X134421523Y-121882819D01*
X133231047Y-122216152D02*
X133231047Y-122882819D01*
X133659618Y-122216152D02*
X133659618Y-122739961D01*
X133659618Y-122739961D02*
X133611999Y-122835200D01*
X133611999Y-122835200D02*
X133516761Y-122882819D01*
X133516761Y-122882819D02*
X133373904Y-122882819D01*
X133373904Y-122882819D02*
X133278666Y-122835200D01*
X133278666Y-122835200D02*
X133231047Y-122787580D01*
X132897713Y-122216152D02*
X132516761Y-122216152D01*
X132754856Y-122882819D02*
X132754856Y-122025676D01*
X132754856Y-122025676D02*
X132707237Y-121930438D01*
X132707237Y-121930438D02*
X132611999Y-121882819D01*
X132611999Y-121882819D02*
X132516761Y-121882819D01*
D12*
X152915619Y-89849609D02*
X152772762Y-89897228D01*
X152772762Y-89897228D02*
X152725143Y-89944847D01*
X152725143Y-89944847D02*
X152677524Y-90040085D01*
X152677524Y-90040085D02*
X152677524Y-90182942D01*
X152677524Y-90182942D02*
X152725143Y-90278180D01*
X152725143Y-90278180D02*
X152772762Y-90325800D01*
X152772762Y-90325800D02*
X152868000Y-90373419D01*
X152868000Y-90373419D02*
X153248952Y-90373419D01*
X153248952Y-90373419D02*
X153248952Y-89373419D01*
X153248952Y-89373419D02*
X152915619Y-89373419D01*
X152915619Y-89373419D02*
X152820381Y-89421038D01*
X152820381Y-89421038D02*
X152772762Y-89468657D01*
X152772762Y-89468657D02*
X152725143Y-89563895D01*
X152725143Y-89563895D02*
X152725143Y-89659133D01*
X152725143Y-89659133D02*
X152772762Y-89754371D01*
X152772762Y-89754371D02*
X152820381Y-89801990D01*
X152820381Y-89801990D02*
X152915619Y-89849609D01*
X152915619Y-89849609D02*
X153248952Y-89849609D01*
X151820381Y-90373419D02*
X151820381Y-89849609D01*
X151820381Y-89849609D02*
X151868000Y-89754371D01*
X151868000Y-89754371D02*
X151963238Y-89706752D01*
X151963238Y-89706752D02*
X152153714Y-89706752D01*
X152153714Y-89706752D02*
X152248952Y-89754371D01*
X151820381Y-90325800D02*
X151915619Y-90373419D01*
X151915619Y-90373419D02*
X152153714Y-90373419D01*
X152153714Y-90373419D02*
X152248952Y-90325800D01*
X152248952Y-90325800D02*
X152296571Y-90230561D01*
X152296571Y-90230561D02*
X152296571Y-90135323D01*
X152296571Y-90135323D02*
X152248952Y-90040085D01*
X152248952Y-90040085D02*
X152153714Y-89992466D01*
X152153714Y-89992466D02*
X151915619Y-89992466D01*
X151915619Y-89992466D02*
X151820381Y-89944847D01*
X151487047Y-89706752D02*
X151106095Y-89706752D01*
X151344190Y-89373419D02*
X151344190Y-90230561D01*
X151344190Y-90230561D02*
X151296571Y-90325800D01*
X151296571Y-90325800D02*
X151201333Y-90373419D01*
X151201333Y-90373419D02*
X151106095Y-90373419D01*
X150915618Y-89706752D02*
X150534666Y-89706752D01*
X150772761Y-89373419D02*
X150772761Y-90230561D01*
X150772761Y-90230561D02*
X150725142Y-90325800D01*
X150725142Y-90325800D02*
X150629904Y-90373419D01*
X150629904Y-90373419D02*
X150534666Y-90373419D01*
X149820380Y-90325800D02*
X149915618Y-90373419D01*
X149915618Y-90373419D02*
X150106094Y-90373419D01*
X150106094Y-90373419D02*
X150201332Y-90325800D01*
X150201332Y-90325800D02*
X150248951Y-90230561D01*
X150248951Y-90230561D02*
X150248951Y-89849609D01*
X150248951Y-89849609D02*
X150201332Y-89754371D01*
X150201332Y-89754371D02*
X150106094Y-89706752D01*
X150106094Y-89706752D02*
X149915618Y-89706752D01*
X149915618Y-89706752D02*
X149820380Y-89754371D01*
X149820380Y-89754371D02*
X149772761Y-89849609D01*
X149772761Y-89849609D02*
X149772761Y-89944847D01*
X149772761Y-89944847D02*
X150248951Y-90040085D01*
X149344189Y-90373419D02*
X149344189Y-89706752D01*
X149344189Y-89897228D02*
X149296570Y-89801990D01*
X149296570Y-89801990D02*
X149248951Y-89754371D01*
X149248951Y-89754371D02*
X149153713Y-89706752D01*
X149153713Y-89706752D02*
X149058475Y-89706752D01*
X148820379Y-89706752D02*
X148582284Y-90373419D01*
X148344189Y-89706752D02*
X148582284Y-90373419D01*
X148582284Y-90373419D02*
X148677522Y-90611514D01*
X148677522Y-90611514D02*
X148725141Y-90659133D01*
X148725141Y-90659133D02*
X148820379Y-90706752D01*
X147439427Y-90373419D02*
X148010855Y-90373419D01*
X147725141Y-90373419D02*
X147725141Y-89373419D01*
X147725141Y-89373419D02*
X147820379Y-89516276D01*
X147820379Y-89516276D02*
X147915617Y-89611514D01*
X147915617Y-89611514D02*
X148010855Y-89659133D01*
X147778115Y-87926633D02*
X147016211Y-87926633D01*
X147778115Y-85820049D02*
X147016211Y-85820049D01*
X147397163Y-86201002D02*
X147397163Y-85439097D01*
X145045033Y-107374600D02*
X145140271Y-107326981D01*
X145140271Y-107326981D02*
X145283128Y-107326981D01*
X145283128Y-107326981D02*
X145425985Y-107374600D01*
X145425985Y-107374600D02*
X145521223Y-107469838D01*
X145521223Y-107469838D02*
X145568842Y-107565076D01*
X145568842Y-107565076D02*
X145616461Y-107755552D01*
X145616461Y-107755552D02*
X145616461Y-107898409D01*
X145616461Y-107898409D02*
X145568842Y-108088885D01*
X145568842Y-108088885D02*
X145521223Y-108184123D01*
X145521223Y-108184123D02*
X145425985Y-108279362D01*
X145425985Y-108279362D02*
X145283128Y-108326981D01*
X145283128Y-108326981D02*
X145187890Y-108326981D01*
X145187890Y-108326981D02*
X145045033Y-108279362D01*
X145045033Y-108279362D02*
X144997414Y-108231742D01*
X144997414Y-108231742D02*
X144997414Y-107898409D01*
X144997414Y-107898409D02*
X145187890Y-107898409D01*
X144664080Y-107660314D02*
X144425985Y-108326981D01*
X144187890Y-107660314D02*
X144425985Y-108326981D01*
X144425985Y-108326981D02*
X144521223Y-108565076D01*
X144521223Y-108565076D02*
X144568842Y-108612695D01*
X144568842Y-108612695D02*
X144664080Y-108660314D01*
X143806937Y-108326981D02*
X143806937Y-107660314D01*
X143806937Y-107850790D02*
X143759318Y-107755552D01*
X143759318Y-107755552D02*
X143711699Y-107707933D01*
X143711699Y-107707933D02*
X143616461Y-107660314D01*
X143616461Y-107660314D02*
X143521223Y-107660314D01*
X143045032Y-108326981D02*
X143140270Y-108279362D01*
X143140270Y-108279362D02*
X143187889Y-108231742D01*
X143187889Y-108231742D02*
X143235508Y-108136504D01*
X143235508Y-108136504D02*
X143235508Y-107850790D01*
X143235508Y-107850790D02*
X143187889Y-107755552D01*
X143187889Y-107755552D02*
X143140270Y-107707933D01*
X143140270Y-107707933D02*
X143045032Y-107660314D01*
X143045032Y-107660314D02*
X142902175Y-107660314D01*
X142902175Y-107660314D02*
X142806937Y-107707933D01*
X142806937Y-107707933D02*
X142759318Y-107755552D01*
X142759318Y-107755552D02*
X142711699Y-107850790D01*
X142711699Y-107850790D02*
X142711699Y-108136504D01*
X142711699Y-108136504D02*
X142759318Y-108231742D01*
X142759318Y-108231742D02*
X142806937Y-108279362D01*
X142806937Y-108279362D02*
X142902175Y-108326981D01*
X142902175Y-108326981D02*
X143045032Y-108326981D01*
X142330746Y-108279362D02*
X142235508Y-108326981D01*
X142235508Y-108326981D02*
X142045032Y-108326981D01*
X142045032Y-108326981D02*
X141949794Y-108279362D01*
X141949794Y-108279362D02*
X141902175Y-108184123D01*
X141902175Y-108184123D02*
X141902175Y-108136504D01*
X141902175Y-108136504D02*
X141949794Y-108041266D01*
X141949794Y-108041266D02*
X142045032Y-107993647D01*
X142045032Y-107993647D02*
X142187889Y-107993647D01*
X142187889Y-107993647D02*
X142283127Y-107946028D01*
X142283127Y-107946028D02*
X142330746Y-107850790D01*
X142330746Y-107850790D02*
X142330746Y-107803171D01*
X142330746Y-107803171D02*
X142283127Y-107707933D01*
X142283127Y-107707933D02*
X142187889Y-107660314D01*
X142187889Y-107660314D02*
X142045032Y-107660314D01*
X142045032Y-107660314D02*
X141949794Y-107707933D01*
X141045032Y-108279362D02*
X141140270Y-108326981D01*
X141140270Y-108326981D02*
X141330746Y-108326981D01*
X141330746Y-108326981D02*
X141425984Y-108279362D01*
X141425984Y-108279362D02*
X141473603Y-108231742D01*
X141473603Y-108231742D02*
X141521222Y-108136504D01*
X141521222Y-108136504D02*
X141521222Y-107850790D01*
X141521222Y-107850790D02*
X141473603Y-107755552D01*
X141473603Y-107755552D02*
X141425984Y-107707933D01*
X141425984Y-107707933D02*
X141330746Y-107660314D01*
X141330746Y-107660314D02*
X141140270Y-107660314D01*
X141140270Y-107660314D02*
X141045032Y-107707933D01*
X140473603Y-108326981D02*
X140568841Y-108279362D01*
X140568841Y-108279362D02*
X140616460Y-108231742D01*
X140616460Y-108231742D02*
X140664079Y-108136504D01*
X140664079Y-108136504D02*
X140664079Y-107850790D01*
X140664079Y-107850790D02*
X140616460Y-107755552D01*
X140616460Y-107755552D02*
X140568841Y-107707933D01*
X140568841Y-107707933D02*
X140473603Y-107660314D01*
X140473603Y-107660314D02*
X140330746Y-107660314D01*
X140330746Y-107660314D02*
X140235508Y-107707933D01*
X140235508Y-107707933D02*
X140187889Y-107755552D01*
X140187889Y-107755552D02*
X140140270Y-107850790D01*
X140140270Y-107850790D02*
X140140270Y-108136504D01*
X140140270Y-108136504D02*
X140187889Y-108231742D01*
X140187889Y-108231742D02*
X140235508Y-108279362D01*
X140235508Y-108279362D02*
X140330746Y-108326981D01*
X140330746Y-108326981D02*
X140473603Y-108326981D01*
X139711698Y-107660314D02*
X139711698Y-108660314D01*
X139711698Y-107707933D02*
X139616460Y-107660314D01*
X139616460Y-107660314D02*
X139425984Y-107660314D01*
X139425984Y-107660314D02*
X139330746Y-107707933D01*
X139330746Y-107707933D02*
X139283127Y-107755552D01*
X139283127Y-107755552D02*
X139235508Y-107850790D01*
X139235508Y-107850790D02*
X139235508Y-108136504D01*
X139235508Y-108136504D02*
X139283127Y-108231742D01*
X139283127Y-108231742D02*
X139330746Y-108279362D01*
X139330746Y-108279362D02*
X139425984Y-108326981D01*
X139425984Y-108326981D02*
X139616460Y-108326981D01*
X139616460Y-108326981D02*
X139711698Y-108279362D01*
X138425984Y-108279362D02*
X138521222Y-108326981D01*
X138521222Y-108326981D02*
X138711698Y-108326981D01*
X138711698Y-108326981D02*
X138806936Y-108279362D01*
X138806936Y-108279362D02*
X138854555Y-108184123D01*
X138854555Y-108184123D02*
X138854555Y-107803171D01*
X138854555Y-107803171D02*
X138806936Y-107707933D01*
X138806936Y-107707933D02*
X138711698Y-107660314D01*
X138711698Y-107660314D02*
X138521222Y-107660314D01*
X138521222Y-107660314D02*
X138425984Y-107707933D01*
X138425984Y-107707933D02*
X138378365Y-107803171D01*
X138378365Y-107803171D02*
X138378365Y-107898409D01*
X138378365Y-107898409D02*
X138854555Y-107993647D01*
X137425984Y-108326981D02*
X137997412Y-108326981D01*
X137711698Y-108326981D02*
X137711698Y-107326981D01*
X137711698Y-107326981D02*
X137806936Y-107469838D01*
X137806936Y-107469838D02*
X137902174Y-107565076D01*
X137902174Y-107565076D02*
X137997412Y-107612695D01*
D13*
X132246666Y-118310819D02*
X132579999Y-117834628D01*
X132818094Y-118310819D02*
X132818094Y-117310819D01*
X132818094Y-117310819D02*
X132437142Y-117310819D01*
X132437142Y-117310819D02*
X132341904Y-117358438D01*
X132341904Y-117358438D02*
X132294285Y-117406057D01*
X132294285Y-117406057D02*
X132246666Y-117501295D01*
X132246666Y-117501295D02*
X132246666Y-117644152D01*
X132246666Y-117644152D02*
X132294285Y-117739390D01*
X132294285Y-117739390D02*
X132341904Y-117787009D01*
X132341904Y-117787009D02*
X132437142Y-117834628D01*
X132437142Y-117834628D02*
X132818094Y-117834628D01*
X131865713Y-117406057D02*
X131818094Y-117358438D01*
X131818094Y-117358438D02*
X131722856Y-117310819D01*
X131722856Y-117310819D02*
X131484761Y-117310819D01*
X131484761Y-117310819D02*
X131389523Y-117358438D01*
X131389523Y-117358438D02*
X131341904Y-117406057D01*
X131341904Y-117406057D02*
X131294285Y-117501295D01*
X131294285Y-117501295D02*
X131294285Y-117596533D01*
X131294285Y-117596533D02*
X131341904Y-117739390D01*
X131341904Y-117739390D02*
X131913332Y-118310819D01*
X131913332Y-118310819D02*
X131294285Y-118310819D01*
X145883238Y-118310819D02*
X146454666Y-118310819D01*
X146168952Y-118310819D02*
X146168952Y-117310819D01*
X146168952Y-117310819D02*
X146264190Y-117453676D01*
X146264190Y-117453676D02*
X146359428Y-117548914D01*
X146359428Y-117548914D02*
X146454666Y-117596533D01*
X145264190Y-117310819D02*
X145168952Y-117310819D01*
X145168952Y-117310819D02*
X145073714Y-117358438D01*
X145073714Y-117358438D02*
X145026095Y-117406057D01*
X145026095Y-117406057D02*
X144978476Y-117501295D01*
X144978476Y-117501295D02*
X144930857Y-117691771D01*
X144930857Y-117691771D02*
X144930857Y-117929866D01*
X144930857Y-117929866D02*
X144978476Y-118120342D01*
X144978476Y-118120342D02*
X145026095Y-118215580D01*
X145026095Y-118215580D02*
X145073714Y-118263200D01*
X145073714Y-118263200D02*
X145168952Y-118310819D01*
X145168952Y-118310819D02*
X145264190Y-118310819D01*
X145264190Y-118310819D02*
X145359428Y-118263200D01*
X145359428Y-118263200D02*
X145407047Y-118215580D01*
X145407047Y-118215580D02*
X145454666Y-118120342D01*
X145454666Y-118120342D02*
X145502285Y-117929866D01*
X145502285Y-117929866D02*
X145502285Y-117691771D01*
X145502285Y-117691771D02*
X145454666Y-117501295D01*
X145454666Y-117501295D02*
X145407047Y-117406057D01*
X145407047Y-117406057D02*
X145359428Y-117358438D01*
X145359428Y-117358438D02*
X145264190Y-117310819D01*
X144502285Y-118310819D02*
X144502285Y-117310819D01*
X144407047Y-117929866D02*
X144121333Y-118310819D01*
X144121333Y-117644152D02*
X144502285Y-118025104D01*
X126322895Y-140604000D02*
X126322895Y-140127810D01*
X126037180Y-140699238D02*
X127037180Y-140365905D01*
X127037180Y-140365905D02*
X126037180Y-140032572D01*
X126037180Y-139699238D02*
X126703847Y-139699238D01*
X126513371Y-139699238D02*
X126608609Y-139651619D01*
X126608609Y-139651619D02*
X126656228Y-139604000D01*
X126656228Y-139604000D02*
X126703847Y-139508762D01*
X126703847Y-139508762D02*
X126703847Y-139413524D01*
X126037180Y-138651619D02*
X127037180Y-138651619D01*
X126084800Y-138651619D02*
X126037180Y-138746857D01*
X126037180Y-138746857D02*
X126037180Y-138937333D01*
X126037180Y-138937333D02*
X126084800Y-139032571D01*
X126084800Y-139032571D02*
X126132419Y-139080190D01*
X126132419Y-139080190D02*
X126227657Y-139127809D01*
X126227657Y-139127809D02*
X126513371Y-139127809D01*
X126513371Y-139127809D02*
X126608609Y-139080190D01*
X126608609Y-139080190D02*
X126656228Y-139032571D01*
X126656228Y-139032571D02*
X126703847Y-138937333D01*
X126703847Y-138937333D02*
X126703847Y-138746857D01*
X126703847Y-138746857D02*
X126656228Y-138651619D01*
X126703847Y-137746857D02*
X126037180Y-137746857D01*
X126703847Y-138175428D02*
X126180038Y-138175428D01*
X126180038Y-138175428D02*
X126084800Y-138127809D01*
X126084800Y-138127809D02*
X126037180Y-138032571D01*
X126037180Y-138032571D02*
X126037180Y-137889714D01*
X126037180Y-137889714D02*
X126084800Y-137794476D01*
X126084800Y-137794476D02*
X126132419Y-137746857D01*
X126037180Y-137270666D02*
X126703847Y-137270666D01*
X127037180Y-137270666D02*
X126989561Y-137318285D01*
X126989561Y-137318285D02*
X126941942Y-137270666D01*
X126941942Y-137270666D02*
X126989561Y-137223047D01*
X126989561Y-137223047D02*
X127037180Y-137270666D01*
X127037180Y-137270666D02*
X126941942Y-137270666D01*
X126703847Y-136794476D02*
X126037180Y-136794476D01*
X126608609Y-136794476D02*
X126656228Y-136746857D01*
X126656228Y-136746857D02*
X126703847Y-136651619D01*
X126703847Y-136651619D02*
X126703847Y-136508762D01*
X126703847Y-136508762D02*
X126656228Y-136413524D01*
X126656228Y-136413524D02*
X126560990Y-136365905D01*
X126560990Y-136365905D02*
X126037180Y-136365905D01*
X126037180Y-135746857D02*
X126084800Y-135842095D01*
X126084800Y-135842095D02*
X126132419Y-135889714D01*
X126132419Y-135889714D02*
X126227657Y-135937333D01*
X126227657Y-135937333D02*
X126513371Y-135937333D01*
X126513371Y-135937333D02*
X126608609Y-135889714D01*
X126608609Y-135889714D02*
X126656228Y-135842095D01*
X126656228Y-135842095D02*
X126703847Y-135746857D01*
X126703847Y-135746857D02*
X126703847Y-135604000D01*
X126703847Y-135604000D02*
X126656228Y-135508762D01*
X126656228Y-135508762D02*
X126608609Y-135461143D01*
X126608609Y-135461143D02*
X126513371Y-135413524D01*
X126513371Y-135413524D02*
X126227657Y-135413524D01*
X126227657Y-135413524D02*
X126132419Y-135461143D01*
X126132419Y-135461143D02*
X126084800Y-135508762D01*
X126084800Y-135508762D02*
X126037180Y-135604000D01*
X126037180Y-135604000D02*
X126037180Y-135746857D01*
X125941942Y-135223048D02*
X125941942Y-134461143D01*
X126037180Y-134223047D02*
X127037180Y-134223047D01*
X127037180Y-134223047D02*
X126322895Y-133889714D01*
X126322895Y-133889714D02*
X127037180Y-133556381D01*
X127037180Y-133556381D02*
X126037180Y-133556381D01*
X126084800Y-132699238D02*
X126037180Y-132794476D01*
X126037180Y-132794476D02*
X126037180Y-132984952D01*
X126037180Y-132984952D02*
X126084800Y-133080190D01*
X126084800Y-133080190D02*
X126180038Y-133127809D01*
X126180038Y-133127809D02*
X126560990Y-133127809D01*
X126560990Y-133127809D02*
X126656228Y-133080190D01*
X126656228Y-133080190D02*
X126703847Y-132984952D01*
X126703847Y-132984952D02*
X126703847Y-132794476D01*
X126703847Y-132794476D02*
X126656228Y-132699238D01*
X126656228Y-132699238D02*
X126560990Y-132651619D01*
X126560990Y-132651619D02*
X126465752Y-132651619D01*
X126465752Y-132651619D02*
X126370514Y-133127809D01*
X126703847Y-131794476D02*
X125894323Y-131794476D01*
X125894323Y-131794476D02*
X125799085Y-131842095D01*
X125799085Y-131842095D02*
X125751466Y-131889714D01*
X125751466Y-131889714D02*
X125703847Y-131984952D01*
X125703847Y-131984952D02*
X125703847Y-132127809D01*
X125703847Y-132127809D02*
X125751466Y-132223047D01*
X126084800Y-131794476D02*
X126037180Y-131889714D01*
X126037180Y-131889714D02*
X126037180Y-132080190D01*
X126037180Y-132080190D02*
X126084800Y-132175428D01*
X126084800Y-132175428D02*
X126132419Y-132223047D01*
X126132419Y-132223047D02*
X126227657Y-132270666D01*
X126227657Y-132270666D02*
X126513371Y-132270666D01*
X126513371Y-132270666D02*
X126608609Y-132223047D01*
X126608609Y-132223047D02*
X126656228Y-132175428D01*
X126656228Y-132175428D02*
X126703847Y-132080190D01*
X126703847Y-132080190D02*
X126703847Y-131889714D01*
X126703847Y-131889714D02*
X126656228Y-131794476D01*
X126037180Y-130889714D02*
X126560990Y-130889714D01*
X126560990Y-130889714D02*
X126656228Y-130937333D01*
X126656228Y-130937333D02*
X126703847Y-131032571D01*
X126703847Y-131032571D02*
X126703847Y-131223047D01*
X126703847Y-131223047D02*
X126656228Y-131318285D01*
X126084800Y-130889714D02*
X126037180Y-130984952D01*
X126037180Y-130984952D02*
X126037180Y-131223047D01*
X126037180Y-131223047D02*
X126084800Y-131318285D01*
X126084800Y-131318285D02*
X126180038Y-131365904D01*
X126180038Y-131365904D02*
X126275276Y-131365904D01*
X126275276Y-131365904D02*
X126370514Y-131318285D01*
X126370514Y-131318285D02*
X126418133Y-131223047D01*
X126418133Y-131223047D02*
X126418133Y-130984952D01*
X126418133Y-130984952D02*
X126465752Y-130889714D01*
X125941942Y-130651619D02*
X125941942Y-129889714D01*
X126037180Y-129651618D02*
X127037180Y-129651618D01*
X127037180Y-129651618D02*
X127037180Y-129270666D01*
X127037180Y-129270666D02*
X126989561Y-129175428D01*
X126989561Y-129175428D02*
X126941942Y-129127809D01*
X126941942Y-129127809D02*
X126846704Y-129080190D01*
X126846704Y-129080190D02*
X126703847Y-129080190D01*
X126703847Y-129080190D02*
X126608609Y-129127809D01*
X126608609Y-129127809D02*
X126560990Y-129175428D01*
X126560990Y-129175428D02*
X126513371Y-129270666D01*
X126513371Y-129270666D02*
X126513371Y-129651618D01*
X126037180Y-128651618D02*
X126703847Y-128651618D01*
X126513371Y-128651618D02*
X126608609Y-128603999D01*
X126608609Y-128603999D02*
X126656228Y-128556380D01*
X126656228Y-128556380D02*
X126703847Y-128461142D01*
X126703847Y-128461142D02*
X126703847Y-128365904D01*
X126037180Y-127889713D02*
X126084800Y-127984951D01*
X126084800Y-127984951D02*
X126132419Y-128032570D01*
X126132419Y-128032570D02*
X126227657Y-128080189D01*
X126227657Y-128080189D02*
X126513371Y-128080189D01*
X126513371Y-128080189D02*
X126608609Y-128032570D01*
X126608609Y-128032570D02*
X126656228Y-127984951D01*
X126656228Y-127984951D02*
X126703847Y-127889713D01*
X126703847Y-127889713D02*
X126703847Y-127746856D01*
X126703847Y-127746856D02*
X126656228Y-127651618D01*
X126656228Y-127651618D02*
X126608609Y-127603999D01*
X126608609Y-127603999D02*
X126513371Y-127556380D01*
X126513371Y-127556380D02*
X126227657Y-127556380D01*
X126227657Y-127556380D02*
X126132419Y-127603999D01*
X126132419Y-127603999D02*
X126084800Y-127651618D01*
X126084800Y-127651618D02*
X126037180Y-127746856D01*
X126037180Y-127746856D02*
X126037180Y-127889713D01*
X126037180Y-126603999D02*
X126037180Y-127175427D01*
X126037180Y-126889713D02*
X127037180Y-126889713D01*
X127037180Y-126889713D02*
X126894323Y-126984951D01*
X126894323Y-126984951D02*
X126799085Y-127080189D01*
X126799085Y-127080189D02*
X126751466Y-127175427D01*
X188659271Y-99876901D02*
X188706890Y-99924521D01*
X188706890Y-99924521D02*
X188849747Y-99972140D01*
X188849747Y-99972140D02*
X188944985Y-99972140D01*
X188944985Y-99972140D02*
X189087842Y-99924521D01*
X189087842Y-99924521D02*
X189183080Y-99829282D01*
X189183080Y-99829282D02*
X189230699Y-99734044D01*
X189230699Y-99734044D02*
X189278318Y-99543568D01*
X189278318Y-99543568D02*
X189278318Y-99400711D01*
X189278318Y-99400711D02*
X189230699Y-99210235D01*
X189230699Y-99210235D02*
X189183080Y-99114997D01*
X189183080Y-99114997D02*
X189087842Y-99019759D01*
X189087842Y-99019759D02*
X188944985Y-98972140D01*
X188944985Y-98972140D02*
X188849747Y-98972140D01*
X188849747Y-98972140D02*
X188706890Y-99019759D01*
X188706890Y-99019759D02*
X188659271Y-99067378D01*
X187706890Y-99972140D02*
X188278318Y-99972140D01*
X187992604Y-99972140D02*
X187992604Y-98972140D01*
X187992604Y-98972140D02*
X188087842Y-99114997D01*
X188087842Y-99114997D02*
X188183080Y-99210235D01*
X188183080Y-99210235D02*
X188278318Y-99257854D01*
X189396571Y-101546819D02*
X189967999Y-101546819D01*
X189682285Y-101546819D02*
X189682285Y-100546819D01*
X189682285Y-100546819D02*
X189777523Y-100689676D01*
X189777523Y-100689676D02*
X189872761Y-100784914D01*
X189872761Y-100784914D02*
X189967999Y-100832533D01*
X188777523Y-100546819D02*
X188682285Y-100546819D01*
X188682285Y-100546819D02*
X188587047Y-100594438D01*
X188587047Y-100594438D02*
X188539428Y-100642057D01*
X188539428Y-100642057D02*
X188491809Y-100737295D01*
X188491809Y-100737295D02*
X188444190Y-100927771D01*
X188444190Y-100927771D02*
X188444190Y-101165866D01*
X188444190Y-101165866D02*
X188491809Y-101356342D01*
X188491809Y-101356342D02*
X188539428Y-101451580D01*
X188539428Y-101451580D02*
X188587047Y-101499200D01*
X188587047Y-101499200D02*
X188682285Y-101546819D01*
X188682285Y-101546819D02*
X188777523Y-101546819D01*
X188777523Y-101546819D02*
X188872761Y-101499200D01*
X188872761Y-101499200D02*
X188920380Y-101451580D01*
X188920380Y-101451580D02*
X188967999Y-101356342D01*
X188967999Y-101356342D02*
X189015618Y-101165866D01*
X189015618Y-101165866D02*
X189015618Y-100927771D01*
X189015618Y-100927771D02*
X188967999Y-100737295D01*
X188967999Y-100737295D02*
X188920380Y-100642057D01*
X188920380Y-100642057D02*
X188872761Y-100594438D01*
X188872761Y-100594438D02*
X188777523Y-100546819D01*
X187587047Y-100880152D02*
X187587047Y-101546819D01*
X188015618Y-100880152D02*
X188015618Y-101403961D01*
X188015618Y-101403961D02*
X187967999Y-101499200D01*
X187967999Y-101499200D02*
X187872761Y-101546819D01*
X187872761Y-101546819D02*
X187729904Y-101546819D01*
X187729904Y-101546819D02*
X187634666Y-101499200D01*
X187634666Y-101499200D02*
X187587047Y-101451580D01*
X187253713Y-100880152D02*
X186872761Y-100880152D01*
X187110856Y-101546819D02*
X187110856Y-100689676D01*
X187110856Y-100689676D02*
X187063237Y-100594438D01*
X187063237Y-100594438D02*
X186967999Y-100546819D01*
X186967999Y-100546819D02*
X186872761Y-100546819D01*
X171249180Y-96931809D02*
X172249180Y-96931809D01*
X172249180Y-96931809D02*
X171249180Y-96360381D01*
X171249180Y-96360381D02*
X172249180Y-96360381D01*
X171249180Y-95312762D02*
X171725371Y-95646095D01*
X171249180Y-95884190D02*
X172249180Y-95884190D01*
X172249180Y-95884190D02*
X172249180Y-95503238D01*
X172249180Y-95503238D02*
X172201561Y-95408000D01*
X172201561Y-95408000D02*
X172153942Y-95360381D01*
X172153942Y-95360381D02*
X172058704Y-95312762D01*
X172058704Y-95312762D02*
X171915847Y-95312762D01*
X171915847Y-95312762D02*
X171820609Y-95360381D01*
X171820609Y-95360381D02*
X171772990Y-95408000D01*
X171772990Y-95408000D02*
X171725371Y-95503238D01*
X171725371Y-95503238D02*
X171725371Y-95884190D01*
X171772990Y-94550857D02*
X171772990Y-94884190D01*
X171249180Y-94884190D02*
X172249180Y-94884190D01*
X172249180Y-94884190D02*
X172249180Y-94408000D01*
X172153942Y-94074666D02*
X172201561Y-94027047D01*
X172201561Y-94027047D02*
X172249180Y-93931809D01*
X172249180Y-93931809D02*
X172249180Y-93693714D01*
X172249180Y-93693714D02*
X172201561Y-93598476D01*
X172201561Y-93598476D02*
X172153942Y-93550857D01*
X172153942Y-93550857D02*
X172058704Y-93503238D01*
X172058704Y-93503238D02*
X171963466Y-93503238D01*
X171963466Y-93503238D02*
X171820609Y-93550857D01*
X171820609Y-93550857D02*
X171249180Y-94122285D01*
X171249180Y-94122285D02*
X171249180Y-93503238D01*
X171915847Y-92646095D02*
X171249180Y-92646095D01*
X172296800Y-92884190D02*
X171582514Y-93122285D01*
X171582514Y-93122285D02*
X171582514Y-92503238D01*
X171249180Y-91646095D02*
X171249180Y-92122285D01*
X171249180Y-92122285D02*
X172249180Y-92122285D01*
X172249180Y-91122285D02*
X172249180Y-91027047D01*
X172249180Y-91027047D02*
X172201561Y-90931809D01*
X172201561Y-90931809D02*
X172153942Y-90884190D01*
X172153942Y-90884190D02*
X172058704Y-90836571D01*
X172058704Y-90836571D02*
X171868228Y-90788952D01*
X171868228Y-90788952D02*
X171630133Y-90788952D01*
X171630133Y-90788952D02*
X171439657Y-90836571D01*
X171439657Y-90836571D02*
X171344419Y-90884190D01*
X171344419Y-90884190D02*
X171296800Y-90931809D01*
X171296800Y-90931809D02*
X171249180Y-91027047D01*
X171249180Y-91027047D02*
X171249180Y-91122285D01*
X171249180Y-91122285D02*
X171296800Y-91217523D01*
X171296800Y-91217523D02*
X171344419Y-91265142D01*
X171344419Y-91265142D02*
X171439657Y-91312761D01*
X171439657Y-91312761D02*
X171630133Y-91360380D01*
X171630133Y-91360380D02*
X171868228Y-91360380D01*
X171868228Y-91360380D02*
X172058704Y-91312761D01*
X172058704Y-91312761D02*
X172153942Y-91265142D01*
X172153942Y-91265142D02*
X172201561Y-91217523D01*
X172201561Y-91217523D02*
X172249180Y-91122285D01*
X171249180Y-89836571D02*
X171249180Y-90407999D01*
X171249180Y-90122285D02*
X172249180Y-90122285D01*
X172249180Y-90122285D02*
X172106323Y-90217523D01*
X172106323Y-90217523D02*
X172011085Y-90312761D01*
X172011085Y-90312761D02*
X171963466Y-90407999D01*
X171630133Y-89407999D02*
X171630133Y-88646095D01*
X171249180Y-89027047D02*
X172011085Y-89027047D01*
X171249180Y-88169904D02*
X172249180Y-88169904D01*
X172249180Y-88169904D02*
X172249180Y-87788952D01*
X172249180Y-87788952D02*
X172201561Y-87693714D01*
X172201561Y-87693714D02*
X172153942Y-87646095D01*
X172153942Y-87646095D02*
X172058704Y-87598476D01*
X172058704Y-87598476D02*
X171915847Y-87598476D01*
X171915847Y-87598476D02*
X171820609Y-87646095D01*
X171820609Y-87646095D02*
X171772990Y-87693714D01*
X171772990Y-87693714D02*
X171725371Y-87788952D01*
X171725371Y-87788952D02*
X171725371Y-88169904D01*
X171534895Y-87217523D02*
X171534895Y-86741333D01*
X171249180Y-87312761D02*
X172249180Y-86979428D01*
X172249180Y-86979428D02*
X171249180Y-86646095D01*
X171630133Y-86312761D02*
X171630133Y-85550857D01*
X171249180Y-85931809D02*
X172011085Y-85931809D01*
X171249180Y-84598476D02*
X171249180Y-85074666D01*
X171249180Y-85074666D02*
X172249180Y-85074666D01*
X171249180Y-84265142D02*
X172249180Y-84265142D01*
X172249180Y-84265142D02*
X171249180Y-83693714D01*
X171249180Y-83693714D02*
X172249180Y-83693714D01*
X171534895Y-83265142D02*
X171534895Y-82788952D01*
X171249180Y-83360380D02*
X172249180Y-83027047D01*
X172249180Y-83027047D02*
X171249180Y-82693714D01*
X171249180Y-81836571D02*
X171249180Y-82407999D01*
X171249180Y-82122285D02*
X172249180Y-82122285D01*
X172249180Y-82122285D02*
X172106323Y-82217523D01*
X172106323Y-82217523D02*
X172011085Y-82312761D01*
X172011085Y-82312761D02*
X171963466Y-82407999D01*
D12*
X85518285Y-77149609D02*
X85375428Y-77197228D01*
X85375428Y-77197228D02*
X85327809Y-77244847D01*
X85327809Y-77244847D02*
X85280190Y-77340085D01*
X85280190Y-77340085D02*
X85280190Y-77482942D01*
X85280190Y-77482942D02*
X85327809Y-77578180D01*
X85327809Y-77578180D02*
X85375428Y-77625800D01*
X85375428Y-77625800D02*
X85470666Y-77673419D01*
X85470666Y-77673419D02*
X85851618Y-77673419D01*
X85851618Y-77673419D02*
X85851618Y-76673419D01*
X85851618Y-76673419D02*
X85518285Y-76673419D01*
X85518285Y-76673419D02*
X85423047Y-76721038D01*
X85423047Y-76721038D02*
X85375428Y-76768657D01*
X85375428Y-76768657D02*
X85327809Y-76863895D01*
X85327809Y-76863895D02*
X85327809Y-76959133D01*
X85327809Y-76959133D02*
X85375428Y-77054371D01*
X85375428Y-77054371D02*
X85423047Y-77101990D01*
X85423047Y-77101990D02*
X85518285Y-77149609D01*
X85518285Y-77149609D02*
X85851618Y-77149609D01*
X84423047Y-77006752D02*
X84423047Y-77673419D01*
X84851618Y-77006752D02*
X84851618Y-77530561D01*
X84851618Y-77530561D02*
X84803999Y-77625800D01*
X84803999Y-77625800D02*
X84708761Y-77673419D01*
X84708761Y-77673419D02*
X84565904Y-77673419D01*
X84565904Y-77673419D02*
X84470666Y-77625800D01*
X84470666Y-77625800D02*
X84423047Y-77578180D01*
X83946856Y-77673419D02*
X83946856Y-77006752D01*
X83946856Y-77101990D02*
X83899237Y-77054371D01*
X83899237Y-77054371D02*
X83803999Y-77006752D01*
X83803999Y-77006752D02*
X83661142Y-77006752D01*
X83661142Y-77006752D02*
X83565904Y-77054371D01*
X83565904Y-77054371D02*
X83518285Y-77149609D01*
X83518285Y-77149609D02*
X83518285Y-77673419D01*
X83518285Y-77149609D02*
X83470666Y-77054371D01*
X83470666Y-77054371D02*
X83375428Y-77006752D01*
X83375428Y-77006752D02*
X83232571Y-77006752D01*
X83232571Y-77006752D02*
X83137332Y-77054371D01*
X83137332Y-77054371D02*
X83089713Y-77149609D01*
X83089713Y-77149609D02*
X83089713Y-77673419D01*
X82613523Y-77006752D02*
X82613523Y-78006752D01*
X82613523Y-77054371D02*
X82518285Y-77006752D01*
X82518285Y-77006752D02*
X82327809Y-77006752D01*
X82327809Y-77006752D02*
X82232571Y-77054371D01*
X82232571Y-77054371D02*
X82184952Y-77101990D01*
X82184952Y-77101990D02*
X82137333Y-77197228D01*
X82137333Y-77197228D02*
X82137333Y-77482942D01*
X82137333Y-77482942D02*
X82184952Y-77578180D01*
X82184952Y-77578180D02*
X82232571Y-77625800D01*
X82232571Y-77625800D02*
X82327809Y-77673419D01*
X82327809Y-77673419D02*
X82518285Y-77673419D01*
X82518285Y-77673419D02*
X82613523Y-77625800D01*
X81327809Y-77625800D02*
X81423047Y-77673419D01*
X81423047Y-77673419D02*
X81613523Y-77673419D01*
X81613523Y-77673419D02*
X81708761Y-77625800D01*
X81708761Y-77625800D02*
X81756380Y-77530561D01*
X81756380Y-77530561D02*
X81756380Y-77149609D01*
X81756380Y-77149609D02*
X81708761Y-77054371D01*
X81708761Y-77054371D02*
X81613523Y-77006752D01*
X81613523Y-77006752D02*
X81423047Y-77006752D01*
X81423047Y-77006752D02*
X81327809Y-77054371D01*
X81327809Y-77054371D02*
X81280190Y-77149609D01*
X81280190Y-77149609D02*
X81280190Y-77244847D01*
X81280190Y-77244847D02*
X81756380Y-77340085D01*
X80851618Y-77673419D02*
X80851618Y-77006752D01*
X80851618Y-77197228D02*
X80803999Y-77101990D01*
X80803999Y-77101990D02*
X80756380Y-77054371D01*
X80756380Y-77054371D02*
X80661142Y-77006752D01*
X80661142Y-77006752D02*
X80565904Y-77006752D01*
X80280189Y-76768657D02*
X80232570Y-76721038D01*
X80232570Y-76721038D02*
X80137332Y-76673419D01*
X80137332Y-76673419D02*
X79899237Y-76673419D01*
X79899237Y-76673419D02*
X79803999Y-76721038D01*
X79803999Y-76721038D02*
X79756380Y-76768657D01*
X79756380Y-76768657D02*
X79708761Y-76863895D01*
X79708761Y-76863895D02*
X79708761Y-76959133D01*
X79708761Y-76959133D02*
X79756380Y-77101990D01*
X79756380Y-77101990D02*
X80327808Y-77673419D01*
X80327808Y-77673419D02*
X79708761Y-77673419D01*
D13*
X132246666Y-114754819D02*
X132579999Y-114278628D01*
X132818094Y-114754819D02*
X132818094Y-113754819D01*
X132818094Y-113754819D02*
X132437142Y-113754819D01*
X132437142Y-113754819D02*
X132341904Y-113802438D01*
X132341904Y-113802438D02*
X132294285Y-113850057D01*
X132294285Y-113850057D02*
X132246666Y-113945295D01*
X132246666Y-113945295D02*
X132246666Y-114088152D01*
X132246666Y-114088152D02*
X132294285Y-114183390D01*
X132294285Y-114183390D02*
X132341904Y-114231009D01*
X132341904Y-114231009D02*
X132437142Y-114278628D01*
X132437142Y-114278628D02*
X132818094Y-114278628D01*
X131294285Y-114754819D02*
X131865713Y-114754819D01*
X131579999Y-114754819D02*
X131579999Y-113754819D01*
X131579999Y-113754819D02*
X131675237Y-113897676D01*
X131675237Y-113897676D02*
X131770475Y-113992914D01*
X131770475Y-113992914D02*
X131865713Y-114040533D01*
X145979134Y-114724316D02*
X146550562Y-114724316D01*
X146264848Y-114724316D02*
X146264848Y-113724316D01*
X146264848Y-113724316D02*
X146360086Y-113867173D01*
X146360086Y-113867173D02*
X146455324Y-113962411D01*
X146455324Y-113962411D02*
X146550562Y-114010030D01*
X145360086Y-113724316D02*
X145264848Y-113724316D01*
X145264848Y-113724316D02*
X145169610Y-113771935D01*
X145169610Y-113771935D02*
X145121991Y-113819554D01*
X145121991Y-113819554D02*
X145074372Y-113914792D01*
X145074372Y-113914792D02*
X145026753Y-114105268D01*
X145026753Y-114105268D02*
X145026753Y-114343363D01*
X145026753Y-114343363D02*
X145074372Y-114533839D01*
X145074372Y-114533839D02*
X145121991Y-114629077D01*
X145121991Y-114629077D02*
X145169610Y-114676697D01*
X145169610Y-114676697D02*
X145264848Y-114724316D01*
X145264848Y-114724316D02*
X145360086Y-114724316D01*
X145360086Y-114724316D02*
X145455324Y-114676697D01*
X145455324Y-114676697D02*
X145502943Y-114629077D01*
X145502943Y-114629077D02*
X145550562Y-114533839D01*
X145550562Y-114533839D02*
X145598181Y-114343363D01*
X145598181Y-114343363D02*
X145598181Y-114105268D01*
X145598181Y-114105268D02*
X145550562Y-113914792D01*
X145550562Y-113914792D02*
X145502943Y-113819554D01*
X145502943Y-113819554D02*
X145455324Y-113771935D01*
X145455324Y-113771935D02*
X145360086Y-113724316D01*
X144598181Y-114724316D02*
X144598181Y-113724316D01*
X144502943Y-114343363D02*
X144217229Y-114724316D01*
X144217229Y-114057649D02*
X144598181Y-114438601D01*
D12*
X202104285Y-77149609D02*
X201961428Y-77197228D01*
X201961428Y-77197228D02*
X201913809Y-77244847D01*
X201913809Y-77244847D02*
X201866190Y-77340085D01*
X201866190Y-77340085D02*
X201866190Y-77482942D01*
X201866190Y-77482942D02*
X201913809Y-77578180D01*
X201913809Y-77578180D02*
X201961428Y-77625800D01*
X201961428Y-77625800D02*
X202056666Y-77673419D01*
X202056666Y-77673419D02*
X202437618Y-77673419D01*
X202437618Y-77673419D02*
X202437618Y-76673419D01*
X202437618Y-76673419D02*
X202104285Y-76673419D01*
X202104285Y-76673419D02*
X202009047Y-76721038D01*
X202009047Y-76721038D02*
X201961428Y-76768657D01*
X201961428Y-76768657D02*
X201913809Y-76863895D01*
X201913809Y-76863895D02*
X201913809Y-76959133D01*
X201913809Y-76959133D02*
X201961428Y-77054371D01*
X201961428Y-77054371D02*
X202009047Y-77101990D01*
X202009047Y-77101990D02*
X202104285Y-77149609D01*
X202104285Y-77149609D02*
X202437618Y-77149609D01*
X201009047Y-77006752D02*
X201009047Y-77673419D01*
X201437618Y-77006752D02*
X201437618Y-77530561D01*
X201437618Y-77530561D02*
X201389999Y-77625800D01*
X201389999Y-77625800D02*
X201294761Y-77673419D01*
X201294761Y-77673419D02*
X201151904Y-77673419D01*
X201151904Y-77673419D02*
X201056666Y-77625800D01*
X201056666Y-77625800D02*
X201009047Y-77578180D01*
X200532856Y-77673419D02*
X200532856Y-77006752D01*
X200532856Y-77101990D02*
X200485237Y-77054371D01*
X200485237Y-77054371D02*
X200389999Y-77006752D01*
X200389999Y-77006752D02*
X200247142Y-77006752D01*
X200247142Y-77006752D02*
X200151904Y-77054371D01*
X200151904Y-77054371D02*
X200104285Y-77149609D01*
X200104285Y-77149609D02*
X200104285Y-77673419D01*
X200104285Y-77149609D02*
X200056666Y-77054371D01*
X200056666Y-77054371D02*
X199961428Y-77006752D01*
X199961428Y-77006752D02*
X199818571Y-77006752D01*
X199818571Y-77006752D02*
X199723332Y-77054371D01*
X199723332Y-77054371D02*
X199675713Y-77149609D01*
X199675713Y-77149609D02*
X199675713Y-77673419D01*
X199199523Y-77006752D02*
X199199523Y-78006752D01*
X199199523Y-77054371D02*
X199104285Y-77006752D01*
X199104285Y-77006752D02*
X198913809Y-77006752D01*
X198913809Y-77006752D02*
X198818571Y-77054371D01*
X198818571Y-77054371D02*
X198770952Y-77101990D01*
X198770952Y-77101990D02*
X198723333Y-77197228D01*
X198723333Y-77197228D02*
X198723333Y-77482942D01*
X198723333Y-77482942D02*
X198770952Y-77578180D01*
X198770952Y-77578180D02*
X198818571Y-77625800D01*
X198818571Y-77625800D02*
X198913809Y-77673419D01*
X198913809Y-77673419D02*
X199104285Y-77673419D01*
X199104285Y-77673419D02*
X199199523Y-77625800D01*
X197913809Y-77625800D02*
X198009047Y-77673419D01*
X198009047Y-77673419D02*
X198199523Y-77673419D01*
X198199523Y-77673419D02*
X198294761Y-77625800D01*
X198294761Y-77625800D02*
X198342380Y-77530561D01*
X198342380Y-77530561D02*
X198342380Y-77149609D01*
X198342380Y-77149609D02*
X198294761Y-77054371D01*
X198294761Y-77054371D02*
X198199523Y-77006752D01*
X198199523Y-77006752D02*
X198009047Y-77006752D01*
X198009047Y-77006752D02*
X197913809Y-77054371D01*
X197913809Y-77054371D02*
X197866190Y-77149609D01*
X197866190Y-77149609D02*
X197866190Y-77244847D01*
X197866190Y-77244847D02*
X198342380Y-77340085D01*
X197437618Y-77673419D02*
X197437618Y-77006752D01*
X197437618Y-77197228D02*
X197389999Y-77101990D01*
X197389999Y-77101990D02*
X197342380Y-77054371D01*
X197342380Y-77054371D02*
X197247142Y-77006752D01*
X197247142Y-77006752D02*
X197151904Y-77006752D01*
X196389999Y-77006752D02*
X196389999Y-77673419D01*
X196628094Y-76625800D02*
X196866189Y-77340085D01*
X196866189Y-77340085D02*
X196247142Y-77340085D01*
D14*
%TO.C,C2*%
X128065000Y-119160113D02*
X128065000Y-119660113D01*
X127815000Y-119410113D02*
X128315000Y-119410113D01*
X126960000Y-121964888D02*
X132120000Y-121964888D01*
X126960000Y-122004888D02*
X132120000Y-122004888D01*
X126961000Y-122044888D02*
X132119000Y-122044888D01*
X126962000Y-122084888D02*
X132118000Y-122084888D01*
X126964000Y-122124888D02*
X132116000Y-122124888D01*
X126967000Y-122164888D02*
X132113000Y-122164888D01*
X130580000Y-122204888D02*
X132109000Y-122204888D01*
X126971000Y-122204888D02*
X128500000Y-122204888D01*
X130580000Y-122244888D02*
X132105000Y-122244888D01*
X126975000Y-122244888D02*
X128500000Y-122244888D01*
X130580000Y-122284888D02*
X132101000Y-122284888D01*
X126979000Y-122284888D02*
X128500000Y-122284888D01*
X130580000Y-122324888D02*
X132096000Y-122324888D01*
X126984000Y-122324888D02*
X128500000Y-122324888D01*
X130580000Y-122364888D02*
X132090000Y-122364888D01*
X126990000Y-122364888D02*
X128500000Y-122364888D01*
X130580000Y-122404888D02*
X132083000Y-122404888D01*
X126997000Y-122404888D02*
X128500000Y-122404888D01*
X130580000Y-122444888D02*
X132076000Y-122444888D01*
X127004000Y-122444888D02*
X128500000Y-122444888D01*
X130580000Y-122484888D02*
X132068000Y-122484888D01*
X127012000Y-122484888D02*
X128500000Y-122484888D01*
X130580000Y-122524888D02*
X132060000Y-122524888D01*
X127020000Y-122524888D02*
X128500000Y-122524888D01*
X130580000Y-122564888D02*
X132051000Y-122564888D01*
X127029000Y-122564888D02*
X128500000Y-122564888D01*
X130580000Y-122604888D02*
X132041000Y-122604888D01*
X127039000Y-122604888D02*
X128500000Y-122604888D01*
X130580000Y-122644888D02*
X132031000Y-122644888D01*
X127049000Y-122644888D02*
X128500000Y-122644888D01*
X130580000Y-122685888D02*
X132020000Y-122685888D01*
X127060000Y-122685888D02*
X128500000Y-122685888D01*
X130580000Y-122725888D02*
X132008000Y-122725888D01*
X127072000Y-122725888D02*
X128500000Y-122725888D01*
X130580000Y-122765888D02*
X131995000Y-122765888D01*
X127085000Y-122765888D02*
X128500000Y-122765888D01*
X130580000Y-122805888D02*
X131982000Y-122805888D01*
X127098000Y-122805888D02*
X128500000Y-122805888D01*
X130580000Y-122845888D02*
X131968000Y-122845888D01*
X127112000Y-122845888D02*
X128500000Y-122845888D01*
X130580000Y-122885888D02*
X131954000Y-122885888D01*
X127126000Y-122885888D02*
X128500000Y-122885888D01*
X130580000Y-122925888D02*
X131938000Y-122925888D01*
X127142000Y-122925888D02*
X128500000Y-122925888D01*
X130580000Y-122965888D02*
X131922000Y-122965888D01*
X127158000Y-122965888D02*
X128500000Y-122965888D01*
X130580000Y-123005888D02*
X131905000Y-123005888D01*
X127175000Y-123005888D02*
X128500000Y-123005888D01*
X130580000Y-123045888D02*
X131888000Y-123045888D01*
X127192000Y-123045888D02*
X128500000Y-123045888D01*
X130580000Y-123085888D02*
X131869000Y-123085888D01*
X127211000Y-123085888D02*
X128500000Y-123085888D01*
X130580000Y-123125888D02*
X131850000Y-123125888D01*
X127230000Y-123125888D02*
X128500000Y-123125888D01*
X130580000Y-123165888D02*
X131830000Y-123165888D01*
X127250000Y-123165888D02*
X128500000Y-123165888D01*
X130580000Y-123205888D02*
X131808000Y-123205888D01*
X127272000Y-123205888D02*
X128500000Y-123205888D01*
X130580000Y-123245888D02*
X131787000Y-123245888D01*
X127293000Y-123245888D02*
X128500000Y-123245888D01*
X130580000Y-123285888D02*
X131764000Y-123285888D01*
X127316000Y-123285888D02*
X128500000Y-123285888D01*
X130580000Y-123325888D02*
X131740000Y-123325888D01*
X127340000Y-123325888D02*
X128500000Y-123325888D01*
X130580000Y-123365888D02*
X131715000Y-123365888D01*
X127365000Y-123365888D02*
X128500000Y-123365888D01*
X130580000Y-123405888D02*
X131689000Y-123405888D01*
X127391000Y-123405888D02*
X128500000Y-123405888D01*
X130580000Y-123445888D02*
X131662000Y-123445888D01*
X127418000Y-123445888D02*
X128500000Y-123445888D01*
X130580000Y-123485888D02*
X131635000Y-123485888D01*
X127445000Y-123485888D02*
X128500000Y-123485888D01*
X130580000Y-123525888D02*
X131605000Y-123525888D01*
X127475000Y-123525888D02*
X128500000Y-123525888D01*
X130580000Y-123565888D02*
X131575000Y-123565888D01*
X127505000Y-123565888D02*
X128500000Y-123565888D01*
X130580000Y-123605888D02*
X131544000Y-123605888D01*
X127536000Y-123605888D02*
X128500000Y-123605888D01*
X130580000Y-123645888D02*
X131511000Y-123645888D01*
X127569000Y-123645888D02*
X128500000Y-123645888D01*
X130580000Y-123685888D02*
X131477000Y-123685888D01*
X127603000Y-123685888D02*
X128500000Y-123685888D01*
X130580000Y-123725888D02*
X131441000Y-123725888D01*
X127639000Y-123725888D02*
X128500000Y-123725888D01*
X130580000Y-123765888D02*
X131404000Y-123765888D01*
X127676000Y-123765888D02*
X128500000Y-123765888D01*
X130580000Y-123805888D02*
X131366000Y-123805888D01*
X127714000Y-123805888D02*
X128500000Y-123805888D01*
X130580000Y-123845888D02*
X131325000Y-123845888D01*
X127755000Y-123845888D02*
X128500000Y-123845888D01*
X130580000Y-123885888D02*
X131283000Y-123885888D01*
X127797000Y-123885888D02*
X128500000Y-123885888D01*
X130580000Y-123925888D02*
X131239000Y-123925888D01*
X127841000Y-123925888D02*
X128500000Y-123925888D01*
X130580000Y-123965888D02*
X131193000Y-123965888D01*
X127887000Y-123965888D02*
X128500000Y-123965888D01*
X130580000Y-124005888D02*
X131145000Y-124005888D01*
X127935000Y-124005888D02*
X128500000Y-124005888D01*
X130580000Y-124045888D02*
X131094000Y-124045888D01*
X127986000Y-124045888D02*
X128500000Y-124045888D01*
X130580000Y-124085888D02*
X131040000Y-124085888D01*
X128040000Y-124085888D02*
X128500000Y-124085888D01*
X130580000Y-124125888D02*
X130983000Y-124125888D01*
X128097000Y-124125888D02*
X128500000Y-124125888D01*
X130580000Y-124165888D02*
X130923000Y-124165888D01*
X128157000Y-124165888D02*
X128500000Y-124165888D01*
X130580000Y-124205888D02*
X130859000Y-124205888D01*
X128221000Y-124205888D02*
X128500000Y-124205888D01*
X130580000Y-124245888D02*
X130791000Y-124245888D01*
X128289000Y-124245888D02*
X128500000Y-124245888D01*
X128362000Y-124285888D02*
X130718000Y-124285888D01*
X128442000Y-124325888D02*
X130638000Y-124325888D01*
X128529000Y-124365888D02*
X130551000Y-124365888D01*
X128625000Y-124405888D02*
X130455000Y-124405888D01*
X128735000Y-124445888D02*
X130345000Y-124445888D01*
X128863000Y-124485888D02*
X130217000Y-124485888D01*
X129022000Y-124525888D02*
X130058000Y-124525888D01*
X129256000Y-124565888D02*
X129824000Y-124565888D01*
X132160000Y-121964888D02*
G75*
G03*
X132160000Y-121964888I-2620000J0D01*
G01*
D12*
%TO.C,Battery1*%
X151892000Y-84582000D02*
X148911156Y-84582000D01*
X148911156Y-84582000D02*
X148911156Y-89237553D01*
X148911156Y-89237553D02*
X151892000Y-89237553D01*
X151892000Y-89237553D02*
X151892000Y-84582000D01*
%TO.C,Gyroscope1*%
X151313454Y-106832523D02*
X130513454Y-106832523D01*
X130513454Y-106832523D02*
X130513454Y-91032523D01*
X130513454Y-91032523D02*
X151313454Y-91032523D01*
X151313454Y-91032523D02*
X151313454Y-106832523D01*
D14*
%TO.C,R2*%
X141446000Y-119226000D02*
X134906000Y-119226000D01*
X141446000Y-118896000D02*
X141446000Y-119226000D01*
X141446000Y-116816000D02*
X141446000Y-116486000D01*
X141446000Y-116486000D02*
X134906000Y-116486000D01*
X134906000Y-119226000D02*
X134906000Y-118896000D01*
X134906000Y-116486000D02*
X134906000Y-116816000D01*
D12*
%TO.C,Arduino_Mega_Pro1*%
X86995000Y-140970000D02*
X125495000Y-140970000D01*
X125495000Y-140970000D02*
X125495000Y-87470000D01*
X125495000Y-87470000D02*
X86995000Y-87470000D01*
X86995000Y-87470000D02*
X86995000Y-140970000D01*
X110490000Y-141605000D02*
X117475000Y-141605000D01*
X117475000Y-141605000D02*
X117475000Y-136525000D01*
X117475000Y-136525000D02*
X110490000Y-136525000D01*
X110490000Y-136525000D02*
X110490000Y-141605000D01*
D14*
%TO.C,C1*%
X180817225Y-101551000D02*
X181317225Y-101551000D01*
X181067225Y-101801000D02*
X181067225Y-101301000D01*
X183622000Y-102656000D02*
X183622000Y-97496000D01*
X183662000Y-102656000D02*
X183662000Y-97496000D01*
X183702000Y-102655000D02*
X183702000Y-97497000D01*
X183742000Y-102654000D02*
X183742000Y-97498000D01*
X183782000Y-102652000D02*
X183782000Y-97500000D01*
X183822000Y-102649000D02*
X183822000Y-97503000D01*
X183862000Y-99036000D02*
X183862000Y-97507000D01*
X183862000Y-102645000D02*
X183862000Y-101116000D01*
X183902000Y-99036000D02*
X183902000Y-97511000D01*
X183902000Y-102641000D02*
X183902000Y-101116000D01*
X183942000Y-99036000D02*
X183942000Y-97515000D01*
X183942000Y-102637000D02*
X183942000Y-101116000D01*
X183982000Y-99036000D02*
X183982000Y-97520000D01*
X183982000Y-102632000D02*
X183982000Y-101116000D01*
X184022000Y-99036000D02*
X184022000Y-97526000D01*
X184022000Y-102626000D02*
X184022000Y-101116000D01*
X184062000Y-99036000D02*
X184062000Y-97533000D01*
X184062000Y-102619000D02*
X184062000Y-101116000D01*
X184102000Y-99036000D02*
X184102000Y-97540000D01*
X184102000Y-102612000D02*
X184102000Y-101116000D01*
X184142000Y-99036000D02*
X184142000Y-97548000D01*
X184142000Y-102604000D02*
X184142000Y-101116000D01*
X184182000Y-99036000D02*
X184182000Y-97556000D01*
X184182000Y-102596000D02*
X184182000Y-101116000D01*
X184222000Y-99036000D02*
X184222000Y-97565000D01*
X184222000Y-102587000D02*
X184222000Y-101116000D01*
X184262000Y-99036000D02*
X184262000Y-97575000D01*
X184262000Y-102577000D02*
X184262000Y-101116000D01*
X184302000Y-99036000D02*
X184302000Y-97585000D01*
X184302000Y-102567000D02*
X184302000Y-101116000D01*
X184343000Y-99036000D02*
X184343000Y-97596000D01*
X184343000Y-102556000D02*
X184343000Y-101116000D01*
X184383000Y-99036000D02*
X184383000Y-97608000D01*
X184383000Y-102544000D02*
X184383000Y-101116000D01*
X184423000Y-99036000D02*
X184423000Y-97621000D01*
X184423000Y-102531000D02*
X184423000Y-101116000D01*
X184463000Y-99036000D02*
X184463000Y-97634000D01*
X184463000Y-102518000D02*
X184463000Y-101116000D01*
X184503000Y-99036000D02*
X184503000Y-97648000D01*
X184503000Y-102504000D02*
X184503000Y-101116000D01*
X184543000Y-99036000D02*
X184543000Y-97662000D01*
X184543000Y-102490000D02*
X184543000Y-101116000D01*
X184583000Y-99036000D02*
X184583000Y-97678000D01*
X184583000Y-102474000D02*
X184583000Y-101116000D01*
X184623000Y-99036000D02*
X184623000Y-97694000D01*
X184623000Y-102458000D02*
X184623000Y-101116000D01*
X184663000Y-99036000D02*
X184663000Y-97711000D01*
X184663000Y-102441000D02*
X184663000Y-101116000D01*
X184703000Y-99036000D02*
X184703000Y-97728000D01*
X184703000Y-102424000D02*
X184703000Y-101116000D01*
X184743000Y-99036000D02*
X184743000Y-97747000D01*
X184743000Y-102405000D02*
X184743000Y-101116000D01*
X184783000Y-99036000D02*
X184783000Y-97766000D01*
X184783000Y-102386000D02*
X184783000Y-101116000D01*
X184823000Y-99036000D02*
X184823000Y-97786000D01*
X184823000Y-102366000D02*
X184823000Y-101116000D01*
X184863000Y-99036000D02*
X184863000Y-97808000D01*
X184863000Y-102344000D02*
X184863000Y-101116000D01*
X184903000Y-99036000D02*
X184903000Y-97829000D01*
X184903000Y-102323000D02*
X184903000Y-101116000D01*
X184943000Y-99036000D02*
X184943000Y-97852000D01*
X184943000Y-102300000D02*
X184943000Y-101116000D01*
X184983000Y-99036000D02*
X184983000Y-97876000D01*
X184983000Y-102276000D02*
X184983000Y-101116000D01*
X185023000Y-99036000D02*
X185023000Y-97901000D01*
X185023000Y-102251000D02*
X185023000Y-101116000D01*
X185063000Y-99036000D02*
X185063000Y-97927000D01*
X185063000Y-102225000D02*
X185063000Y-101116000D01*
X185103000Y-99036000D02*
X185103000Y-97954000D01*
X185103000Y-102198000D02*
X185103000Y-101116000D01*
X185143000Y-99036000D02*
X185143000Y-97981000D01*
X185143000Y-102171000D02*
X185143000Y-101116000D01*
X185183000Y-99036000D02*
X185183000Y-98011000D01*
X185183000Y-102141000D02*
X185183000Y-101116000D01*
X185223000Y-99036000D02*
X185223000Y-98041000D01*
X185223000Y-102111000D02*
X185223000Y-101116000D01*
X185263000Y-99036000D02*
X185263000Y-98072000D01*
X185263000Y-102080000D02*
X185263000Y-101116000D01*
X185303000Y-99036000D02*
X185303000Y-98105000D01*
X185303000Y-102047000D02*
X185303000Y-101116000D01*
X185343000Y-99036000D02*
X185343000Y-98139000D01*
X185343000Y-102013000D02*
X185343000Y-101116000D01*
X185383000Y-99036000D02*
X185383000Y-98175000D01*
X185383000Y-101977000D02*
X185383000Y-101116000D01*
X185423000Y-99036000D02*
X185423000Y-98212000D01*
X185423000Y-101940000D02*
X185423000Y-101116000D01*
X185463000Y-99036000D02*
X185463000Y-98250000D01*
X185463000Y-101902000D02*
X185463000Y-101116000D01*
X185503000Y-99036000D02*
X185503000Y-98291000D01*
X185503000Y-101861000D02*
X185503000Y-101116000D01*
X185543000Y-99036000D02*
X185543000Y-98333000D01*
X185543000Y-101819000D02*
X185543000Y-101116000D01*
X185583000Y-99036000D02*
X185583000Y-98377000D01*
X185583000Y-101775000D02*
X185583000Y-101116000D01*
X185623000Y-99036000D02*
X185623000Y-98423000D01*
X185623000Y-101729000D02*
X185623000Y-101116000D01*
X185663000Y-99036000D02*
X185663000Y-98471000D01*
X185663000Y-101681000D02*
X185663000Y-101116000D01*
X185703000Y-99036000D02*
X185703000Y-98522000D01*
X185703000Y-101630000D02*
X185703000Y-101116000D01*
X185743000Y-99036000D02*
X185743000Y-98576000D01*
X185743000Y-101576000D02*
X185743000Y-101116000D01*
X185783000Y-99036000D02*
X185783000Y-98633000D01*
X185783000Y-101519000D02*
X185783000Y-101116000D01*
X185823000Y-99036000D02*
X185823000Y-98693000D01*
X185823000Y-101459000D02*
X185823000Y-101116000D01*
X185863000Y-99036000D02*
X185863000Y-98757000D01*
X185863000Y-101395000D02*
X185863000Y-101116000D01*
X185903000Y-99036000D02*
X185903000Y-98825000D01*
X185903000Y-101327000D02*
X185903000Y-101116000D01*
X185943000Y-101254000D02*
X185943000Y-98898000D01*
X185983000Y-101174000D02*
X185983000Y-98978000D01*
X186023000Y-101087000D02*
X186023000Y-99065000D01*
X186063000Y-100991000D02*
X186063000Y-99161000D01*
X186103000Y-100881000D02*
X186103000Y-99271000D01*
X186143000Y-100753000D02*
X186143000Y-99399000D01*
X186183000Y-100594000D02*
X186183000Y-99558000D01*
X186223000Y-100360000D02*
X186223000Y-99792000D01*
X186242000Y-100076000D02*
G75*
G03*
X186242000Y-100076000I-2620000J0D01*
G01*
D12*
%TO.C,NRF24L01+PA+LNA1*%
X187960000Y-97155000D02*
X172720000Y-97155000D01*
X172720000Y-97155000D02*
X172720000Y-56515000D01*
X172720000Y-56515000D02*
X187960000Y-56515000D01*
X187960000Y-56515000D02*
X187960000Y-97155000D01*
X185420000Y-67945000D02*
X175260000Y-67945000D01*
X175260000Y-67945000D02*
X175260000Y-56515000D01*
X175260000Y-56515000D02*
X185420000Y-56515000D01*
X185420000Y-56515000D02*
X185420000Y-67945000D01*
%TO.C,Bumper2*%
X83820000Y-72136000D02*
X80772000Y-72136000D01*
X80772000Y-72136000D02*
X80772000Y-76200000D01*
X80772000Y-76200000D02*
X83820000Y-76200000D01*
X83820000Y-76200000D02*
X83820000Y-72136000D01*
D14*
%TO.C,R1*%
X134906000Y-112930000D02*
X141446000Y-112930000D01*
X134906000Y-113260000D02*
X134906000Y-112930000D01*
X134906000Y-115340000D02*
X134906000Y-115670000D01*
X134906000Y-115670000D02*
X141446000Y-115670000D01*
X141446000Y-112930000D02*
X141446000Y-113260000D01*
X141446000Y-115670000D02*
X141446000Y-115340000D01*
D12*
%TO.C,Bumper4*%
X201168000Y-72136000D02*
X198120000Y-72136000D01*
X198120000Y-72136000D02*
X198120000Y-76200000D01*
X198120000Y-76200000D02*
X201168000Y-76200000D01*
X201168000Y-76200000D02*
X201168000Y-72136000D01*
%TD*%
M02*
